{
.appVersion = "3243";
.formatVersion = 3;
DisplayStrings = (
"HHÁHOÁOO
HHÀHOÀOO
HHẢHOẢOO
HHÃHOÃOO
HHĂHOĂOO
HHẮHOẮOO
HHẰHOẰOO
HHẲHOẲOO
HHẴHOẴOO
HHẶHOẶOO
HHÂHOÂOO
HHẤHOẤOO
HHẦHOẦOO
HHẨHOẨOO
HHẪHOẪOO
HHẬHOẬOO
HHĐHOĐOO
HHÉHOÉOO
HHÈHOÈOO
HHẺHOÈOO
HHẼHOẼOO
HHẸHOẸOO
HHÊHOÊOO
HHẾHOẾOO
HHỀHOỀOO
HHỂHOỂOO
HHỄHOỄOO
HHỆHOỆOO
HIHÍHOÍOO
HHÌHOÌOO
HHỈHOỈOO
HHĨHOĨOO
HHỊHOỊOO
HHÓHOÓOO
HHÒHOÒOO
HHỎHOỎOO
HHÕHOÕOO
HHỌHOỌOO
HHÔHIÔOO
HHỐHOỐOO
HHỒHOỒOO
HHỔHOỔOO
HHỖHOỖOO
HHỘHOỘOO
HHƠHOƠOO
HHỚHOỚOO
HHỜHOỜOO
HHỞHOỞOO
HHỠHOỠOO
HHỢHOỢOO
HHÚHOÚOO
HHÙHOÙOO
HHỦHOỦOO
HHŨHOŨOO
HHỤHOỤOO
HHƯHOƯOO
HHỨHOỨOO
HHỪHOỪOO
HHỬHOỬOO
HHỮHOỮOO
HHỰHOỰOO
HHÝHOÝOO
HHỲHOỲOO
HHỶHOỶOO
HHỸHOỸOO
HHỴHOỴOO
hháhoáoo
hhàhoàoo
hhảhoảoo
hhãhoãoo
hhăhoăoo
hhắhoắoo
hhằhoằoo
hhẳhoẳoo
hhẵhoẵoo
hhặhoặoo
hhâhoâoo
hhấhoấoo
hhầhoầoo
hhẩhoẩoo
hhẫhoẫoo
hhậhoậoo
hhđhođoo
hhéhoéoo
hhèhoèoo
hhẻhoèoo
hhẽhoẽoo
hhẹhoẹoo
hhêhoêoo
hhếhoếoo
hhềhoềoo
hhểhoểoo
hhễhoễoo
hhệhoệoo
hhíhoíoo
hhìhoìoo
hhỉhoỉoo
hhĩhoĩoo
hhịhoịoo
hhóhoóoo
hhòhoòoo
hhỏhoỏoo
hhõhoõoo
hhọhoọoo
hhôhiôoo
hhốhoốoo
hhồhoồoo
hhổhoổoo
hhỗhoỗoo
hhộhoộoo
hhơhoơoo
hhớhoớoo
hhờhoờoo
hhởhoởoo
hhỡhoỡoo
hhợhoợoo
hhúhoúoo
hhùhoùoo
hhủhoủoo
hhũhoũoo
hhụhoụoo
hhưhoưoo
hhứhoứoo
hhừhoừoo
hhửhoửoo
hhữhoữoo
hhựhoựoo
hhýhoýoo
hhỳhoỳoo
hhỷhoỷoo
hhỹhoỹoo
hhỵhoỵoo",
"Áá Àà Ảả Ãã Ạạ Ăă Ắắ Ằằ Ẳẳ Ẵẵ Ặặ Ââ Ấấ Ầầ Ẩẩ Ẫẫ Ậậ Đđ Éé Èè Ẻẻ Ẽẽ Ẹẹ Êê Ếế Ềề Ểể Ễễ Ệệ Íí Ìì Ỉỉ Ĩĩ Ịị Óó Òò Ỏỏ Õõ Ọọ Ôô Ốố Ồồ Ổổ Ỗỗ Ộộ Ơơ Ớớ Ờờ Ởở Ỡỡ Ợợ Úú Ùù Ủủ Ũũ Ụụ Ưư Ứứ Ừừ Ửử Ữữ Ựự Ýý Ỳỳ Ỷỷ Ỹỹ Ỵỵ",
"TYPOGRAPHY SÁNG TẠO TỪ CON CHỮ CHÚNG TA DÙNG TYPOGRAPHY HÀNG NGÀY MÀ KHÔNG BIẾT RẰNG ĐÓ LÀ TYPOGRAPHY. TƯƠNG TỰ NHƯ NHỮNG THIẾT KẾ NỘI THẤT HAY THIẾT KẾ THỜI TRANG, TYPOGRAPHY CŨNG LÀ SẢN PHẨM CỦA SỰ SÁNG TẠO, HÒA TRỘN CẢ HAI MẶT KHOA HỌC VÀ NGHỆ THUẬT, VỚI NGUYÊN LIỆU LÀ CÁC CHỮ CÁI.

NGHỆ THUẬT SẮP ĐẶT CHỮ

glyphs = (
{
glyphname = A;
kernLeft = A;
kernRight = A;
lastChange = "2024-03-07 20:05:52 +0000";
layers = (
{
anchors = (
{
name = bottom;
pos = (227,0);
},
{
name = ogonek;
pos = (448,0);
},
{
name = top;
pos = (312,711);
}
);
layerId = m01;
shapes = (
{
closed = 1;
nodes = (
(76,59,o),
(78,57,o),
(82,57,cs),
(100,57,o),
(156,102,o),
(161,125,cs),
(197,289,o),
(241,452,o),
(276,615,cs),
(283,649,o),
(174,547,o),
(168,521,cs),
(135,369,o),
(110,217,o),
(77,65,cs)
);
},
{
closed = 1;
nodes = (
(30,150,o),
(-10,38,o),
(-10,7,cs),
(-10,3,o),
(-9,0,o),
(-6,0,cs),
(-5,0,o),
(-3,1,o),
(-1,3,cs),
(17,19,o),
(48,29,o),
(77,29,cs),
(104,29,o),
(130,20,o),
(144,1,cs),
(157,-17,o),
(210,122,o),
(210,160,cs),
(210,164,o),
(209,167,o),
(208,169,cs),
(193,189,o),
(166,199,o),
(136,199,cs),
(105,199,o),
(72,188,o),
(49,167,cs)
);
},
{
closed = 1;
nodes = (
(81,407,o),
(24,237,o),
(34,237,cs),
(121,237,l),
(124,236,o),
(131,243,o),
(135,243,cs),
(305,242,l),
(312,244,o),
(321,238,o),
(327,238,cs),
(328,238,o),
(329,238,o),
(330,238,cs),
(437,238,ls),
(449,238,o),
(509,408,o),
(497,408,cs),
(390,408,l),
(379,405,o),
(370,394,o),
(359,392,c),
(198,389,l),
(191,392,o),
(189,404,o),
(181,407,c),
(94,407,ls)
);
},
{
closed = 1;
nodes = (
(386,719,o),
(244,615,o),
(276,615,cs),
(284,615,o),
(286,554,o),
(286,470,cs),
(286,373,o),
(283,246,o),
(283,149,cs),
(284,62,ls),
(286,18,o),
(299,0,o),
(325,0,cs),
(333,0,o),
(342,1,o),
(351,4,cs),
(381,13,o),
(475,110,o),
(475,129,cs),
(475,132,o),
(472,134,o),
(467,132,cs),
(460,130,o),
(453,129,o),
(448,129,cs),
(427,129,o),
(415,143,o),
(414,184,cs),
(413,214,ls),
(413,320,o),
(427,503,o),
(427,617,cs),
(427,678,o),
(423,719,o),
(412,719,cs)
);
},
{
closed = 1;
nodes = (
(235,598,o),
(231,563,o),
(231,537,cs),
(231,522,o),
(233,511,o),
(236,511,cs),
(237,511,l),
(325,580,ls),
(331,585,o),
(335,622,o),
(335,647,cs),
(335,662,o),
(333,672,o),
(330,672,cs),
(329,672,l),
(241,603,ls)
);
}
);
width = 534;
}
);
unicode = 65;
},
{
glyphname = "Alpha-latin";
kernLeft = "Alpha-latin";
kernRight = "Alpha-latin";
lastChange = "2024-03-07 20:05:52 +0000";
layers = (
{
anchors = (
{
name = bottom;
pos = (177,10);
},
{
name = center;
pos = (248,350);
},
{
name = ogonek;
pos = (422,10);
},
{
name = top;
pos = (337,700);
},
{
name = topleft;
pos = (50,700);
},
{
name = topright;
pos = (356,700);
}
);
layerId = m01;
shapes = (
{
closed = 1;
nodes = (
(218,80,o),
(260,32,o),
(264,35,cs),
(321,75,o),
(442,169,o),
(435,321,cs),
(434,328,o),
(389,373,o),
(389,365,cs),
(396,217,o),
(277,123,o),
(222,83,cs)
);
},
{
closed = 1;
nodes = (
(293,563,o),
(333,655,o),
(333,689,cs),
(333,696,o),
(331,701,o),
(326,701,cs),
(322,701,o),
(314,697,o),
(304,687,cs),
(236,621,o),
(30,338,o),
(30,150,cs),
(30,68,o),
(70,4,o),
(177,-15,cs),
(210,-21,o),
(334,87,o),
(334,119,cs),
(334,123,o),
(332,126,o),
(327,127,cs),
(202,150,o),
(165,216,o),
(165,288,cs),
(165,400,o),
(254,525,o),
(254,525,c)
);
},
{
closed = 1;
nodes = (
(578,671,o),
(586,687,o),
(586,695,cs),
(586,700,o),
(583,702,o),
(578,702,cs),
(561,702,o),
(518,673,o),
(478,625,cs),
(369,492,o),
(374,444,o),
(367,365,cs),
(358,277,o),
(354,191,o),
(347,106,cs),
(345,93,o),
(344,79,o),
(344,67,cs),
(344,27,o),
(355,-3,o),
(405,-3,cs),
(413,-3,o),
(422,-2,o),
(433,0,cs),
(463,5,o),
(590,138,o),
(555,132,cs),
(542,130,o),
(531,129,o),
(522,129,cs),
(493,129,o),
(485,140,o),
(485,161,cs),
(485,175,o),
(489,195,o),
(491,218,cs),
(499,298,o),
(510,376,o),
(517,453,cs),
(524,524,o),
(533,616,o),
(558,647,cs)
);
},
{
closed = 1;
nodes = (
(558,563,o),
(664,672,o),
(664,700,cs),
(664,704,o),
(662,706,o),
(657,706,cs),
(656,706,ls),
(624,703,o),
(591,702,o),
(559,702,cs),
(486,702,o),
(418,707,o),
(373,707,cs),
(351,707,o),
(334,706,o),
(325,703,cs),
(294,691,o),
(226,587,o),
(226,556,cs),
(226,551,o),
(228,548,o),
(233,548,cs),
(234,548,o),
(236,548,o),
(239,549,cs),
(245,552,o),
(393,550,o),
(526,560,cs)
);
}
);
width = 634;
}
);
unicode = 11373;
},
{
glyphname = AE;
kernLeft = A;
kernRight = E;
lastChange = "2024-03-07 20:05:52 +0000";
layers = (
{
background = {
anchors = (
{
name = bottom;
pos = (454,1);
},
{
name = ogonek;
pos = (653,0);
},
{
name = top;
pos = (584,700);
},
{
name = topleft;
pos = (309,700);
}
);
};
layerId = m01;
shapes = (
{
closed = 1;
nodes = (
(330,136,o),
(293,54,o),
(293,19,cs),
(293,10,o),
(296,4,o),
(302,4,cs),
(305,4,o),
(310,6,o),
(316,10,cs),
(337,24,o),
(357,34,o),
(380,34,cs),
(394,34,o),
(410,30,o),
(427,21,cs),
(455,7,o),
(480,-3,o),
(508,-3,cs),
(526,-3,o),
(545,1,o),
(567,12,cs),
(599,28,o),
(693,154,o),
(671,154,cs),
(669,154,o),
(667,153,o),
(665,152,cs),
(650,145,o),
(636,142,o),
(622,142,cs),
(595,142,o),
(567,154,o),
(537,169,cs),
(509,183,o),
(483,191,o),
(456,191,cs),
(426,191,o),
(395,181,o),
(362,158,cs)
);
},
{
closed = 1;
nodes = (
(368,438,o),
(322,314,o),
(322,278,cs),
(322,272,o),
(323,268,o),
(326,268,cs),
(619,269,ls),
(636,269,o),
(683,392,o),
(683,429,cs),
(683,435,o),
(682,439,o),
(679,439,cs),
(386,438,ls)
);
},
{
closed = 1;
nodes = (
(691,548,o),
(725,662,o),
(725,701,cs),
(725,709,o),
(723,714,o),
(720,714,c),
(720,714,o),
(719,713,o),
(719,713,c),
(700,705,o),
(674,702,o),
(644,702,cs),
(594,702,o),
(534,710,o),
(485,710,cs),
(453,710,o),
(426,707,o),
(408,697,cs),
(390,686,o),
(357,574,o),
(357,536,cs),
(357,529,o),
(358,524,o),
(361,524,cs),
(362,524,o),
(363,524,o),
(364,525,c),
(379,534,o),
(403,536,o),
(432,536,cs),
(480,536,o),
(540,529,o),
(592,529,cs),
(624,529,o),
(653,532,o),
(673,541,cs)
);
},
{
closed = 1;
nodes = (
(75,60,o),
(77,57,o),
(82,57,cs),
(99,57,o),
(153,99,o),
(161,123,cs),
(216,294,o),
(278,463,o),
(334,634,c),
(335,639,o),
(334,642,o),
(331,642,cs),
(314,642,o),
(236,573,o),
(226,542,cs),
(175,384,o),
(129,225,o),
(77,67,cs)
);
},
{
closed = 1;
nodes = (
(30,150,o),
(-10,38,o),
(-10,7,cs),
(-10,3,o),
(-9,0,o),
(-6,0,cs),
(-5,0,o),
(-3,1,o),
(-1,3,cs),
(17,19,o),
(48,29,o),
(77,29,cs),
(104,29,o),
(130,20,o),
(144,1,cs),
(157,-17,o),
(210,122,o),
(210,160,cs),
(210,164,o),
(209,167,o),
(208,169,cs),
(193,189,o),
(166,199,o),
(136,199,cs),
(105,199,o),
(72,188,o),
(49,167,cs)
);
},
{
closed = 1;
nodes = (
(92,408,o),
(35,238,o),
(45,238,cs),
(132,238,l),
(133,236,o),
(133,247,o),
(136,243,c),
(325,242,ls),
(336,242,o),
(389,392,o),
(379,392,cs),
(198,389,l),
(195,393,o),
(197,402,o),
(193,407,c),
(193,408,o),
(193,408,o),
(192,408,cs),
(105,408,ls)
);
},
{
closed = 1;
nodes = (
(299,624,o),
(295,588,o),
(295,562,cs),
(295,548,o),
(297,535,o),
(300,535,c),
(300,535,o),
(300,536,o),
(301,536,c),
(407,604,ls),
(413,608,o),
(417,635,o),
(417,659,cs),
(417,681,o),
(414,700,o),
(407,696,cs),
(305,628,ls)
);
},
{
closed = 1;
nodes = (
(428,640,o),
(425,642,o),
(421,642,cs),
(402,642,o),
(345,597,o),
(343,575,cs),
(324,390,o),
(307,200,o),
(289,29,cs),
(287,7,o),
(291,-2,o),
(298,-2,cs),
(318,-2,o),
(367,75,o),
(373,137,cs),
(391,314,o),
(410,472,o),
(427,635,cs)
);
}
);
width = 755;
}
);
unicode = 198;
},
{
glyphname = B;
kernLeft = B;
kernRight = B;
lastChange = "2024-03-07 20:05:52 +0000";
layers = (
{
anchors = (
{
name = bottom;
pos = (245,0);
},
{
name = center;
pos = (245,350);
},
{
name = left;
pos = (128,596);
},
{
name = top;
pos = (245,700);
}
);
layerId = m01;
shapes = (
{
closed = 1;
nodes = (
(290,-3,o),
(413,143,o),
(390,147,cs),
(258,172,o),
(173,184,o),
(118,184,cs),
(81,184,o),
(57,179,o),
(41,168,cs),
(22,155,o),
(-20,39,o),
(-20,7,cs),
(-20,2,o),
(-19,-1,o),
(-16,-1,cs),
(-15,-1,o),
(-14,-1,o),
(-13,0,cs),
(-9,3,o),
(26,18,o),
(103,18,cs),
(145,18,o),
(200,14,o),
(270,1,cs)
);
},
{
closed = 1;
nodes = (
(165,602,o),
(161,606,o),
(154,606,cs),
(133,606,o),
(79,560,o),
(73,529,cs),
(55,425,o),
(28,118,o),
(26,106,c),
(26,98,o),
(29,94,o),
(35,94,cs),
(56,94,o),
(111,143,o),
(114,172,c),
(114,172,o),
(147,501,o),
(163,591,cs)
);
},
{
closed = 1;
nodes = (
(233,313,o),
(224,295,o),
(224,283,cs),
(224,275,o),
(229,270,o),
(238,270,cs),
(254,270,o),
(284,288,o),
(315,326,cs),
(396,426,o),
(428,504,o),
(428,563,cs),
(428,671,o),
(320,716,o),
(216,716,cs),
(185,716,o),
(155,712,o),
(128,705,cs),
(105,699,o),
(13,543,o),
(42,551,cs),
(79,560,o),
(113,565,o),
(144,565,cs),
(241,565,o),
(302,520,o),
(302,453,cs),
(302,419,o),
(287,380,o),
(253,338,cs)
);
},
{
closed = 1;
nodes = (
(109,484,o),
(60,356,o),
(60,319,cs),
(60,314,o),
(61,310,o),
(63,309,cs),
(284,240,o),
(338,203,o),
(338,173,cs),
(338,159,o),
(326,146,o),
(314,132,cs),
(285,98,o),
(273,70,o),
(273,54,cs),
(273,44,o),
(278,38,o),
(287,38,cs),
(302,38,o),
(328,54,o),
(360,92,cs),
(433,180,o),
(464,242,o),
(464,289,cs),
(464,395,o),
(307,421,o),
(125,479,cs)
);
}
);
width = 493;
}
);
unicode = 66;
},
{
glyphname = Bhook;
kernLeft = B;
kernRight = B;
lastChange = "2024-03-07 20:05:52 +0000";
layers = (
{
anchors = (
{
name = bottom;
pos = (391,0);
},
{
name = center;
pos = (391,350);
},
{
name = left;
pos = (274,596);
},
{
name = top;
pos = (391,700);
}
);
layerId = m01;
shapes = (
{
closed = 1;
nodes = (
(436,-3,o),
(559,143,o),
(536,147,cs),
(404,172,o),
(319,184,o),
(264,184,cs),
(227,184,o),
(203,179,o),
(187,168,cs),
(168,155,o),
(126,39,o),
(126,7,cs),
(126,2,o),
(127,-1,o),
(130,-1,cs),
(131,-1,o),
(132,-1,o),
(133,0,cs),
(137,3,o),
(172,18,o),
(249,18,cs),
(291,18,o),
(346,14,o),
(416,1,cs)
);
},
{
closed = 1;
nodes = (
(311,602,o),
(307,606,o),
(300,606,cs),
(279,606,o),
(225,560,o),
(219,529,cs),
(201,425,o),
(174,118,o),
(172,106,c),
(172,98,o),
(175,94,o),
(181,94,cs),
(202,94,o),
(257,143,o),
(260,172,c),
(260,172,o),
(293,501,o),
(309,591,cs)
);
},
{
closed = 1;
nodes = (
(379,313,o),
(370,295,o),
(370,283,cs),
(370,275,o),
(375,270,o),
(384,270,cs),
(400,270,o),
(430,288,o),
(461,326,cs),
(549,434,o),
(582,516,o),
(582,577,cs),
(582,672,o),
(500,714,o),
(413,714,cs),
(380,714,o),
(346,708,o),
(316,697,cs),
(291,687,o),
(197,538,o),
(228,549,cs),
(270,565,o),
(307,572,o),
(338,572,cs),
(413,572,o),
(456,531,o),
(456,472,cs),
(456,433,o),
(438,386,o),
(399,338,cs)
);
},
{
closed = 1;
nodes = (
(255,484,o),
(206,356,o),
(206,319,cs),
(206,314,o),
(207,310,o),
(209,309,cs),
(430,240,o),
(484,203,o),
(484,173,cs),
(484,159,o),
(472,146,o),
(460,132,cs),
(431,98,o),
(419,70,o),
(419,54,cs),
(419,44,o),
(424,38,o),
(433,38,cs),
(448,38,o),
(474,54,o),
(506,92,cs),
(579,180,o),
(610,242,o),
(610,289,cs),
(610,395,o),
(453,421,o),
(271,479,cs)
);
},
{
closed = 1;
nodes = (
(239,523,o),
(338,669,o),
(325,684,cs),
(314,697,o),
(290,710,o),
(257,710,cs),
(194,710,o),
(99,667,o),
(-11,506,cs),
(-17,498,o),
(-19,493,o),
(-19,490,cs),
(-19,487,o),
(-18,486,o),
(-15,486,cs),
(0,486,o),
(52,523,o),
(75,558,cs),
(76,560,o),
(104,584,o),
(142,584,cs),
(167,584,o),
(196,573,o),
(225,540,cs)
);
},
{
closed = 1;
nodes = (
(81,596,o),
(-16,512,o),
(-19,488,cs),
(-20,483,o),
(-20,477,o),
(-20,472,cs),
(-20,414,o),
(19,378,o),
(67,378,cs),
(85,378,o),
(105,383,o),
(124,396,cs),
(152,413,o),
(184,480,o),
(184,506,cs),
(184,513,o),
(182,517,o),
(177,517,cs),
(174,517,o),
(171,515,o),
(166,512,cs),
(151,503,o),
(134,497,o),
(119,497,cs),
(97,497,o),
(79,511,o),
(79,550,cs),
(79,556,o),
(81,563,o),
(81,571,cs)
);
}
);
width = 639;
}
);
unicode = 385;
},
{
glyphname = C;
kernLeft = C;
kernRight = C;
lastChange = "2024-03-07 20:05:52 +0000";
layers = (
{
anchors = (
{
name = bottom;
pos = (178,0);
},
{
name = top;
pos = (350,711);
}
);
guides = (
{
pos = (683,541);
}
);
layerId = m01;
shapes = (
{
closed = 1;
nodes = (
(361,616,o),
(364,622,o),
(364,625,cs),
(364,627,o),
(363,628,o),
(360,628,cs),
(341,628,o),
(261,582,o),
(224,543,cs),
(67,380,o),
(10,251,o),
(10,159,cs),
(10,43,o),
(99,-16,o),
(190,-16,cs),
(238,-16,o),
(287,1,o),
(323,35,cs),
(353,63,o),
(419,218,o),
(402,218,cs),
(401,218,o),
(398,216,o),
(395,213,cs),
(357,177,o),
(308,159,o),
(263,159,cs),
(202,159,o),
(150,193,o),
(150,266,cs),
(150,339,o),
(202,452,o),
(352,607,cs)
);
},
{
closed = 1;
nodes = (
(398,577,o),
(435,683,o),
(435,714,cs),
(435,719,o),
(434,722,o),
(432,722,cs),
(430,722,o),
(428,720,o),
(425,717,cs),
(413,705,o),
(375,696,o),
(336,696,cs),
(299,696,o),
(260,704,o),
(241,722,cs),
(227,735,o),
(175,604,o),
(175,564,cs),
(175,559,o),
(175,556,o),
(177,554,cs),
(198,535,o),
(237,526,o),
(277,526,cs),
(318,526,o),
(359,536,o),
(377,555,cs)
);
}
);
width = 455;
}
);
unicode = 67;
},
{
glyphname = Chook;
kernLeft = C;
kernRight = C;
lastChange = "2024-03-07 20:05:52 +0000";
layers = (
{
anchors = (
{
name = bottom;
pos = (178,0);
},
{
name = top;
pos = (350,711);
}
);
layerId = m01;
shapes = (
{
closed = 1;
nodes = (
(361,616,o),
(364,622,o),
(364,625,cs),
(364,627,o),
(363,628,o),
(360,628,cs),
(341,628,o),
(261,582,o),
(224,543,cs),
(67,380,o),
(10,251,o),
(10,159,cs),
(10,43,o),
(99,-16,o),
(190,-16,cs),
(238,-16,o),
(287,1,o),
(323,35,cs),
(353,63,o),
(419,218,o),
(402,218,cs),
(401,218,o),
(398,216,o),
(395,213,cs),
(357,177,o),
(308,159,o),
(263,159,cs),
(202,159,o),
(150,193,o),
(150,266,cs),
(150,339,o),
(202,452,o),
(352,607,cs)
);
},
{
closed = 1;
nodes = (
(288,540,o),
(391,640,o),
(371,643,cs),
(331,651,o),
(318,669,o),
(318,690,cs),
(318,723,o),
(352,762,o),
(360,771,cs),
(378,789,o),
(386,802,o),
(386,810,cs),
(386,815,o),
(382,818,o),
(376,818,cs),
(362,818,o),
(336,805,o),
(308,777,cs),
(252,721,o),
(214,655,o),
(214,606,cs),
(214,574,o),
(231,550,o),
(271,543,cs)
);
},
{
closed = 1;
nodes = (
(352,823,o),
(291,765,o),
(291,745,cs),
(291,741,o),
(294,739,o),
(300,739,cs),
(305,739,l),
(316,741,o),
(327,742,o),
(336,742,cs),
(373,742,o),
(394,727,o),
(394,702,cs),
(394,697,o),
(391,691,o),
(391,685,cs),
(391,682,o),
(393,681,o),
(396,681,cs),
(415,681,o),
(485,735,o),
(490,756,cs),
(492,763,o),
(493,770,o),
(493,777,cs),
(493,810,o),
(468,832,o),
(420,832,cs),
(409,832,o),
(396,831,o),
(383,829,cs)
);
}
);
width = 513;
}
);
unicode = 391;
},
{
glyphname = D;
kernLeft = D;
kernRight = D;
lastChange = "2024-03-07 20:05:52 +0000";
layers = (
{
anchors = (
{
name = bottom;
pos = (178,0);
},
{
name = center;
pos = (113,330);
},
{
name = top;
pos = (238,709);
}
);
layerId = m01;
shapes = (
{
closed = 1;
nodes = (
(97,722,o),
(47,592,o),
(47,555,cs),
(47,549,o),
(48,546,o),
(51,545,cs),
(291,478,o),
(363,351,o),
(363,243,cs),
(363,194,o),
(348,149,o),
(328,115,cs),
(317,98,o),
(313,85,o),
(313,76,cs),
(313,65,o),
(319,60,o),
(327,60,cs),
(341,60,o),
(365,76,o),
(386,111,cs),
(434,189,o),
(458,269,o),
(458,344,cs),
(458,509,o),
(343,653,o),
(113,717,cs)
);
},
{
closed = 1;
nodes = (
(47,72,o),
(68,58,o),
(89,58,cs),
(108,58,o),
(127,70,o),
(128,95,cs),
(136,258,o),
(156,474,o),
(156,579,cs),
(156,612,o),
(154,634,o),
(150,641,c),
(141,651,o),
(131,656,o),
(120,656,cs),
(98,656,o),
(77,638,o),
(77,616,cs),
(77,608,o),
(80,600,o),
(86,591,c),
(87,591,o),
(61,358,o),
(48,99,cs)
);
},
{
closed = 1;
nodes = (
(299,-3,o),
(391,107,o),
(391,141,cs),
(391,146,o),
(389,150,o),
(383,150,c),
(236,166,o),
(164,184,o),
(119,184,cs),
(96,184,o),
(80,179,o),
(65,167,cs),
(46,152,o),
(5,38,o),
(5,7,cs),
(5,2,o),
(6,-1,o),
(8,-1,cs),
(9,-1,o),
(11,-1,o),
(13,1,cs),
(21,7,o),
(36,13,o),
(85,13,cs),
(123,13,o),
(181,9,o),
(271,0,cs)
);
}
);
width = 502;
}
);
unicode = 68;
},
{
glyphname = Dhook;
kernLeft = D;
kernRight = D;
lastChange = "2024-03-07 20:05:52 +0000";
layers = (
{
anchors = (
{
name = bottom;
pos = (397,0);
},
{
name = center;
pos = (272,330);
},
{
name = top;
pos = (397,700);
}
);
layerId = m01;
shapes = (
{
closed = 1;
nodes = (
(476,98,o),
(472,85,o),
(472,76,cs),
(472,65,o),
(478,60,o),
(486,60,cs),
(500,60,o),
(524,76,o),
(545,111,cs),
(599,199,o),
(633,309,o),
(633,410,cs),
(633,568,o),
(551,702,o),
(334,694,cs),
(317,694,o),
(262,558,o),
(262,525,cs),
(262,520,o),
(263,518,o),
(266,518,cs),
(487,525,o),
(549,427,o),
(549,321,cs),
(549,243,o),
(515,161,o),
(487,115,cs)
);
},
{
closed = 1;
nodes = (
(206,72,o),
(227,58,o),
(248,58,cs),
(267,58,o),
(286,70,o),
(287,95,cs),
(295,258,o),
(315,474,o),
(315,579,cs),
(315,612,o),
(313,634,o),
(309,641,c),
(300,651,o),
(290,656,o),
(279,656,cs),
(257,656,o),
(236,638,o),
(236,616,cs),
(236,608,o),
(239,600,o),
(245,591,c),
(246,591,o),
(220,358,o),
(207,99,cs)
);
},
{
closed = 1;
nodes = (
(458,-3,o),
(550,107,o),
(550,141,cs),
(550,146,o),
(548,150,o),
(542,150,c),
(395,166,o),
(323,184,o),
(278,184,cs),
(255,184,o),
(239,179,o),
(224,167,cs),
(205,152,o),
(164,38,o),
(164,7,cs),
(164,2,o),
(165,-1,o),
(167,-1,cs),
(168,-1,o),
(170,-1,o),
(172,1,cs),
(180,7,o),
(195,13,o),
(244,13,cs),
(282,13,o),
(340,9,o),
(430,0,cs)
);
},
{
closed = 1;
nodes = (
(257,528,o),
(356,674,o),
(341,687,cs),
(332,696,o),
(310,707,o),
(278,707,cs),
(218,707,o),
(125,668,o),
(14,506,cs),
(8,498,o),
(6,493,o),
(6,490,cs),
(6,487,o),
(7,486,o),
(10,486,cs),
(25,486,o),
(77,523,o),
(100,558,cs),
(101,560,o),
(124,578,o),
(159,578,cs),
(182,578,o),
(211,570,o),
(243,541,cs)
);
},
{
closed = 1;
nodes = (
(106,596,o),
(9,512,o),
(6,488,cs),
(5,483,o),
(5,477,o),
(5,472,cs),
(5,414,o),
(44,378,o),
(92,378,cs),
(110,378,o),
(130,383,o),
(149,396,cs),
(177,413,o),
(209,480,o),
(209,506,cs),
(209,513,o),
(207,517,o),
(202,517,cs),
(199,517,o),
(196,515,o),
(191,512,cs),
(176,503,o),
(159,497,o),
(144,497,cs),
(122,497,o),
(104,511,o),
(104,550,cs),
(104,556,o),
(106,563,o),
(106,571,cs)
);
}
);
width = 677;
}
);
unicode = 394;
},
{
glyphname = E;
kernLeft = E;
kernRight = E;
lastChange = "2024-03-07 20:05:52 +0000";
layers = (
{
anchors = (
{
name = bottom;
pos = (198,2);
},
{
name = ogonek;
pos = (383,0);
},
{
name = top;
pos = (314,709);
},
{
name = topleft;
pos = (39,700);
}
);
layerId = m01;
shapes = (
{
closed = 1;
nodes = (
(195,640,o),
(192,642,o),
(188,642,cs),
(169,642,o),
(112,597,o),
(110,575,cs),
(91,395,o),
(59,213,o),
(40,33,cs),
(39,21,o),
(44,18,o),
(50,18,cs),
(53,18,o),
(57,19,o),
(59,20,cs),
(88,32,o),
(109,44,o),
(133,44,cs),
(147,44,o),
(161,40,o),
(178,32,cs),
(207,17,o),
(232,6,o),
(260,6,cs),
(278,6,o),
(296,10,o),
(317,21,cs),
(349,37,o),
(443,163,o),
(421,163,cs),
(419,163,o),
(417,162,o),
(415,161,cs),
(400,154,o),
(385,151,o),
(370,151,cs),
(343,151,o),
(316,161,o),
(286,176,cs),
(269,184,o),
(252,188,o),
(235,188,cs),
(204,188,o),
(171,177,o),
(137,162,c),
(156,149,l),
(173,311,o),
(177,473,o),
(194,635,cs)
);
},
{
closed = 1;
nodes = (
(88,438,o),
(42,314,o),
(42,278,cs),
(42,272,o),
(43,268,o),
(46,268,cs),
(369,269,ls),
(386,269,o),
(433,392,o),
(433,429,cs),
(433,435,o),
(432,439,o),
(429,439,cs),
(106,438,ls)
);
},
{
closed = 1;
nodes = (
(452,545,o),
(485,657,o),
(485,693,cs),
(485,700,o),
(484,705,o),
(481,705,cs),
(480,705,o),
(479,705,o),
(477,703,cs),
(467,696,o),
(447,693,o),
(421,693,cs),
(367,693,o),
(288,705,o),
(221,705,cs),
(176,705,o),
(137,699,o),
(115,681,cs),
(97,666,o),
(66,556,o),
(66,520,cs),
(66,513,o),
(67,509,o),
(70,509,cs),
(71,509,o),
(72,510,o),
(73,511,cs),
(92,526,o),
(125,531,o),
(165,531,cs),
(228,531,o),
(306,519,o),
(364,519,cs),
(395,519,o),
(421,522,o),
(435,533,cs)
);
}
);
width = 505;
}
);
unicode = 69;
},
{
glyphname = Eturned;
kernLeft = E;
kernRight = E;
lastChange = "2024-03-07 20:05:52 +0000";
layers = (
{
layerId = m01;
shapes = (
{
closed = 1;
nodes = (
(448,235,o),
(495,358,o),
(495,395,cs),
(495,401,o),
(494,405,o),
(491,405,cs),
(168,404,ls),
(150,404,o),
(104,280,o),
(104,244,cs),
(104,238,o),
(105,234,o),
(108,234,cs),
(431,235,ls)
);
},
{
closed = 1;
nodes = (
(86,633,o),
(54,522,o),
(54,484,cs),
(54,477,o),
(55,472,o),
(58,472,cs),
(59,472,o),
(60,473,o),
(61,473,c),
(72,480,o),
(92,482,o),
(118,482,cs),
(170,482,o),
(244,473,o),
(308,473,cs),
(351,473,o),
(389,477,o),
(411,493,cs),
(429,505,o),
(461,615,o),
(461,653,cs),
(461,661,o),
(460,665,o),
(457,665,cs),
(456,665,o),
(455,664,o),
(453,663,cs),
(435,651,o),
(402,647,o),
(363,647,cs),
(303,647,o),
(229,656,o),
(173,656,cs),
(143,656,o),
(118,654,o),
(105,645,cs)
);
},
{
closed = 1;
nodes = (
(320,45,o),
(323,40,o),
(330,40,cs),
(356,40,o),
(432,128,o),
(437,173,cs),
(454,335,o),
(458,497,o),
(475,659,cs),
(476,664,o),
(473,666,o),
(469,666,cs),
(450,666,o),
(393,621,o),
(391,599,cs),
(372,419,o),
(340,237,o),
(321,57,cs)
);
},
{
closed = 1;
nodes = (
(339,4,o),
(433,130,o),
(411,130,cs),
(409,130,o),
(407,129,o),
(405,128,cs),
(390,121,o),
(375,118,o),
(360,118,cs),
(333,118,o),
(305,128,o),
(276,143,cs),
(254,154,o),
(234,162,o),
(212,162,cs),
(186,162,o),
(156,151,o),
(115,123,cs),
(74,94,o),
(30,19,o),
(30,-7,cs),
(30,-13,o),
(32,-17,o),
(37,-17,cs),
(42,-17,o),
(50,-14,o),
(61,-7,cs),
(74,3,o),
(94,12,o),
(118,12,cs),
(133,12,o),
(150,8,o),
(168,-1,cs),
(198,-16,o),
(223,-27,o),
(250,-27,cs),
(267,-27,o),
(286,-23,o),
(307,-12,cs)
);
}
);
width = 530;
}
);
unicode = 398;
},
{
glyphname = Schwa;
lastChange = "2024-03-07 19:55:38 +0000";
layers = (
{
anchors = (
{
name = bottom;
pos = (149,0);
},
{
name = center;
pos = (220,350);
},
{
name = ogonek;
pos = (394,10);
},
{
name = top;
pos = (309,700);
},
{
name = topleft;
pos = (22,700);
},
{
name = topright;
pos = (328,700);
}
);
layerId = m01;
shapes = (
{
closed = 1;
nodes = (
(166,75,o),
(135,30,o),
(135,8,cs),
(135,-1,o),
(140,-6,o),
(149,-6,cs),
(162,-6,o),
(182,2,o),
(211,23,cs),
(314,96,o),
(436,232,o),
(436,403,cs),
(436,498,o),
(398,603,o),
(298,713,cs),
(284,729,o),
(187,544,o),
(202,527,cs),
(300,418,o),
(333,335,o),
(333,273,cs),
(333,161,o),
(226,118,o),
(219,113,cs)
);
},
{
closed = 1;
nodes = (
(152,368,o),
(150,371,o),
(144,371,cs),
(122,371,o),
(40,310,o),
(31,282,cs),
(15,234,o),
(3,187,o),
(3,144,cs),
(3,72,o),
(38,14,o),
(149,-6,cs),
(182,-12,o),
(306,96,o),
(306,128,cs),
(306,132,o),
(304,135,o),
(299,136,cs),
(178,158,o),
(133,204,o),
(133,274,cs),
(133,300,o),
(139,328,o),
(149,360,cs)
);
},
{
closed = 1;
nodes = (
(120,369,o),
(86,327,o),
(86,305,cs),
(86,296,o),
(91,292,o),
(102,292,cs),
(103,292,o),
(104,292,o),
(104,292,c),
(139,294,o),
(355,294,o),
(363,294,cs),
(391,295,o),
(426,337,o),
(426,360,cs),
(426,368,o),
(421,374,o),
(411,374,cs),
(410,374,o),
(410,374,o),
(409,374,c),
(409,374,o),
(182,373,o),
(148,370,cs)
);
}
);
width = 446;
}
);
unicode = 399;
},
{
glyphname = F;
kernLeft = F;
kernRight = F;
lastChange = "2024-03-07 20:05:52 +0000";
layers = (
{
anchors = (
{
name = left;
pos = (106,637);
}
);
layerId = m01;
shapes = (
{
closed = 1;
nodes = (
(180,648,o),
(178,650,o),
(175,650,cs),
(157,650,o),
(100,597,o),
(98,574,cs),
(48,68,ls),
(48,62,o),
(49,60,o),
(53,60,cs),
(71,60,o),
(128,114,o),
(130,136,cs),
(180,642,ls)
);
},
{
closed = 1;
nodes = (
(434,555,o),
(463,660,o),
(463,696,cs),
(463,704,o),
(462,708,o),
(459,708,cs),
(458,708,o),
(456,707,o),
(454,705,cs),
(443,695,o),
(411,692,o),
(371,692,cs),
(314,692,o),
(241,698,o),
(186,698,cs),
(153,698,o),
(127,696,o),
(114,690,cs),
(96,680,o),
(55,563,o),
(55,529,cs),
(55,523,o),
(56,520,o),
(59,520,cs),
(60,520,o),
(61,520,o),
(62,520,c),
(71,525,o),
(90,527,o),
(114,527,cs),
(169,527,o),
(252,518,o),
(317,518,cs),
(362,518,o),
(399,522,o),
(414,537,cs)
);
},
{
closed = 1;
nodes = (
(363,282,o),
(396,394,o),
(396,432,cs),
(396,440,o),
(395,445,o),
(392,445,cs),
(391,445,o),
(390,445,o),
(389,444,c),
(379,439,o),
(356,437,o),
(327,437,cs),
(280,437,o),
(218,441,o),
(168,441,cs),
(130,441,o),
(100,439,o),
(86,431,cs),
(68,420,o),
(35,308,o),
(35,270,cs),
(35,263,o),
(36,258,o),
(39,258,cs),
(40,258,o),
(41,258,o),
(42,259,c),
(53,265,o),
(78,267,o),
(110,267,cs),
(158,267,o),
(221,263,o),
(270,263,cs),
(305,263,o),
(333,265,o),
(345,272,cs)
);
},
{
closed = 1;
nodes = (
(29,148,o),
(-10,39,o),
(-10,8,cs),
(-10,2,o),
(-9,-1,o),
(-6,-1,cs),
(-5,-1,o),
(-3,0,o),
(-1,2,cs),
(17,18,o),
(47,28,o),
(76,28,cs),
(103,28,o),
(129,19,o),
(144,0,cs),
(158,-17,o),
(210,120,o),
(210,159,cs),
(210,163,o),
(209,166,o),
(208,168,c),
(192,188,o),
(165,198,o),
(135,198,cs),
(104,198,o),
(72,187,o),
(49,166,cs)
);
}
);
width = 442;
}
);
unicode = 70;
},
{
glyphname = Fhook;
kernLeft = F;
kernRight = Fq;
lastChange = "2024-03-07 20:05:52 +0000";
layers = (
{
anchors = (
{
name = left;
pos = (331,637);
}
);
layerId = m01;
shapes = (
{
closed = 1;
nodes = (
(248,648,o),
(246,650,o),
(243,650,cs),
(225,650,o),
(168,597,o),
(166,574,cs),
(109,-1,ls),
(109,-7,o),
(111,-9,o),
(114,-9,cs),
(132,-9,o),
(189,45,o),
(191,67,cs),
(248,642,ls)
);
},
{
closed = 1;
nodes = (
(502,555,o),
(531,660,o),
(531,696,cs),
(531,704,o),
(530,708,o),
(527,708,cs),
(526,708,o),
(524,707,o),
(522,705,cs),
(511,695,o),
(479,692,o),
(439,692,cs),
(382,692,o),
(309,698,o),
(254,698,cs),
(221,698,o),
(195,696,o),
(182,690,cs),
(164,680,o),
(123,563,o),
(123,529,cs),
(123,523,o),
(124,520,o),
(127,520,cs),
(128,520,o),
(129,520,o),
(130,520,c),
(139,525,o),
(158,527,o),
(182,527,cs),
(237,527,o),
(320,518,o),
(385,518,cs),
(430,518,o),
(467,522,o),
(482,537,cs)
);
},
{
closed = 1;
nodes = (
(431,282,o),
(464,394,o),
(464,432,cs),
(464,440,o),
(463,445,o),
(460,445,cs),
(459,445,o),
(458,445,o),
(457,444,c),
(447,439,o),
(424,437,o),
(395,437,cs),
(348,437,o),
(286,441,o),
(236,441,cs),
(198,441,o),
(168,439,o),
(154,431,cs),
(136,420,o),
(103,308,o),
(103,270,cs),
(103,263,o),
(104,258,o),
(107,258,cs),
(108,258,o),
(109,258,o),
(110,259,c),
(121,265,o),
(146,267,o),
(178,267,cs),
(226,267,o),
(289,263,o),
(338,263,cs),
(373,263,o),
(401,265,o),
(413,272,cs)
);
},
{
closed = 1;
nodes = (
(177,109,o),
(92,-7,o),
(111,-8,cs),
(154,-11,o),
(168,-29,o),
(168,-50,cs),
(168,-85,o),
(130,-130,o),
(123,-137,cs),
(105,-155,o),
(97,-168,o),
(97,-176,cs),
(97,-181,o),
(101,-184,o),
(107,-184,cs),
(121,-184,o),
(147,-171,o),
(175,-143,cs),
(228,-91,o),
(262,-20,o),
(262,33,cs),
(262,74,o),
(242,105,o),
(193,108,cs)
);
},
{
closed = 1;
nodes = (
(133,-189,o),
(192,-132,o),
(192,-112,cs),
(192,-108,o),
(189,-105,o),
(183,-105,cs),
(181,-105,o),
(179,-105,o),
(177,-106,c),
(166,-108,o),
(155,-109,o),
(146,-109,cs),
(109,-109,o),
(89,-94,o),
(89,-69,cs),
(89,-63,o),
(92,-58,o),
(92,-51,cs),
(92,-49,o),
(90,-47,o),
(87,-47,cs),
(68,-47,o),
(-2,-100,o),
(-7,-122,cs),
(-9,-129,o),
(-10,-136,o),
(-10,-143,cs),
(-10,-176,o),
(14,-198,o),
(63,-198,cs),
(74,-198,o),
(87,-197,o),
(100,-195,cs)
);
}
);
width = 510;
}
);
unicode = 401;
},
{
glyphname = G;
kernLeft = G;
kernRight = G;
lastChange = "2024-03-07 20:05:52 +0000";
layers = (
{
anchors = (
{
name = bottom;
pos = (209,-30);
},
{
name = left;
pos = (160,650);
},
{
name = top;
pos = (337,710);
}
);
layerId = m01;
shapes = (
{
closed = 1;
nodes = (
(383,624,o),
(387,631,o),
(387,635,cs),
(387,639,o),
(383,641,o),
(376,641,cs),
(355,641,o),
(310,625,o),
(281,599,cs),
(85,426,o),
(5,273,o),
(5,159,cs),
(5,96,o),
(30,45,o),
(73,9,cs),
(111,-22,o),
(170,-16,o),
(184,-16,cs),
(193,-16,o),
(372,140,o),
(404,186,cs),
(411,198,o),
(415,213,o),
(415,224,cs),
(415,236,o),
(411,244,o),
(406,244,cs),
(402,244,o),
(397,241,o),
(392,234,cs),
(376,209,o),
(264,116,o),
(264,116,c),
(260,116,o),
(226,115,o),
(199,137,cs),
(160,170,o),
(138,211,o),
(138,262,cs),
(138,352,o),
(209,470,o),
(373,615,cs)
);
},
{
closed = 1;
nodes = (
(255,357,o),
(186,257,o),
(203,257,cs),
(206,257,o),
(212,260,o),
(221,267,cs),
(228,273,o),
(241,277,o),
(254,277,cs),
(283,277,o),
(316,260,o),
(313,200,cs),
(310,135,o),
(301,72,o),
(294,6,cs),
(293,-5,o),
(293,-15,o),
(293,-25,cs),
(293,-72,o),
(306,-104,o),
(335,-100,cs),
(362,-97,o),
(488,33,o),
(455,28,cs),
(439,26,o),
(433,38,o),
(433,68,cs),
(436,114,ls),
(442,178,o),
(451,244,o),
(455,308,cs),
(457,365,o),
(413,414,o),
(360,414,cs),
(339,414,o),
(318,407,o),
(297,391,cs)
);
},
{
closed = 1;
nodes = (
(392,577,o),
(429,683,o),
(429,714,cs),
(429,719,o),
(428,722,o),
(426,722,cs),
(424,722,o),
(422,720,o),
(419,717,cs),
(407,705,o),
(369,696,o),
(330,696,cs),
(293,696,o),
(254,704,o),
(235,722,cs),
(221,735,o),
(169,604,o),
(169,564,cs),
(169,559,o),
(169,556,o),
(171,554,cs),
(192,535,o),
(231,526,o),
(271,526,cs),
(312,526,o),
(353,536,o),
(371,555,cs)
);
}
);
width = 526;
}
);
unicode = 71;
},
{
glyphname = Ghook;
kernLeft = G;
kernRight = G;
lastChange = "2024-03-07 20:05:52 +0000";
layers = (
{
anchors = (
{
name = bottom;
pos = (349,-30);
},
{
name = left;
pos = (300,650);
},
{
name = top;
pos = (477,710);
}
);
layerId = m01;
shapes = (
{
closed = 1;
nodes = (
(380,623,o),
(384,629,o),
(384,634,cs),
(384,638,o),
(380,640,o),
(372,640,cs),
(351,640,o),
(307,624,o),
(280,600,cs),
(84,427,o),
(5,274,o),
(5,160,cs),
(5,96,o),
(30,45,o),
(73,9,cs),
(111,-22,o),
(170,-16,o),
(184,-16,cs),
(193,-16,o),
(372,140,o),
(404,186,cs),
(411,198,o),
(415,213,o),
(415,224,cs),
(415,236,o),
(411,244,o),
(406,244,cs),
(402,244,o),
(397,241,o),
(392,234,cs),
(376,209,o),
(264,116,o),
(264,116,c),
(260,116,o),
(226,115,o),
(199,137,cs),
(160,170,o),
(138,212,o),
(138,263,cs),
(138,353,o),
(207,471,o),
(370,614,cs)
);
},
{
closed = 1;
nodes = (
(255,357,o),
(186,257,o),
(203,257,cs),
(206,257,o),
(212,260,o),
(221,267,cs),
(228,273,o),
(241,277,o),
(254,277,cs),
(283,277,o),
(316,260,o),
(313,200,cs),
(310,135,o),
(301,72,o),
(294,6,cs),
(293,-5,o),
(293,-15,o),
(293,-25,cs),
(293,-72,o),
(306,-104,o),
(335,-100,cs),
(362,-97,o),
(488,33,o),
(455,28,cs),
(439,26,o),
(433,38,o),
(433,68,cs),
(436,114,ls),
(442,178,o),
(451,244,o),
(455,308,cs),
(457,365,o),
(413,414,o),
(360,414,cs),
(339,414,o),
(318,407,o),
(297,391,cs)
);
},
{
closed = 1;
nodes = (
(301,540,o),
(404,640,o),
(384,643,cs),
(344,651,o),
(331,669,o),
(331,690,cs),
(331,723,o),
(365,762,o),
(373,771,cs),
(391,789,o),
(399,802,o),
(399,810,cs),
(399,815,o),
(395,818,o),
(389,818,cs),
(375,818,o),
(349,805,o),
(321,777,cs),
(265,721,o),
(227,655,o),
(227,606,cs),
(227,574,o),
(244,550,o),
(284,543,cs)
);
},
{
closed = 1;
nodes = (
(365,823,o),
(304,765,o),
(304,745,cs),
(304,741,o),
(307,739,o),
(313,739,cs),
(318,739,l),
(329,741,o),
(340,742,o),
(349,742,cs),
(386,742,o),
(407,727,o),
(407,702,cs),
(407,697,o),
(404,691,o),
(404,685,cs),
(404,682,o),
(406,681,o),
(409,681,cs),
(428,681,o),
(498,735,o),
(503,756,cs),
(505,763,o),
(506,770,o),
(506,777,cs),
(506,810,o),
(481,832,o),
(433,832,cs),
(422,832,o),
(409,831,o),
(396,829,cs)
);
}
);
width = 572;
}
);
unicode = 403;
},
{
glyphname = H;
kernLeft = CapStraight;
kernRight = CapStraight;
lastChange = "2024-03-07 20:05:52 +0000";
layers = (
{
anchors = (
{
name = bottom;
pos = (291,0);
},
{
name = center;
pos = (291,350);
},
{
name = top;
pos = (334,707);
},
{
name = topleft;
pos = (50,700);
}
);
guides = (
{
pos = (103,-2);
},
{
pos = (204,711);
},
{
pos = (1015,217);
}
);
layerId = m01;
shapes = (
{
closed = 1;
nodes = (
(87,438,o),
(40,313,o),
(40,278,cs),
(40,272,o),
(41,268,o),
(44,268,cs),
(477,269,ls),
(494,269,o),
(541,393,o),
(541,429,cs),
(541,435,o),
(540,439,o),
(537,439,cs),
(104,438,ls)
);
},
{
closed = 1;
nodes = (
(168,702,o),
(38,571,o),
(77,580,cs),
(84,582,o),
(93,570,o),
(93,525,cs),
(93,515,o),
(93,503,o),
(92,488,cs),
(63,106,ls),
(57,39,o),
(81,-4,o),
(104,0,cs),
(134,5,o),
(261,138,o),
(226,132,cs),
(207,129,o),
(202,136,o),
(202,153,cs),
(202,168,o),
(205,189,o),
(207,218,cs),
(236,600,ls),
(237,609,o),
(237,618,o),
(237,627,cs),
(237,676,o),
(225,716,o),
(199,710,cs)
);
},
{
closed = 1;
nodes = (
(437,702,o),
(307,571,o),
(346,580,cs),
(353,582,o),
(362,570,o),
(362,525,cs),
(362,515,o),
(362,503,o),
(361,488,cs),
(332,106,ls),
(326,39,o),
(350,-4,o),
(373,0,cs),
(403,5,o),
(530,138,o),
(495,132,cs),
(476,129,o),
(471,136,o),
(471,153,cs),
(471,168,o),
(474,189,o),
(476,218,cs),
(505,600,ls),
(506,609,o),
(506,618,o),
(506,627,cs),
(506,676,o),
(494,716,o),
(468,710,cs)
);
}
);
width = 581;
}
);
unicode = 72;
},
{
glyphname = Hbar;
kernLeft = Hbar;
kernRight = Hbar;
lastChange = "2024-03-07 20:05:52 +0000";
layers = (
{
anchors = (
{
name = top;
pos = (330,650);
}
);
layerId = m01;
shapes = (
{
pos = (30,0);
ref = H;
},
{
closed = 1;
nodes = (
(81,631,o),
(47,542,o),
(47,510,cs),
(47,503,o),
(48,499,o),
(52,499,cs),
(137,500,ls),
(152,500,o),
(166,511,o),
(180,511,cs),
(394,512,ls),
(404,512,o),
(414,501,o),
(423,501,cs),
(498,501,ls),
(514,501,o),
(549,591,o),
(549,622,cs),
(549,629,o),
(548,633,o),
(544,633,cs),
(469,633,ls),
(456,633,o),
(444,622,o),
(432,622,cs),
(218,621,ls),
(206,621,o),
(194,632,o),
(183,632,cs),
(98,631,ls)
);
}
);
width = 611;
}
);
unicode = 294;
},
{
glyphname = Hhook;
kernLeft = CapStraight;
kernRight = CapStraight;
lastChange = "2024-03-07 20:05:52 +0000";
layers = (
{
anchors = (
{
name = bottom;
pos = (468,0);
},
{
name = center;
pos = (468,350);
},
{
name = top;
pos = (511,707);
},
{
name = topleft;
pos = (227,700);
}
);
layerId = m01;
shapes = (
{
closed = 1;
nodes = (
(264,438,o),
(217,313,o),
(217,278,cs),
(217,272,o),
(218,268,o),
(221,268,cs),
(654,269,ls),
(671,269,o),
(718,393,o),
(718,429,cs),
(718,435,o),
(717,439,o),
(714,439,cs),
(281,438,ls)
);
},
{
closed = 1;
nodes = (
(331,703,o),
(208,580,o),
(237,580,cs),
(241,580,o),
(273,554,o),
(269,488,cs),
(240,106,ls),
(234,39,o),
(258,-4,o),
(281,0,cs),
(311,5,o),
(438,138,o),
(403,132,cs),
(384,129,o),
(379,136,o),
(379,153,cs),
(379,168,o),
(382,189,o),
(384,218,cs),
(413,600,ls),
(419,670,o),
(367,703,o),
(355,703,cs)
);
},
{
closed = 1;
nodes = (
(614,702,o),
(484,571,o),
(523,580,cs),
(530,582,o),
(539,570,o),
(539,525,cs),
(539,515,o),
(539,503,o),
(538,488,cs),
(509,106,ls),
(503,39,o),
(527,-4,o),
(550,0,cs),
(580,5,o),
(707,138,o),
(672,132,cs),
(653,129,o),
(648,136,o),
(648,153,cs),
(648,168,o),
(651,189,o),
(653,218,cs),
(682,600,ls),
(683,609,o),
(683,618,o),
(683,627,cs),
(683,676,o),
(671,716,o),
(645,710,cs)
);
},
{
closed = 1;
nodes = (
(292,530,o),
(391,676,o),
(378,691,cs),
(370,699,o),
(350,708,o),
(321,708,cs),
(261,708,o),
(162,669,o),
(49,504,cs),
(43,496,o),
(41,491,o),
(41,488,cs),
(41,485,o),
(42,484,o),
(45,484,cs),
(60,484,o),
(112,521,o),
(135,556,cs),
(136,558,o),
(167,581,o),
(205,581,cs),
(228,581,o),
(254,573,o),
(278,545,cs)
);
},
{
closed = 1;
nodes = (
(141,594,o),
(44,510,o),
(41,486,cs),
(40,481,o),
(40,475,o),
(40,470,cs),
(40,412,o),
(79,376,o),
(127,376,cs),
(145,376,o),
(165,381,o),
(184,394,cs),
(212,411,o),
(244,478,o),
(244,504,cs),
(244,511,o),
(242,515,o),
(237,515,cs),
(234,515,o),
(231,513,o),
(226,510,cs),
(211,501,o),
(194,495,o),
(179,495,cs),
(157,495,o),
(139,509,o),
(139,548,cs),
(139,554,o),
(141,561,o),
(141,569,cs)
);
}
);
width = 758;
}
);
unicode = 42922;
},
{
glyphname = Hturned;
kernLeft = CapStraight;
kernRight = CapStraight;
lastChange = "2024-03-07 20:05:52 +0000";
layers = (
{
layerId = m01;
shapes = (
{
closed = 1;
nodes = (
(97,438,o),
(50,313,o),
(50,278,cs),
(50,272,o),
(51,268,o),
(54,268,cs),
(447,269,ls),
(464,269,o),
(511,393,o),
(511,429,cs),
(511,435,o),
(510,439,o),
(507,439,cs),
(114,438,ls)
);
},
{
closed = 1;
nodes = (
(138,702,o),
(8,571,o),
(47,580,cs),
(55,582,o),
(63,570,o),
(63,523,cs),
(61,488,l),
(48,272,ls),
(46,243,o),
(191,358,o),
(192,384,cs),
(207,600,ls),
(210,660,o),
(200,717,o),
(169,710,cs)
);
},
{
closed = 1;
nodes = (
(407,702,o),
(277,571,o),
(316,580,cs),
(323,582,o),
(332,570,o),
(332,525,cs),
(332,515,o),
(332,503,o),
(331,488,cs),
(302,106,ls),
(296,39,o),
(320,-4,o),
(343,0,cs),
(373,5,o),
(500,138,o),
(465,132,cs),
(446,129,o),
(441,136,o),
(441,153,cs),
(441,168,o),
(444,189,o),
(446,218,cs),
(475,600,ls),
(476,609,o),
(476,618,o),
(476,627,cs),
(476,676,o),
(464,716,o),
(438,710,cs)
);
}
);
width = 551;
}
);
unicode = 42893;
},
{
glyphname = I;
kernLeft = straight;
kernRight = straight;
lastChange = "2024-03-07 20:18:30 +0000";
layers = (
{
anchors = (
{
name = bottom;
pos = (136,2);
},
{
name = center;
pos = (140,356);
},
{
name = ogonek;
pos = (191,0);
},
{
name = top;
pos = (168,710);
},
{
name = topleft;
pos = (45,700);
}
);
layerId = m01;
shapes = (
{
closed = 1;
nodes = (
(156,702,o),
(26,571,o),
(65,580,cs),
(72,582,o),
(81,571,o),
(81,526,cs),
(81,515,o),
(81,503,o),
(80,488,cs),
(51,106,ls),
(45,39,o),
(69,-4,o),
(92,0,cs),
(122,5,o),
(249,138,o),
(214,132,cs),
(195,129,o),
(190,136,o),
(190,153,cs),
(190,168,o),
(193,189,o),
(195,218,cs),
(224,600,ls),
(225,609,o),
(225,619,o),
(225,627,cs),
(225,677,o),
(213,716,o),
(187,710,cs)
);
}
);
width = 275;
}
);
unicode = 73;
},
{
glyphname = J;
kernLeft = J;
kernRight = J;
lastChange = "2024-03-07 20:05:52 +0000";
layers = (
{
anchors = (
{
name = bottom;
pos = (180,0);
},
{
name = top;
pos = (311,709);
}
);
layerId = m01;
shapes = (
{
closed = 1;
nodes = (
(103,-23,o),
(215,118,o),
(211,141,cs),
(202,180,o),
(144,249,o),
(97,249,cs),
(92,249,o),
(87,249,o),
(82,247,cs),
(58,238,o),
(-25,131,o),
(-25,108,cs),
(-25,105,o),
(-23,103,o),
(-18,105,cs),
(-16,106,o),
(-13,107,o),
(-9,107,cs),
(28,107,o),
(89,41,o),
(97,3,cs)
);
},
{
closed = 1;
nodes = (
(322,702,o),
(192,571,o),
(231,580,cs),
(238,582,o),
(248,570,o),
(248,529,cs),
(248,518,o),
(247,504,o),
(246,488,cs),
(217,219,ls),
(203,96,o),
(201,120,o),
(199,119,c),
(144,76,o),
(87,3,o),
(103,3,cs),
(108,3,o),
(118,8,o),
(135,21,cs),
(356,193,o),
(356,281,o),
(361,331,cs),
(390,600,l),
(392,610,o),
(392,620,o),
(392,630,cs),
(392,678,o),
(379,716,o),
(353,710,cs)
);
}
);
width = 427;
}
);
unicode = 74;
},
{
glyphname = K;
kernLeft = I;
kernRight = K;
lastChange = "2024-03-07 20:05:52 +0000";
layers = (
{
anchors = (
{
name = bottom;
pos = (271,0);
},
{
name = left;
pos = (99,645);
},
{
name = top;
pos = (289,709);
}
);
layerId = m01;
shapes = (
{
closed = 1;
nodes = (
(295,459,o),
(175,324,o),
(193,314,cs),
(212,303,o),
(300,10,o),
(395,0,cs),
(417,-2,o),
(534,135,o),
(509,138,cs),
(422,146,o),
(334,437,o),
(311,450,cs)
);
},
{
closed = 1;
nodes = (
(140,698,o),
(46,599,o),
(46,581,cs),
(46,577,o),
(49,576,o),
(55,579,cs),
(63,582,o),
(68,573,o),
(68,538,cs),
(68,527,o),
(68,513,o),
(67,496,cs),
(38,118,ls),
(36,102,o),
(35,87,o),
(35,72,cs),
(35,30,o),
(44,0,o),
(78,0,cs),
(104,0,o),
(235,152,o),
(202,152,cs),
(186,152,o),
(180,159,o),
(180,187,cs),
(182,230,l),
(211,608,ls),
(212,617,o),
(212,627,o),
(212,636,cs),
(212,676,o),
(204,711,o),
(181,711,cs),
(178,711,o),
(175,711,o),
(171,709,cs)
);
},
{
closed = 1;
nodes = (
(497,567,o),
(535,675,o),
(535,706,cs),
(535,711,o),
(534,714,o),
(532,714,cs),
(530,714,o),
(528,713,o),
(526,711,cs),
(508,695,o),
(478,685,o),
(449,685,cs),
(422,685,o),
(396,694,o),
(381,713,cs),
(368,729,o),
(315,596,o),
(315,555,cs),
(315,551,o),
(315,547,o),
(317,545,cs),
(333,525,o),
(360,515,o),
(390,515,cs),
(421,515,o),
(453,526,o),
(476,547,cs)
);
},
{
closed = 1;
nodes = (
(502,600,o),
(471,607,o),
(439,607,cs),
(416,607,o),
(393,604,o),
(386,596,cs),
(364,570,o),
(73,259,o),
(65,251,cs),
(54,239,o),
(86,232,o),
(117,232,cs),
(141,232,o),
(164,236,o),
(171,243,cs),
(179,252,o),
(469,563,o),
(492,588,cs)
);
}
);
width = 560;
}
);
unicode = 75;
},
{
glyphname = Khook;
kernLeft = K;
kernRight = K;
lastChange = "2024-03-07 20:05:52 +0000";
layers = (
{
anchors = (
{
name = bottom;
pos = (271,0);
},
{
name = left;
pos = (99,645);
},
{
name = top;
pos = (289,709);
}
);
layerId = m01;
shapes = (
{
closed = 1;
nodes = (
(295,459,o),
(175,324,o),
(193,314,cs),
(212,303,o),
(300,10,o),
(395,0,cs),
(417,-2,o),
(534,135,o),
(509,138,cs),
(422,146,o),
(334,437,o),
(311,450,cs)
);
},
{
closed = 1;
nodes = (
(148,696,o),
(54,597,o),
(54,579,cs),
(54,575,o),
(57,574,o),
(63,577,cs),
(68,579,o),
(71,576,o),
(71,562,cs),
(71,550,o),
(69,529,o),
(67,496,cs),
(38,118,ls),
(36,102,o),
(35,87,o),
(35,72,cs),
(35,30,o),
(44,0,o),
(78,0,cs),
(104,0,o),
(235,152,o),
(202,152,cs),
(186,152,o),
(180,159,o),
(180,187,cs),
(182,230,l),
(211,608,ls),
(213,623,o),
(213,639,o),
(213,653,cs),
(213,684,o),
(209,709,o),
(190,709,cs),
(186,709,o),
(183,709,o),
(179,707,cs)
);
},
{
closed = 1;
nodes = (
(502,600,o),
(471,607,o),
(439,607,cs),
(416,607,o),
(393,604,o),
(386,596,cs),
(364,570,o),
(73,259,o),
(65,251,cs),
(54,239,o),
(86,232,o),
(117,232,cs),
(141,232,o),
(164,236,o),
(171,243,cs),
(179,252,o),
(469,563,o),
(492,588,cs)
);
},
{
closed = 1;
nodes = (
(448,540,o),
(551,640,o),
(531,643,cs),
(491,651,o),
(478,669,o),
(478,690,cs),
(478,723,o),
(512,762,o),
(520,771,cs),
(538,789,o),
(546,802,o),
(546,810,cs),
(546,815,o),
(542,818,o),
(536,818,cs),
(522,818,o),
(496,805,o),
(468,777,cs),
(412,721,o),
(374,655,o),
(374,606,cs),
(374,574,o),
(391,550,o),
(431,543,cs)
);
},
{
closed = 1;
nodes = (
(512,823,o),
(451,765,o),
(451,745,cs),
(451,741,o),
(454,739,o),
(460,739,cs),
(465,739,l),
(476,741,o),
(487,742,o),
(496,742,cs),
(533,742,o),
(554,727,o),
(554,702,cs),
(554,697,o),
(551,691,o),
(551,685,cs),
(551,682,o),
(553,681,o),
(556,681,cs),
(575,681,o),
(645,735,o),
(650,756,cs),
(652,763,o),
(653,770,o),
(653,777,cs),
(653,810,o),
(628,832,o),
(580,832,cs),
(569,832,o),
(556,831,o),
(543,829,cs)
);
}
);
width = 678;
}
);
unicode = 408;
},
{
glyphname = L;
kernLeft = L;
kernRight = L;
lastChange = "2024-03-07 20:05:52 +0000";
layers = (
{
anchors = (
{
name = bottom;
pos = (187,0);
},
{
name = center;
pos = (120,350);
},
{
name = top;
pos = (147,709);
},
{
name = topright;
pos = (277,709);
}
);
layerId = m01;
shapes = (
{
closed = 1;
nodes = (
(55,99,o),
(13,-1,o),
(28,-1,cs),
(31,-1,o),
(36,2,o),
(43,11,cs),
(61,32,o),
(91,47,o),
(123,47,cs),
(138,47,o),
(154,44,o),
(169,37,cs),
(197,23,o),
(236,2,o),
(274,2,cs),
(291,2,o),
(308,6,o),
(325,18,cs),
(345,32,o),
(386,144,o),
(386,177,cs),
(386,183,o),
(385,186,o),
(382,186,cs),
(380,186,o),
(379,185,o),
(377,184,cs),
(361,172,o),
(346,168,o),
(331,168,cs),
(309,168,o),
(287,178,o),
(263,189,cs),
(244,199,o),
(225,204,o),
(205,204,cs),
(167,204,o),
(128,185,o),
(87,137,cs)
);
},
{
closed = 1;
nodes = (
(147,703,o),
(20,575,o),
(57,583,cs),
(67,585,o),
(71,579,o),
(71,562,cs),
(71,547,o),
(68,523,o),
(65,490,cs),
(27,21,ls),
(24,-16,o),
(164,122,o),
(167,155,cs),
(179,303,o),
(194,450,o),
(207,598,cs),
(208,615,o),
(210,635,o),
(210,653,cs),
(210,687,o),
(203,715,o),
(177,709,cs)
);
}
);
width = 426;
}
);
unicode = 76;
},
{
glyphname = M;
kernLeft = M;
kernRight = M;
lastChange = "2024-03-07 20:05:52 +0000";
layers = (
{
anchors = (
{
name = bottom;
pos = (306,0);
},
{
name = top;
pos = (426,708);
}
);
layerId = m01;
shapes = (
{
closed = 1;
nodes = (
(269,730,o),
(142,605,o),
(152,587,cs),
(221,475,o),
(244,49,o),
(299,-2,cs),
(313,-15,o),
(440,111,o),
(425,124,cs),
(376,171,o),
(349,599,o),
(280,713,cs)
);
},
{
closed = 1;
nodes = (
(32,85,o),
(35,83,o),
(41,83,cs),
(62,83,o),
(127,119,o),
(133,138,cs),
(219,381,o),
(224,675,o),
(224,658,cs),
(224,681,o),
(143,605,o),
(142,583,cs),
(141,572,o),
(119,329,o),
(35,92,cs)
);
},
{
closed = 1;
nodes = (
(302,148,o),
(306,145,o),
(314,145,cs),
(338,145,o),
(397,169,o),
(403,186,cs),
(495,406,o),
(548,620,o),
(550,640,cs),
(551,647,o),
(548,650,o),
(543,650,cs),
(523,650,o),
(469,608,o),
(466,584,cs),
(464,574,o),
(393,368,o),
(305,154,cs)
);
},
{
closed = 1;
nodes = (
(603,737,o),
(474,613,o),
(474,585,cs),
(475,497,ls),
(475,322,o),
(477,3,o),
(538,-1,cs),
(561,-2,o),
(684,123,o),
(656,125,cs),
(608,127,o),
(604,389,o),
(604,569,cs),
(604,667,l),
(604,707,ls)
);
},
{
closed = 1;
nodes = (
(9,148,o),
(-30,39,o),
(-30,8,cs),
(-30,2,o),
(-29,-1,o),
(-26,-1,cs),
(-25,-1,o),
(-23,0,o),
(-21,2,cs),
(-3,18,o),
(28,28,o),
(58,28,cs),
(87,28,o),
(114,19,o),
(128,0,cs),
(141,-18,o),
(194,121,o),
(194,159,cs),
(194,163,o),
(193,166,o),
(192,168,cs),
(177,188,o),
(149,198,o),
(118,198,cs),
(86,198,o),
(52,187,o),
(29,166,cs)
);
}
);
width = 700;
}
);
unicode = 77;
},
{
glyphname = N;
kernLeft = N;
kernRight = N;
lastChange = "2024-03-07 20:05:52 +0000";
layers = (
{
anchors = (
{
name = bottom;
pos = (266,0);
},
{
name = top;
pos = (326,709);
}
);
layerId = m01;
shapes = (
{
closed = 1;
nodes = (
(190,728,o),
(69,609,o),
(79,591,cs),
(170,428,o),
(270,129,o),
(373,2,cs),
(385,-13,o),
(506,107,o),
(493,122,cs),
(392,247,o),
(292,546,o),
(201,709,cs)
);
},
{
closed = 1;
nodes = (
(9,150,o),
(-30,41,o),
(-30,10,cs),
(-30,4,o),
(-29,1,o),
(-26,1,cs),
(-25,1,o),
(-23,2,o),
(-21,4,cs),
(-3,20,o),
(27,30,o),
(56,30,cs),
(83,30,o),
(109,21,o),
(124,2,cs),
(138,-15,o),
(190,122,o),
(190,161,cs),
(190,165,o),
(189,168,o),
(188,170,c),
(172,190,o),
(145,200,o),
(115,200,cs),
(84,200,o),
(52,189,o),
(29,168,cs)
);
},
{
closed = 1;
nodes = (
(539,565,o),
(577,673,o),
(577,704,cs),
(577,709,o),
(576,712,o),
(574,712,cs),
(572,712,o),
(570,711,o),
(568,709,cs),
(550,693,o),
(520,683,o),
(491,683,cs),
(464,683,o),
(438,692,o),
(423,711,cs),
(410,727,o),
(357,594,o),
(357,553,cs),
(357,549,o),
(357,545,o),
(359,543,cs),
(375,523,o),
(402,513,o),
(432,513,cs),
(463,513,o),
(495,524,o),
(518,545,cs)
);
},
{
closed = 1;
nodes = (
(45,41,o),
(50,35,o),
(59,35,cs),
(82,35,o),
(131,75,o),
(137,107,cs),
(148,167,o),
(188,635,o),
(188,636,cs),
(189,648,o),
(184,653,o),
(176,653,cs),
(152,653,o),
(101,610,o),
(98,578,cs),
(96,562,o),
(59,116,o),
(47,55,cs)
);
},
{
closed = 1;
nodes = (
(370,41,o),
(375,35,o),
(384,35,cs),
(407,35,o),
(456,75,o),
(462,107,cs),
(473,167,o),
(513,635,o),
(513,636,cs),
(514,648,o),
(509,653,o),
(501,653,cs),
(477,653,o),
(426,610,o),
(423,578,cs),
(421,562,o),
(384,116,o),
(372,55,cs)
);
}
);
width = 557;
}
);
unicode = 78;
},
{
glyphname = Nhookleft;
kernLeft = N;
kernRight = N;
lastChange = "2024-03-07 20:05:52 +0000";
layers = (
{
anchors = (
{
name = bottom;
pos = (315,0);
},
{
name = top;
pos = (375,709);
}
);
layerId = m01;
shapes = (
{
closed = 1;
nodes = (
(239,728,o),
(118,609,o),
(128,591,cs),
(219,428,o),
(319,129,o),
(422,2,cs),
(434,-13,o),
(555,107,o),
(542,122,cs),
(441,247,o),
(341,546,o),
(250,709,cs)
);
},
{
closed = 1;
nodes = (
(588,565,o),
(626,673,o),
(626,704,cs),
(626,709,o),
(625,712,o),
(623,712,cs),
(621,712,o),
(619,711,o),
(617,709,cs),
(599,693,o),
(569,683,o),
(540,683,cs),
(513,683,o),
(487,692,o),
(472,711,cs),
(459,727,o),
(406,594,o),
(406,553,cs),
(406,549,o),
(406,545,o),
(408,543,cs),
(424,523,o),
(451,513,o),
(481,513,cs),
(512,513,o),
(544,524,o),
(567,545,cs)
);
},
{
closed = 1;
nodes = (
(88,1,o),
(90,-3,o),
(94,-3,cs),
(113,-3,o),
(170,50,o),
(175,76,cs),
(190,157,o),
(234,608,o),
(237,636,cs),
(238,648,o),
(233,653,o),
(225,653,cs),
(201,653,o),
(150,610,o),
(147,578,cs),
(147,577,o),
(99,61,o),
(89,8,cs)
);
},
{
closed = 1;
nodes = (
(419,41,o),
(424,35,o),
(433,35,cs),
(456,35,o),
(505,75,o),
(511,107,cs),
(522,167,o),
(562,635,o),
(562,636,cs),
(563,648,o),
(558,653,o),
(550,653,cs),
(526,653,o),
(475,610,o),
(472,578,cs),
(470,562,o),
(433,116,o),
(421,55,cs)
);
},
{
closed = 1;
nodes = (
(148,119,o),
(71,-3,o),
(90,-3,cs),
(137,-3,o),
(153,-20,o),
(153,-42,cs),
(153,-77,o),
(115,-125,o),
(103,-137,cs),
(85,-155,o),
(77,-168,o),
(77,-176,cs),
(77,-181,o),
(81,-184,o),
(87,-184,cs),
(101,-184,o),
(127,-171,o),
(155,-143,cs),
(204,-94,o),
(244,-16,o),
(244,42,cs),
(244,86,o),
(221,119,o),
(164,119,cs)
);
},
{
closed = 1;
nodes = (
(113,-189,o),
(172,-132,o),
(172,-112,cs),
(172,-108,o),
(169,-105,o),
(163,-105,cs),
(158,-105,l),
(147,-107,o),
(136,-108,o),
(127,-108,cs),
(90,-108,o),
(69,-93,o),
(69,-68,cs),
(69,-63,o),
(72,-57,o),
(72,-51,cs),
(72,-48,o),
(70,-47,o),
(67,-47,cs),
(48,-47,o),
(-22,-100,o),
(-27,-122,cs),
(-29,-129,o),
(-30,-136,o),
(-30,-143,cs),
(-30,-176,o),
(-5,-198,o),
(43,-198,cs),
(54,-198,o),
(67,-197,o),
(80,-195,cs)
);
}
);
width = 606;
}
);
unicode = 413;
},
{
glyphname = O;
kernLeft = CapRound;
kernRight = CapRound;
lastChange = "2024-03-07 20:05:52 +0000";
layers = (
{
anchors = (
{
name = bottom;
pos = (152,0);
},
{
name = center;
pos = (223,350);
},
{
name = ogonek;
pos = (397,10);
},
{
name = top;
pos = (299,710);
},
{
name = topleft;
pos = (25,700);
},
{
name = topright;
pos = (332,709);
}
);
layerId = m01;
shapes = (
{
closed = 1;
nodes = (
(169,75,o),
(138,30,o),
(138,8,cs),
(138,-1,o),
(143,-6,o),
(152,-6,cs),
(165,-6,o),
(185,2,o),
(214,23,cs),
(314,94,o),
(438,230,o),
(438,401,cs),
(438,495,o),
(401,599,o),
(301,709,cs),
(287,725,o),
(190,540,o),
(205,523,cs),
(303,414,o),
(336,332,o),
(336,271,cs),
(336,160,o),
(230,119,o),
(222,113,cs)
);
},
{
closed = 1;
nodes = (
(268,568,o),
(308,660,o),
(308,694,cs),
(308,701,o),
(306,706,o),
(301,706,cs),
(297,706,o),
(289,702,o),
(279,692,cs),
(211,626,o),
(5,345,o),
(5,158,cs),
(5,77,o),
(45,13,o),
(152,-6,cs),
(185,-12,o),
(309,96,o),
(309,128,cs),
(309,132,o),
(307,135,o),
(302,136,cs),
(177,159,o),
(140,224,o),
(140,296,cs),
(140,406,o),
(229,530,o),
(229,530,c)
);
}
);
width = 473;
}
);
unicode = 79;
},
{
glyphname = Oopen;
lastChange = "2024-03-07 20:05:52 +0000";
layers = (
{
anchors = (
{
name = bottom;
pos = (145,0);
},
{
name = top;
pos = (285,700);
}
);
layerId = m01;
shapes = (
{
closed = 1;
nodes = (
(188,106,o),
(182,93,o),
(182,87,cs),
(182,67,o),
(249,113,o),
(292,171,cs),
(405,323,o),
(447,442,o),
(447,529,cs),
(447,659,o),
(354,719,o),
(264,719,cs),
(212,719,o),
(161,698,o),
(129,659,cs),
(95,619,o),
(40,482,o),
(55,482,cs),
(57,482,o),
(61,485,o),
(67,493,cs),
(96,528,o),
(139,546,o),
(182,546,cs),
(252,546,o),
(320,498,o),
(320,400,cs),
(320,333,o),
(288,241,o),
(202,125,cs)
);
},
{
closed = 1;
nodes = (
(274,143,o),
(309,238,o),
(296,238,cs),
(292,238,o),
(286,232,o),
(275,217,cs),
(263,200,o),
(210,171,o),
(162,171,cs),
(115,171,o),
(73,197,o),
(73,283,cs),
(73,293,o),
(71,296,o),
(69,296,cs),
(55,296,o),
(5,178,o),
(5,136,cs),
(5,40,o),
(44,3,o),
(93,3,cs),
(142,3,o),
(201,41,o),
(239,93,cs)
);
}
);
width = 467;
}
);
unicode = 390;
},
{
glyphname = Oslash;
kernLeft = CapRound;
kernRight = CapRound;
lastChange = "2024-03-07 20:05:52 +0000";
layers = (
{
anchors = (
{
name = bottom;
pos = (231,0);
},
{
name = top;
pos = (344,794);
}
);
layerId = m01;
shapes = (
{
closed = 1;
nodes = (
(169,66,o),
(138,21,o),
(138,-1,cs),
(138,-10,o),
(143,-15,o),
(152,-15,cs),
(165,-15,o),
(185,-7,o),
(214,14,cs),
(322,90,o),
(440,230,o),
(440,400,cs),
(440,497,o),
(402,604,o),
(301,715,cs),
(287,731,o),
(190,546,o),
(205,529,cs),
(302,421,o),
(334,337,o),
(334,273,cs),
(334,154,o),
(224,105,o),
(222,104,cs)
);
},
{
closed = 1;
nodes = (
(268,574,o),
(308,666,o),
(308,700,cs),
(308,707,o),
(306,712,o),
(301,712,cs),
(297,712,o),
(289,708,o),
(279,698,cs),
(211,632,o),
(5,344,o),
(5,153,cs),
(5,69,o),
(45,4,o),
(152,-15,cs),
(185,-21,o),
(309,87,o),
(309,119,cs),
(309,123,o),
(307,126,o),
(302,127,cs),
(177,150,o),
(140,218,o),
(140,292,cs),
(140,407,o),
(229,536,o),
(229,536,c)
);
},
{
closed = 1;
nodes = (
(110,-36,o),
(108,-42,o),
(108,-46,cs),
(108,-54,o),
(114,-57,o),
(122,-57,cs),
(143,-57,o),
(185,-32,o),
(201,-1,cs),
(212,21,o),
(220,54,o),
(231,100,cs),
(234,109,o),
(234,118,o),
(234,128,cs),
(234,142,ls),
(234,151,o),
(234,159,o),
(236,168,cs),
(269,304,o),
(310,500,o),
(334,635,cs),
(336,645,o),
(345,651,o),
(347,659,cs),
(369,767,ls),
(372,782,o),
(366,788,o),
(357,788,cs),
(334,788,o),
(286,751,o),
(279,717,cs),
(257,607,ls),
(256,603,o),
(256,599,o),
(256,595,cs),
(257,573,ls),
(257,569,o),
(256,565,o),
(256,561,c),
(232,427,o),
(191,229,o),
(158,94,cs),
(154,78,o),
(140,66,o),
(137,54,cs),
(126,10,o),
(114,-27,o),
(113,-29,cs)
);
}
);
width = 475;
}
);
unicode = 216;
},
{
glyphname = OE;
kernLeft = CapRound;
kernRight = E;
lastChange = "2024-03-07 20:05:52 +0000";
layers = (
{
anchors = (
{
name = bottom;
pos = (447,1);
},
{
name = ogonek;
pos = (646,0);
},
{
name = top;
pos = (577,700);
},
{
name = topleft;
pos = (302,700);
}
);
layerId = m01;
shapes = (
{
closed = 1;
nodes = (
(169,66,o),
(138,21,o),
(138,-1,cs),
(138,-10,o),
(143,-15,o),
(152,-15,cs),
(165,-15,o),
(185,-7,o),
(214,14,cs),
(322,90,o),
(440,230,o),
(440,400,cs),
(440,497,o),
(402,604,o),
(301,715,cs),
(287,731,o),
(190,546,o),
(205,529,cs),
(302,421,o),
(334,337,o),
(334,273,cs),
(334,154,o),
(224,105,o),
(222,104,cs)
);
},
{
closed = 1;
nodes = (
(268,574,o),
(308,666,o),
(308,700,cs),
(308,707,o),
(306,712,o),
(301,712,cs),
(297,712,o),
(289,708,o),
(279,698,cs),
(211,632,o),
(5,344,o),
(5,153,cs),
(5,69,o),
(45,4,o),
(152,-15,cs),
(185,-21,o),
(309,87,o),
(309,119,cs),
(309,123,o),
(307,126,o),
(302,127,cs),
(177,150,o),
(140,218,o),
(140,292,cs),
(140,407,o),
(229,536,o),
(229,536,c)
);
},
{
closed = 1;
nodes = (
(458,617,o),
(455,619,o),
(451,619,cs),
(432,619,o),
(375,574,o),
(373,552,cs),
(354,372,o),
(322,190,o),
(303,10,cs),
(302,-2,o),
(307,-5,o),
(313,-5,cs),
(316,-5,o),
(320,-4,o),
(322,-3,cs),
(351,9,o),
(372,21,o),
(396,21,cs),
(410,21,o),
(424,17,o),
(441,9,cs),
(470,-6,o),
(495,-17,o),
(523,-17,cs),
(541,-17,o),
(559,-13,o),
(580,-2,cs),
(612,14,o),
(706,140,o),
(684,140,cs),
(682,140,o),
(680,139,o),
(678,138,cs),
(663,131,o),
(648,128,o),
(633,128,cs),
(606,128,o),
(579,138,o),
(549,153,cs),
(532,161,o),
(515,165,o),
(498,165,cs),
(467,165,o),
(434,154,o),
(400,139,c),
(419,126,l),
(436,288,o),
(440,450,o),
(457,612,cs)
);
},
{
closed = 1;
nodes = (
(391,438,o),
(345,314,o),
(345,278,cs),
(345,272,o),
(346,268,o),
(349,268,cs),
(632,269,ls),
(649,269,o),
(696,392,o),
(696,429,cs),
(696,435,o),
(695,439,o),
(692,439,cs),
(409,438,ls)
);
},
{
closed = 1;
nodes = (
(715,545,o),
(748,657,o),
(748,693,cs),
(748,700,o),
(747,705,o),
(744,705,cs),
(743,705,o),
(742,705,o),
(740,703,cs),
(730,696,o),
(710,693,o),
(684,693,cs),
(630,693,o),
(551,705,o),
(484,705,cs),
(439,705,o),
(400,699,o),
(378,681,cs),
(360,666,o),
(329,556,o),
(329,520,cs),
(329,513,o),
(330,509,o),
(333,509,cs),
(334,509,o),
(335,510,o),
(336,511,cs),
(355,526,o),
(388,531,o),
(428,531,cs),
(491,531,o),
(569,519,o),
(627,519,cs),
(658,519,o),
(684,522,o),
(698,533,cs)
);
}
);
width = 768;
}
);
unicode = 338;
},
{
glyphname = P;
kernLeft = P;
kernRight = P;
lastChange = "2024-03-07 20:05:52 +0000";
layers = (
{
guides = (
{
pos = (113,716);
},
{
pos = (-217,587);
},
{
pos = (-226,373);
}
);
layerId = m01;
shapes = (
{
closed = 1;
nodes = (
(242,285,o),
(235,268,o),
(235,257,cs),
(235,248,o),
(240,244,o),
(248,244,cs),
(266,244,o),
(298,264,o),
(330,305,cs),
(407,405,o),
(438,485,o),
(438,548,cs),
(438,661,o),
(338,715,o),
(222,715,cs),
(195,715,o),
(167,713,o),
(140,707,cs),
(118,702,o),
(35,564,o),
(62,569,cs),
(95,576,o),
(124,579,o),
(151,579,cs),
(262,579,o),
(317,524,o),
(317,450,cs),
(317,406,o),
(298,356,o),
(260,307,cs)
);
},
{
closed = 1;
nodes = (
(259,215,o),
(346,318,o),
(346,356,cs),
(346,363,o),
(342,368,o),
(334,369,cs),
(215,382,o),
(157,398,o),
(122,398,cs),
(112,398,o),
(104,397,o),
(98,394,cs),
(79,387,o),
(35,267,o),
(35,234,cs),
(35,228,o),
(36,225,o),
(39,225,c),
(39,225,o),
(40,225,o),
(40,226,c),
(44,227,o),
(55,229,o),
(80,229,cs),
(107,229,o),
(152,227,o),
(224,219,cs)
);
},
{
closed = 1;
nodes = (
(217,629,o),
(76,519,o),
(74,492,cs),
(49,106,ls),
(45,42,o),
(58,0,o),
(89,0,cs),
(113,0,o),
(240,130,o),
(211,130,cs),
(195,130,o),
(189,142,o),
(189,176,cs),
(191,214,l),
(216,600,ls)
);
}
);
width = 448;
}
);
unicode = 80;
},
{
glyphname = Phook;
lastChange = "2024-03-07 20:05:52 +0000";
layers = (
{
layerId = m01;
shapes = (
{
closed = 1;
nodes = (
(404,285,o),
(397,268,o),
(397,257,cs),
(397,248,o),
(402,244,o),
(410,244,cs),
(428,244,o),
(460,264,o),
(492,305,cs),
(573,410,o),
(604,492,o),
(604,555,cs),
(604,670,o),
(501,719,o),
(404,719,cs),
(390,719,o),
(376,718,o),
(362,716,cs),
(341,713,o),
(243,552,o),
(270,556,cs),
(290,559,o),
(309,561,o),
(327,561,cs),
(426,561,o),
(481,516,o),
(481,447,cs),
(481,407,o),
(462,359,o),
(422,307,cs)
);
},
{
closed = 1;
nodes = (
(421,215,o),
(508,318,o),
(508,356,cs),
(508,363,o),
(504,368,o),
(496,369,cs),
(377,382,o),
(319,398,o),
(284,398,cs),
(274,398,o),
(266,397,o),
(260,394,cs),
(241,387,o),
(197,267,o),
(197,234,cs),
(197,228,o),
(198,225,o),
(201,225,c),
(201,225,o),
(202,225,o),
(202,226,c),
(206,227,o),
(217,229,o),
(242,229,cs),
(269,229,o),
(314,227,o),
(386,219,cs)
);
},
{
closed = 1;
nodes = (
(391,670,o),
(250,560,o),
(247,533,cs),
(211,106,l),
(210,80,ls),
(210,31,o),
(224,0,o),
(251,0,cs),
(275,0,o),
(402,130,o),
(373,130,cs),
(357,130,o),
(351,141,o),
(351,174,cs),
(351,185,o),
(351,198,o),
(353,214,cs),
(389,641,ls)
);
},
{
closed = 1;
nodes = (
(256,524,o),
(363,678,o),
(353,690,cs),
(343,702,o),
(320,713,o),
(288,713,cs),
(225,713,o),
(126,671,o),
(14,506,cs),
(8,498,o),
(6,493,o),
(6,490,cs),
(6,487,o),
(7,486,o),
(10,486,cs),
(25,486,o),
(77,523,o),
(100,558,cs),
(101,560,o),
(125,582,o),
(160,582,cs),
(185,582,o),
(215,571,o),
(247,534,cs)
);
},
{
closed = 1;
nodes = (
(106,596,o),
(9,512,o),
(6,488,cs),
(5,483,o),
(5,477,o),
(5,472,cs),
(5,414,o),
(44,378,o),
(92,378,cs),
(110,378,o),
(130,383,o),
(149,396,cs),
(177,413,o),
(209,480,o),
(209,506,cs),
(209,513,o),
(207,517,o),
(202,517,cs),
(199,517,o),
(196,515,o),
(191,512,cs),
(176,503,o),
(159,497,o),
(144,497,cs),
(122,497,o),
(104,511,o),
(104,550,cs),
(104,556,o),
(106,563,o),
(106,571,cs)
);
}
);
width = 610;
}
);
unicode = 420;
},
{
glyphname = Thorn;
kernLeft = Thorn;
kernRight = Thorn;
lastChange = "2024-03-07 20:05:52 +0000";
layers = (
{
layerId = m01;
shapes = (
{
closed = 1;
nodes = (
(230,241,o),
(218,218,o),
(218,206,cs),
(218,199,o),
(221,196,o),
(227,196,cs),
(242,196,o),
(272,215,o),
(310,258,cs),
(385,344,o),
(410,403,o),
(410,446,cs),
(410,508,o),
(357,536,o),
(320,557,c),
(186,562,ls),
(167,563,o),
(83,425,o),
(106,424,cs),
(238,419,l),
(279,396,o),
(292,371,o),
(292,347,cs),
(292,317,o),
(272,290,o),
(258,274,cs)
);
},
{
closed = 1;
nodes = (
(246,196,o),
(371,324,o),
(348,324,cs),
(231,324,o),
(185,330,o),
(171,330,cs),
(149,330,o),
(21,200,o),
(49,200,cs),
(61,200,o),
(107,196,o),
(224,196,cs)
);
},
{
closed = 1;
nodes = (
(203,720,o),
(62,610,o),
(60,583,cs),
(35,106,ls),
(32,42,o),
(44,0,o),
(75,0,cs),
(99,0,o),
(226,130,o),
(197,130,cs),
(181,130,o),
(175,142,o),
(175,178,cs),
(177,214,l),
(202,691,ls)
);
}
);
width = 430;
}
);
unicode = 222;
},
{
glyphname = Q;
kernLeft = Q;
kernRight = Q;
lastChange = "2024-03-07 20:05:52 +0000";
layers = (
{
layerId = m01;
shapes = (
{
closed = 1;
nodes = (
(263,335,o),
(219,290,o),
(221,273,cs),
(232,189,o),
(302,-16,o),
(419,-16,cs),
(427,-16,o),
(436,-15,o),
(444,-13,cs),
(464,-8,o),
(520,137,o),
(520,177,cs),
(520,183,o),
(518,187,o),
(515,187,cs),
(514,187,ls),
(497,183,o),
(480,181,o),
(463,181,cs),
(370,181,o),
(275,239,o),
(265,319,cs)
);
},
{
closed = 1;
nodes = (
(184,66,o),
(153,21,o),
(153,-1,cs),
(153,-10,o),
(158,-15,o),
(167,-15,cs),
(180,-15,o),
(200,-7,o),
(229,14,cs),
(337,90,o),
(455,230,o),
(455,400,cs),
(455,497,o),
(417,604,o),
(316,715,cs),
(302,731,o),
(205,546,o),
(220,529,cs),
(317,421,o),
(349,337,o),
(349,273,cs),
(349,154,o),
(239,105,o),
(237,104,cs)
);
},
{
closed = 1;
nodes = (
(283,574,o),
(323,666,o),
(323,700,cs),
(323,707,o),
(321,712,o),
(316,712,cs),
(312,712,o),
(304,708,o),
(294,698,cs),
(226,632,o),
(20,344,o),
(20,153,cs),
(20,69,o),
(60,4,o),
(167,-15,cs),
(200,-21,o),
(324,87,o),
(324,119,cs),
(324,123,o),
(322,126,o),
(317,127,cs),
(192,150,o),
(155,218,o),
(155,292,cs),
(155,407,o),
(244,536,o),
(244,536,c)
);
}
);
width = 560;
}
);
unicode = 81;
},
{
glyphname = R;
kernLeft = R;
kernRight = R;
lastChange = "2024-03-07 20:05:52 +0000";
layers = (
{
anchors = (
{
name = bottom;
pos = (267,0);
},
{
name = top;
pos = (267,711);
}
);
guides = (
{
angle = 180;
pos = (352,360);
},
{
pos = (198,564);
}
);
layerId = m01;
shapes = (
{
closed = 1;
nodes = (
(195,581,o),
(194,583,o),
(191,583,cs),
(176,583,o),
(123,464,o),
(125,421,cs),
(130,274,o),
(327,-1,o),
(405,-1,cs),
(408,-1,o),
(411,0,o),
(414,0,c),
(431,6,o),
(477,128,o),
(477,161,cs),
(477,167,o),
(476,170,o),
(474,170,cs),
(473,170,o),
(473,170,o),
(472,170,c),
(468,168,o),
(463,167,o),
(459,167,cs),
(366,167,o),
(200,448,o),
(195,575,cs)
);
},
{
closed = 1;
nodes = (
(39,148,o),
(0,39,o),
(0,8,cs),
(0,2,o),
(1,-1,o),
(4,-1,cs),
(5,-1,o),
(7,0,o),
(9,2,cs),
(27,18,o),
(57,28,o),
(86,28,cs),
(113,28,o),
(139,19,o),
(154,0,cs),
(168,-17,o),
(220,120,o),
(220,159,cs),
(220,163,o),
(219,166,o),
(218,168,c),
(202,188,o),
(175,198,o),
(145,198,cs),
(114,198,o),
(82,187,o),
(59,166,cs)
);
},
{
closed = 1;
nodes = (
(190,573,o),
(181,587,o),
(168,587,cs),
(142,587,o),
(99,528,o),
(96,462,cs),
(88,287,o),
(94,300,o),
(74,63,cs),
(72,50,o),
(78,44,o),
(87,44,cs),
(109,44,o),
(150,76,o),
(152,105,cs),
(174,358,o),
(180,373,o),
(188,540,cs)
);
},
{
closed = 1;
nodes = (
(255,309,o),
(245,288,o),
(245,274,cs),
(245,265,o),
(250,260,o),
(259,260,cs),
(273,260,o),
(298,274,o),
(328,308,cs),
(424,416,o),
(461,498,o),
(461,560,cs),
(461,667,o),
(348,708,o),
(242,708,cs),
(202,708,o),
(162,702,o),
(131,691,cs),
(107,683,o),
(16,526,o),
(45,537,cs),
(93,554,o),
(137,561,o),
(176,561,cs),
(271,561,o),
(332,515,o),
(332,450,cs),
(332,416,o),
(316,377,o),
(280,336,cs)
);
}
);
width = 537;
}
);
unicode = 82;
},
{
glyphname = Rstroke;
kernLeft = R;
kernRight = R;
lastChange = "2024-03-07 20:05:52 +0000";
layers = (
{
anchors = (
{
name = bottom;
pos = (287,0);
},
{
name = top;
pos = (287,700);
}
);
layerId = m01;
shapes = (
{
closed = 1;
nodes = (
(215,581,o),
(214,583,o),
(211,583,cs),
(196,583,o),
(143,464,o),
(145,421,cs),
(150,274,o),
(347,-1,o),
(425,-1,cs),
(428,-1,o),
(431,0,o),
(434,0,c),
(451,6,o),
(497,128,o),
(497,161,cs),
(497,167,o),
(496,170,o),
(494,170,cs),
(493,170,o),
(493,170,o),
(492,170,c),
(488,168,o),
(483,167,o),
(479,167,cs),
(386,167,o),
(220,448,o),
(215,575,cs)
);
},
{
closed = 1;
nodes = (
(59,148,o),
(20,39,o),
(20,8,cs),
(20,2,o),
(21,-1,o),
(24,-1,cs),
(25,-1,o),
(27,0,o),
(29,2,cs),
(47,18,o),
(77,28,o),
(106,28,cs),
(133,28,o),
(159,19,o),
(174,0,cs),
(188,-17,o),
(240,120,o),
(240,159,cs),
(240,163,o),
(239,166,o),
(238,168,c),
(222,188,o),
(195,198,o),
(165,198,cs),
(134,198,o),
(102,187,o),
(79,166,cs)
);
},
{
closed = 1;
nodes = (
(210,573,o),
(201,587,o),
(188,587,cs),
(162,587,o),
(119,528,o),
(116,462,cs),
(108,287,o),
(114,300,o),
(94,63,cs),
(92,50,o),
(98,44,o),
(107,44,cs),
(129,44,o),
(170,76,o),
(172,105,cs),
(194,358,o),
(200,373,o),
(208,540,cs)
);
},
{
closed = 1;
nodes = (
(273,332,o),
(263,311,o),
(263,297,cs),
(263,288,o),
(268,283,o),
(277,283,cs),
(291,283,o),
(316,297,o),
(346,331,cs),
(443,439,o),
(480,520,o),
(480,579,cs),
(480,678,o),
(376,715,o),
(275,715,cs),
(230,715,o),
(185,707,o),
(151,695,cs),
(127,687,o),
(36,530,o),
(65,541,cs),
(117,559,o),
(165,567,o),
(206,567,cs),
(294,567,o),
(350,529,o),
(350,470,cs),
(350,438,o),
(334,400,o),
(298,359,cs)
);
},
{
closed = 1;
nodes = (
(251,218,o),
(290,316,o),
(290,349,cs),
(290,356,o),
(288,360,o),
(285,360,cs),
(274,360,o),
(232,362,o),
(185,363,cs),
(181,363,o),
(175,382,o),
(169,382,cs),
(130,382,o),
(119,384,o),
(87,384,cs),
(70,384,o),
(23,259,o),
(23,224,cs),
(23,218,o),
(24,214,o),
(27,214,cs),
(59,214,o),
(70,213,o),
(109,212,cs),
(117,212,o),
(125,221,o),
(135,221,cs),
(182,221,o),
(224,218,o),
(235,218,cs)
);
}
);
width = 557;
}
);
unicode = 588;
},
{
glyphname = S;
kernLeft = S;
kernRight = S;
lastChange = "2024-03-07 20:05:52 +0000";
layers = (
{
anchors = (
{
name = bottom;
pos = (186,30);
},
{
name = top;
pos = (265,710);
}
);
layerId = m01;
shapes = (
{
closed = 1;
nodes = (
(289,465,o),
(288,462,o),
(288,459,cs),
(288,457,o),
(289,456,o),
(291,456,cs),
(308,456,o),
(394,534,o),
(415,574,cs),
(420,586,o),
(423,599,o),
(423,613,cs),
(423,662,o),
(389,715,o),
(327,715,cs),
(293,715,o),
(251,700,o),
(203,660,cs),
(152,618,o),
(117,565,o),
(132,565,cs),
(137,565,o),
(149,572,o),
(169,588,cs),
(176,594,o),
(185,597,o),
(195,597,cs),
(238,597,o),
(299,551,o),
(299,500,cs),
(299,490,o),
(297,480,o),
(291,470,c)
);
},
{
closed = 1;
nodes = (
(189,629,o),
(188,631,o),
(185,631,cs),
(169,631,o),
(76,545,o),
(60,509,cs),
(51,489,o),
(47,470,o),
(47,453,cs),
(47,388,o),
(107,345,o),
(162,294,cs),
(214,246,o),
(272,207,o),
(272,142,cs),
(272,125,o),
(268,107,o),
(260,86,cs),
(245,49,o),
(370,163,o),
(386,202,cs),
(397,228,o),
(402,250,o),
(402,269,cs),
(402,340,o),
(335,368,o),
(284,416,cs),
(229,467,o),
(176,516,o),
(176,576,cs),
(176,591,o),
(179,606,o),
(186,623,cs)
);
},
{
closed = 1;
nodes = (
(139,235,o),
(138,238,o),
(135,238,cs),
(116,238,o),
(24,152,o),
(10,117,cs),
(7,109,o),
(5,99,o),
(5,90,cs),
(5,42,o),
(45,-16,o),
(112,-16,cs),
(146,-16,o),
(188,0,o),
(235,40,cs),
(285,82,o),
(317,132,o),
(303,132,cs),
(297,132,o),
(284,124,o),
(263,106,cs),
(259,103,o),
(254,102,o),
(247,102,cs),
(209,102,o),
(131,146,o),
(131,203,cs),
(131,211,o),
(133,219,o),
(136,227,cs)
);
}
);
width = 452;
}
);
unicode = 83;
},
{
glyphname = Germandbls;
lastChange = "2024-03-07 20:05:52 +0000";
layers = (
{
layerId = m01;
shapes = (
{
closed = 1;
nodes = (
(222,352,o),
(208,330,o),
(208,318,cs),
(208,314,o),
(210,311,o),
(215,311,cs),
(222,311,o),
(235,318,o),
(254,334,cs),
(274,352,o),
(301,361,o),
(327,361,cs),
(386,361,o),
(446,320,o),
(446,248,cs),
(446,226,o),
(440,201,o),
(427,173,cs),
(422,164,o),
(420,158,o),
(420,154,cs),
(420,152,o),
(421,151,o),
(423,151,cs),
(437,151,o),
(506,227,o),
(529,275,cs),
(545,307,o),
(552,338,o),
(552,365,cs),
(552,428,o),
(511,472,o),
(446,472,cs),
(394,472,o),
(325,444,o),
(248,376,cs)
);
},
{
closed = 1;
nodes = (
(502,229,o),
(509,256,o),
(499,256,cs),
(491,256,o),
(472,238,o),
(447,199,cs),
(422,160,o),
(384,142,o),
(352,142,cs),
(321,142,o),
(296,160,o),
(296,192,cs),
(296,202,o),
(299,214,o),
(304,227,cs),
(318,258,o),
(192,141,o),
(178,107,cs),
(176,103,o),
(175,97,o),
(175,90,cs),
(175,54,o),
(203,-3,o),
(260,-3,cs),
(309,-3,o),
(379,40,o),
(471,181,cs)
);
},
{
closed = 1;
nodes = (
(557,641,o),
(561,654,o),
(561,664,cs),
(561,680,o),
(551,688,o),
(536,688,cs),
(515,688,o),
(487,673,o),
(465,639,cs),
(413,558,o),
(236,364,o),
(229,357,c),
(227,354,o),
(225,352,o),
(225,350,cs),
(225,347,o),
(230,345,o),
(237,345,cs),
(262,345,o),
(324,365,o),
(341,383,cs),
(342,384,o),
(490,536,o),
(547,625,cs)
);
},
{
closed = 1;
nodes = (
(514,563,o),
(608,717,o),
(579,710,cs),
(552,702,o),
(518,700,o),
(480,700,cs),
(392,700,o),
(286,714,o),
(209,714,cs),
(170,714,o),
(139,710,o),
(122,699,cs),
(104,686,o),
(64,572,o),
(64,539,cs),
(64,533,o),
(65,529,o),
(68,529,cs),
(69,529,o),
(70,530,o),
(72,531,cs),
(86,541,o),
(128,543,o),
(182,543,cs),
(318,542,ls),
(383,542,o),
(446,545,o),
(489,556,cs)
);
},
{
closed = 1;
nodes = (
(185,628,o),
(183,630,o),
(180,630,cs),
(162,630,o),
(105,577,o),
(103,554,cs),
(50,9,ls),
(50,3,o),
(52,1,o),
(55,1,cs),
(73,1,o),
(130,55,o),
(132,77,cs),
(185,622,ls)
);
}
);
width = 614;
}
);
unicode = 7838;
},
{
glyphname = T;
kernLeft = T;
kernRight = T;
lastChange = "2024-03-07 20:52:37 +0000";
layers = (
{
anchors = (
{
name = bottom;
pos = (205,0);
},
{
name = center;
pos = (245,350);
},
{
name = top;
pos = (255,713);
}
);
layerId = m01;
shapes = (
{
closed = 1;
nodes = (
(416,560,o),
(456,656,o),
(456,695,cs),
(456,706,o),
(453,712,o),
(447,712,cs),
(445,712,o),
(442,711,o),
(439,710,cs),
(428,705,o),
(408,703,o),
(384,703,cs),
(334,703,o),
(263,710,o),
(202,710,cs),
(151,710,o),
(105,705,o),
(84,686,cs),
(65,670,o),
(35,561,o),
(35,525,cs),
(35,518,o),
(36,514,o),
(38,514,cs),
(40,514,o),
(41,515,o),
(42,516,cs),
(60,532,o),
(103,536,o),
(152,536,cs),
(195,536,o),
(244,533,o),
(287,533,cs),
(329,533,o),
(366,536,o),
(387,546,cs)
);
},
{
closed = 1;
nodes = (
(319,593,o),
(323,603,o),
(323,610,cs),
(323,621,o),
(315,627,o),
(304,627,cs),
(291,627,o),
(275,620,o),
(262,602,cs),
(129,431,o),
(68,235,o),
(68,144,cs),
(68,53,o),
(119,-16,o),
(187,-16,cs),
(194,-16,o),
(201,-16,o),
(209,-14,cs),
(242,-7,o),
(373,106,o),
(335,98,cs),
(332,97,o),
(328,97,o),
(324,97,cs),
(266,97,o),
(199,175,o),
(199,265,cs),
(199,308,o),
(219,464,o),
(310,582,cs)
);
}
);
width = 426;
}
);
unicode = 84;
},
{
glyphname = Thook;
lastChange = "2024-03-07 20:05:52 +0000";
layers = (
{
anchors = (
{
name = bottom;
pos = (331,0);
},
{
name = center;
pos = (371,350);
},
{
name = top;
pos = (371,700);
}
);
layerId = m01;
shapes = (
{
closed = 1;
nodes = (
(542,560,o),
(582,656,o),
(582,695,cs),
(582,706,o),
(579,712,o),
(573,712,cs),
(571,712,o),
(568,711,o),
(565,710,cs),
(548,702,o),
(529,699,o),
(509,699,cs),
(473,699,o),
(432,708,o),
(385,708,cs),
(318,708,o),
(195,628,o),
(70,463,cs),
(45,430,o),
(35,401,o),
(35,377,cs),
(35,329,o),
(73,301,o),
(112,301,cs),
(126,301,o),
(140,305,o),
(153,313,cs),
(181,332,o),
(213,397,o),
(213,422,cs),
(213,428,o),
(211,432,o),
(206,432,cs),
(203,432,o),
(199,431,o),
(193,427,cs),
(185,421,o),
(177,419,o),
(170,419,cs),
(150,419,o),
(135,437,o),
(135,458,cs),
(135,467,o),
(138,476,o),
(144,485,cs),
(173,522,o),
(181,530,o),
(297,530,cs),
(340,530,o),
(378,525,o),
(414,525,cs),
(447,525,o),
(478,529,o),
(513,546,cs)
);
},
{
closed = 1;
nodes = (
(445,593,o),
(449,603,o),
(449,610,cs),
(449,621,o),
(441,627,o),
(430,627,cs),
(417,627,o),
(401,620,o),
(388,602,cs),
(255,431,o),
(194,235,o),
(194,144,cs),
(194,53,o),
(245,-16,o),
(313,-16,cs),
(320,-16,o),
(327,-16,o),
(335,-14,cs),
(368,-7,o),
(499,106,o),
(461,98,cs),
(458,97,o),
(454,97,o),
(450,97,cs),
(392,97,o),
(325,175,o),
(325,265,cs),
(325,308,o),
(345,464,o),
(436,582,cs)
);
}
);
width = 552;
}
);
unicode = 428;
},
{
glyphname = U;
kernLeft = U;
kernRight = U;
lastChange = "2024-03-07 20:05:52 +0000";
layers = (
{
anchors = (
{
name = bottom;
pos = (314,4);
},
{
name = ogonek;
pos = (502,0);
},
{
name = top;
pos = (313,709);
},
{
name = topright;
pos = (489,699);
}
);
layerId = m01;
shapes = (
{
closed = 1;
nodes = (
(403,365,o),
(392,373,o),
(381,373,cs),
(372,373,o),
(363,367,o),
(362,355,cs),
(335,114,o),
(263,124,o),
(251,124,cs),
(212,121,o),
(197,173,o),
(197,240,cs),
(197,257,o),
(198,275,o),
(199,293,cs),
(229,596,ls),
(235,656,o),
(211,709,o),
(170,709,cs),
(164,709,o),
(158,708,o),
(152,706,cs),
(124,696,o),
(30,599,o),
(30,580,cs),
(30,577,o),
(32,576,o),
(38,578,cs),
(44,580,o),
(50,581,o),
(54,581,cs),
(78,581,o),
(86,557,o),
(86,526,cs),
(85,502,l),
(55,199,l),
(54,177,ls),
(54,83,o),
(110,-16,o),
(194,-16,cs),
(324,-16,o),
(387,217,o),
(402,351,cs)
);
},
{
closed = 1;
nodes = (
(425,-1,o),
(541,117,o),
(513,117,cs),
(485,117,o),
(477,152,o),
(477,203,cs),
(477,229,o),
(479,260,o),
(482,293,cs),
(513,596,l),
(514,614,ls),
(514,667,o),
(490,709,o),
(453,709,cs),
(447,709,o),
(441,708,o),
(435,706,cs),
(407,696,o),
(313,599,o),
(313,580,cs),
(313,577,o),
(315,576,o),
(321,578,cs),
(327,580,o),
(333,581,o),
(337,581,cs),
(362,581,o),
(370,557,o),
(370,525,cs),
(369,502,l),
(338,199,ls),
(336,180,o),
(335,162,o),
(335,144,cs),
(335,60,o),
(357,-1,o),
(401,-1,cs)
);
}
);
width = 557;
}
);
unicode = 85;
},
{
glyphname = V;
kernLeft = V;
kernRight = V;
lastChange = "2024-03-07 20:05:52 +0000";
layers = (
{
layerId = m01;
shapes = (
{
closed = 1;
nodes = (
(511,632,o),
(503,635,o),
(492,635,cs),
(466,635,o),
(418,620,o),
(413,605,cs),
(354,404,o),
(263,121,o),
(249,30,cs),
(245,8,o),
(354,111,o),
(357,134,cs),
(367,195,o),
(456,446,o),
(509,625,cs)
);
},
{
closed = 1;
nodes = (
(537,567,o),
(575,675,o),
(575,706,cs),
(575,711,o),
(574,714,o),
(572,714,cs),
(570,714,o),
(568,713,o),
(566,711,cs),
(548,695,o),
(518,685,o),
(489,685,cs),
(462,685,o),
(436,694,o),
(421,713,cs),
(408,729,o),
(355,596,o),
(355,555,cs),
(355,551,o),
(355,547,o),
(357,545,cs),
(373,525,o),
(400,515,o),
(430,515,cs),
(461,515,o),
(493,526,o),
(516,547,cs)
);
},
{
closed = 1;
nodes = (
(255,5,o),
(363,123,o),
(340,123,cs),
(338,123,o),
(335,123,o),
(331,121,cs),
(319,115,o),
(253,487,o),
(225,635,cs),
(217,682,o),
(180,713,o),
(147,713,cs),
(143,713,o),
(138,712,o),
(134,711,cs),
(102,701,o),
(-21,571,o),
(18,583,cs),
(23,585,o),
(29,585,o),
(33,585,cs),
(64,585,o),
(88,556,o),
(97,511,cs),
(123,371,o),
(173,-33,o),
(213,-15,cs)
);
}
);
width = 550;
}
);
unicode = 86;
},
{
glyphname = W;
kernLeft = W;
kernRight = W;
lastChange = "2024-03-07 20:05:52 +0000";
layers = (
{
anchors = (
{
name = bottom;
pos = (360,0);
},
{
name = top;
pos = (390,710);
}
);
layerId = m01;
shapes = (
{
closed = 1;
nodes = (
(382,-18,o),
(510,110,o),
(500,127,cs),
(442,232,o),
(457,651,o),
(399,703,cs),
(385,716,o),
(264,597,o),
(279,583,cs),
(331,535,o),
(312,110,o),
(372,1,cs)
);
},
{
closed = 1;
nodes = (
(674,624,o),
(671,627,o),
(664,627,cs),
(641,627,o),
(575,594,o),
(568,574,cs),
(484,331,o),
(408,37,o),
(405,26,cs),
(397,-1,o),
(512,110,o),
(519,138,cs),
(522,149,o),
(589,376,o),
(672,618,cs)
);
},
{
closed = 1;
nodes = (
(421,615,o),
(418,618,o),
(410,618,cs),
(388,618,o),
(333,591,o),
(325,571,cs),
(284,463,o),
(181,70,o),
(180,70,c),
(167,53,o),
(161,44,o),
(161,40,cs),
(161,28,o),
(218,73,o),
(260,126,cs),
(295,171,o),
(391,535,o),
(419,609,cs)
);
},
{
closed = 1;
nodes = (
(128,-19,o),
(256,109,o),
(249,128,cs),
(196,275,o),
(238,711,o),
(138,711,cs),
(134,711,o),
(130,711,o),
(126,709,c),
(96,700,o),
(-12,588,o),
(14,588,cs),
(15,588,o),
(17,588,o),
(18,589,c),
(21,590,o),
(24,590,o),
(27,590,cs),
(111,590,o),
(57,176,o),
(121,2,cs)
);
},
{
closed = 1;
nodes = (
(693,568,o),
(731,677,o),
(731,707,cs),
(731,713,o),
(730,715,o),
(728,715,cs),
(727,715,o),
(725,714,o),
(722,712,c),
(705,696,o),
(674,686,o),
(643,686,cs),
(615,686,o),
(587,695,o),
(573,714,cs),
(560,730,o),
(507,597,o),
(507,556,cs),
(507,552,o),
(507,548,o),
(509,546,cs),
(524,526,o),
(553,516,o),
(584,516,cs),
(616,516,o),
(650,527,o),
(672,548,cs)
);
}
);
width = 701;
}
);
unicode = 87;
},
{
glyphname = Whook;
lastChange = "2024-03-07 20:05:52 +0000";
layers = (
{
anchors = (
{
name = bottom;
pos = (350,0);
},
{
name = top;
pos = (380,710);
}
);
layerId = m01;
shapes = (
{
closed = 1;
nodes = (
(372,-18,o),
(500,110,o),
(490,127,cs),
(432,232,o),
(447,651,o),
(389,703,cs),
(375,716,o),
(254,597,o),
(269,583,cs),
(321,535,o),
(302,110,o),
(362,1,cs)
);
},
{
closed = 1;
nodes = (
(669,640,o),
(666,643,o),
(659,643,cs),
(636,643,o),
(570,610,o),
(563,590,cs),
(479,347,o),
(398,37,o),
(395,26,cs),
(387,-1,o),
(501,110,o),
(509,138,cs),
(512,149,o),
(584,392,o),
(667,634,cs)
);
},
{
closed = 1;
nodes = (
(411,615,o),
(408,618,o),
(400,618,cs),
(378,618,o),
(323,591,o),
(315,571,cs),
(274,463,o),
(171,70,o),
(170,70,c),
(157,53,o),
(151,44,o),
(151,40,cs),
(151,28,o),
(208,73,o),
(250,126,cs),
(285,171,o),
(381,535,o),
(409,609,cs)
);
},
{
closed = 1;
nodes = (
(118,-19,o),
(246,109,o),
(239,128,cs),
(186,275,o),
(228,711,o),
(128,711,cs),
(124,711,o),
(120,711,o),
(116,709,c),
(86,700,o),
(-22,588,o),
(4,588,cs),
(5,588,o),
(7,588,o),
(8,589,c),
(11,590,o),
(14,590,o),
(17,590,cs),
(101,590,o),
(47,176,o),
(111,2,cs)
);
},
{
closed = 1;
nodes = (
(582,540,o),
(685,640,o),
(665,643,cs),
(625,651,o),
(612,669,o),
(612,690,cs),
(612,723,o),
(646,762,o),
(654,771,cs),
(672,789,o),
(680,802,o),
(680,810,cs),
(680,815,o),
(676,818,o),
(670,818,cs),
(656,818,o),
(630,805,o),
(602,777,cs),
(546,721,o),
(508,655,o),
(508,606,cs),
(508,574,o),
(525,550,o),
(565,543,cs)
);
},
{
closed = 1;
nodes = (
(646,823,o),
(584,765,o),
(584,745,cs),
(584,740,o),
(587,738,o),
(593,738,cs),
(595,738,o),
(596,739,o),
(598,739,cs),
(610,741,o),
(620,742,o),
(630,742,cs),
(667,742,o),
(687,727,o),
(687,702,cs),
(687,698,o),
(687,693,o),
(685,688,cs),
(684,683,o),
(686,681,o),
(690,681,cs),
(709,681,o),
(779,735,o),
(784,755,cs),
(786,763,o),
(787,770,o),
(787,777,cs),
(787,811,o),
(762,832,o),
(714,832,cs),
(703,832,o),
(690,831,o),
(677,829,cs)
);
}
);
width = 787;
}
);
unicode = 11378;
},
{
glyphname = X;
kernLeft = X;
kernRight = X;
lastChange = "2024-03-07 20:05:52 +0000";
layers = (
{
layerId = m01;
shapes = (
{
closed = 1;
nodes = (
(471,598,o),
(464,601,o),
(451,601,cs),
(423,601,o),
(369,586,o),
(358,570,cs),
(338,541,o),
(88,128,o),
(88,128,c),
(83,120,o),
(90,117,o),
(102,117,cs),
(130,117,o),
(187,133,o),
(196,149,cs),
(209,170,o),
(436,545,o),
(466,590,cs)
);
},
{
closed = 1;
nodes = (
(398,-6,o),
(479,102,o),
(479,124,cs),
(479,128,o),
(477,129,o),
(472,127,cs),
(410,105,o),
(250,715,o),
(164,715,cs),
(161,715,o),
(159,714,o),
(156,713,c),
(126,697,o),
(33,571,o),
(54,571,cs),
(55,571,o),
(57,572,o),
(60,573,c),
(121,604,o),
(294,-42,o),
(372,-15,cs)
);
},
{
closed = 1;
nodes = (
(85,-47,o),
(198,91,o),
(200,122,cs),
(202,170,o),
(143,241,o),
(106,250,cs),
(88,255,o),
(-24,113,o),
(-2,108,cs),
(21,101,o),
(88,26,o),
(86,-12,cs)
);
},
{
closed = 1;
nodes = (
(454,448,o),
(565,591,o),
(543,596,cs),
(514,604,o),
(453,677,o),
(455,716,cs),
(456,749,o),
(343,616,o),
(341,582,cs),
(339,534,o),
(403,462,o),
(435,454,cs)
);
}
);
width = 546;
}
);
unicode = 88;
},
{
glyphname = Y;
kernLeft = Y;
kernRight = Y;
lastChange = "2024-03-07 20:05:52 +0000";
layers = (
{
anchors = (
{
name = bottom;
pos = (167,6);
},
{
name = top;
pos = (320,710);
},
{
name = topleft;
pos = (14,700);
}
);
layerId = m01;
shapes = (
{
closed = 1;
nodes = (
(509,638,o),
(510,643,o),
(510,648,cs),
(510,660,o),
(503,665,o),
(493,665,cs),
(464,665,o),
(407,624,o),
(393,579,cs),
(389,566,o),
(158,112,o),
(150,98,cs),
(144,86,o),
(141,77,o),
(141,70,cs),
(141,59,o),
(149,54,o),
(160,54,cs),
(185,54,o),
(231,82,o),
(254,126,cs),
(256,130,o),
(494,592,o),
(507,631,cs)
);
},
{
closed = 1;
nodes = (
(524,567,o),
(562,675,o),
(562,706,cs),
(562,711,o),
(561,714,o),
(559,714,cs),
(557,714,o),
(555,713,o),
(553,711,cs),
(535,695,o),
(505,685,o),
(476,685,cs),
(449,685,o),
(423,694,o),
(408,713,cs),
(395,729,o),
(342,596,o),
(342,555,cs),
(342,551,o),
(342,547,o),
(344,545,cs),
(360,525,o),
(387,515,o),
(417,515,cs),
(448,515,o),
(480,526,o),
(503,547,cs)
);
},
{
closed = 1;
nodes = (
(267,333,o),
(359,437,o),
(338,437,cs),
(335,437,o),
(332,436,o),
(326,433,cs),
(272,405,o),
(225,711,o),
(155,711,cs),
(152,711,o),
(149,710,o),
(146,709,cs),
(112,696,o),
(5,581,o),
(28,581,cs),
(30,581,o),
(32,582,o),
(34,583,cs),
(88,604,o),
(127,306,o),
(206,306,cs),
(212,306,o),
(218,308,o),
(224,311,cs)
);
},
{
closed = 1;
nodes = (
(118,148,o),
(79,39,o),
(79,8,cs),
(79,2,o),
(80,-1,o),
(83,-1,cs),
(84,-1,o),
(86,0,o),
(88,2,cs),
(106,18,o),
(136,28,o),
(165,28,cs),
(192,28,o),
(218,19,o),
(233,0,cs),
(247,-17,o),
(299,120,o),
(299,159,cs),
(299,163,o),
(298,166,o),
(297,168,c),
(281,188,o),
(254,198,o),
(224,198,cs),
(193,198,o),
(161,187,o),
(138,166,cs)
);
}
);
width = 541;
}
);
unicode = 89;
},
{
glyphname = Yhook;
lastChange = "2024-03-07 20:05:52 +0000";
layers = (
{
anchors = (
{
name = bottom;
pos = (142,6);
},
{
name = top;
pos = (295,710);
},
{
name = topleft;
pos = (-11,700);
}
);
layerId = m01;
shapes = (
{
closed = 1;
nodes = (
(490,641,o),
(487,644,o),
(481,644,cs),
(455,644,o),
(369,589,o),
(360,560,cs),
(352,536,o),
(129,106,o),
(126,99,cs),
(119,87,o),
(117,77,o),
(117,70,cs),
(117,58,o),
(124,53,o),
(135,53,cs),
(161,53,o),
(206,81,o),
(228,125,cs),
(234,137,o),
(480,608,o),
(488,634,cs)
);
},
{
closed = 1;
nodes = (
(242,333,o),
(334,437,o),
(313,437,cs),
(310,437,o),
(307,436,o),
(301,433,cs),
(247,405,o),
(200,711,o),
(130,711,cs),
(127,711,o),
(124,710,o),
(121,709,cs),
(87,696,o),
(-20,581,o),
(3,581,cs),
(5,581,o),
(7,582,o),
(9,583,cs),
(63,604,o),
(102,306,o),
(181,306,cs),
(187,306,o),
(193,308,o),
(199,311,cs)
);
},
{
closed = 1;
nodes = (
(93,148,o),
(54,39,o),
(54,8,cs),
(54,2,o),
(55,-1,o),
(58,-1,cs),
(59,-1,o),
(61,0,o),
(63,2,cs),
(81,18,o),
(111,28,o),
(140,28,cs),
(167,28,o),
(193,19,o),
(208,0,cs),
(222,-17,o),
(274,120,o),
(274,159,cs),
(274,163,o),
(273,166,o),
(272,168,c),
(256,188,o),
(229,198,o),
(199,198,cs),
(168,198,o),
(136,187,o),
(113,166,cs)
);
},
{
closed = 1;
nodes = (
(405,540,o),
(508,640,o),
(488,643,cs),
(448,651,o),
(435,669,o),
(435,690,cs),
(435,723,o),
(469,762,o),
(477,771,cs),
(495,789,o),
(503,802,o),
(503,810,cs),
(503,815,o),
(499,818,o),
(493,818,cs),
(479,818,o),
(453,805,o),
(425,777,cs),
(369,721,o),
(331,655,o),
(331,606,cs),
(331,574,o),
(348,550,o),
(388,543,cs)
);
},
{
closed = 1;
nodes = (
(469,823,o),
(408,765,o),
(408,745,cs),
(408,741,o),
(411,739,o),
(417,739,cs),
(422,739,l),
(433,741,o),
(444,742,o),
(453,742,cs),
(490,742,o),
(511,727,o),
(511,702,cs),
(511,697,o),
(508,691,o),
(508,685,cs),
(508,682,o),
(510,681,o),
(513,681,cs),
(532,681,o),
(602,735,o),
(607,756,cs),
(609,763,o),
(610,770,o),
(610,777,cs),
(610,810,o),
(585,832,o),
(537,832,cs),
(526,832,o),
(513,831,o),
(500,829,cs)
);
}
);
width = 610;
}
);
unicode = 435;
},
{
glyphname = Z;
kernLeft = Z;
kernRight = Z;
lastChange = "2024-03-07 20:05:52 +0000";
layers = (
{
anchors = (
{
name = bottom;
pos = (234,0);
},
{
name = center;
pos = (234,350);
},
{
name = top;
pos = (294,710);
}
);
layerId = m01;
shapes = (
{
closed = 1;
nodes = (
(37,134,o),
(5,51,o),
(5,15,cs),
(5,5,o),
(8,-2,o),
(14,-2,cs),
(18,-2,o),
(23,0,o),
(30,6,cs),
(47,21,o),
(68,26,o),
(92,26,cs),
(146,26,o),
(212,-2,o),
(272,-2,cs),
(302,-2,o),
(330,5,o),
(354,25,cs),
(372,40,o),
(404,149,o),
(404,185,cs),
(404,193,o),
(403,197,o),
(400,197,cs),
(399,197,o),
(397,196,o),
(396,195,cs),
(375,178,o),
(352,172,o),
(329,172,cs),
(279,172,o),
(224,197,o),
(167,197,cs),
(134,197,o),
(100,188,o),
(66,160,cs)
);
},
{
closed = 1;
nodes = (
(103,664,o),
(65,558,o),
(65,527,cs),
(65,522,o),
(66,519,o),
(69,519,cs),
(70,519,o),
(73,521,o),
(76,524,cs),
(90,539,o),
(114,543,o),
(144,543,cs),
(193,543,o),
(258,531,o),
(320,531,cs),
(347,531,o),
(374,533,o),
(399,540,cs),
(417,545,o),
(463,666,o),
(463,700,cs),
(463,706,o),
(462,710,o),
(458,710,cs),
(457,710,l),
(434,703,o),
(411,701,o),
(386,701,cs),
(326,701,o),
(263,715,o),
(211,715,cs),
(175,715,o),
(145,708,o),
(124,686,cs)
);
},
{
closed = 1;
nodes = (
(427,590,o),
(417,593,o),
(401,593,cs),
(374,593,o),
(332,582,o),
(326,568,cs),
(268,426,o),
(81,211,o),
(46,100,cs),
(44,92,o),
(54,89,o),
(68,89,cs),
(96,89,o),
(140,101,o),
(144,114,cs),
(177,219,o),
(364,434,o),
(424,582,cs)
);
},
{
closed = 1;
nodes = (
(139,447,o),
(97,331,o),
(97,299,cs),
(97,294,o),
(98,291,o),
(101,291,cs),
(102,291,o),
(103,291,o),
(104,292,cs),
(110,296,o),
(116,298,o),
(124,298,cs),
(168,298,o),
(243,248,o),
(292,248,cs),
(299,248,o),
(306,249,o),
(312,252,cs),
(330,259,o),
(375,377,o),
(375,412,cs),
(375,418,o),
(374,421,o),
(371,421,cs),
(370,421,o),
(369,421,o),
(368,420,c),
(364,418,o),
(358,418,o),
(353,418,cs),
(309,418,o),
(236,467,o),
(186,467,cs),
(175,467,o),
(166,465,o),
(158,460,cs)
);
}
);
width = 468;
}
);
unicode = 90;
},
{
glyphname = Saltillo;
lastChange = "2024-03-07 19:55:38 +0000";
layers = (
{
layerId = m01;
shapes = (
{
closed = 1;
nodes = (
(142,711,o),
(8,581,o),
(37,581,cs),
(42,581,o),
(44,575,o),
(44,567,cs),
(44,558,o),
(42,545,o),
(41,533,cs),
(26,312,ls),
(26,297,o),
(31,241,o),
(54,246,cs),
(86,252,o),
(212,385,o),
(176,378,cs),
(172,377,o),
(171,388,o),
(171,400,cs),
(172,424,ls),
(176,497,o),
(182,571,o),
(187,645,cs),
(188,665,o),
(186,711,o),
(165,711,cs)
);
}
);
width = 195;
}
);
unicode = 42891;
},
{
glyphname = a;
kernLeft = a;
kernRight = a;
lastChange = "2024-03-07 20:05:52 +0000";
layers = (
{
anchors = (
{
name = bottom;
pos = (178,1);
},
{
name = ogonek;
pos = (379,0);
},
{
name = top;
pos = (303,710);
}
);
background = {
shapes = (
{
closed = 1;
nodes = (
);
}
);
};
guides = (
{
pos = (243,0);
},
{
pos = (300,715);
}
);
layerId = m01;
shapes = (
{
closed = 1;
nodes = (
(299,-6,o),
(440,140,o),
(412,146,cs),
(402,149,o),
(397,168,o),
(397,204,cs),
(397,250,o),
(404,323,o),
(411,428,cs),
(415,484,o),
(419,508,o),
(425,579,cs),
(429,631,o),
(409,714,o),
(347,714,cs),
(306,714,o),
(247,677,o),
(165,571,cs),
(142,542,o),
(133,522,o),
(133,512,cs),
(133,507,o),
(135,505,o),
(139,505,cs),
(152,505,o),
(180,526,o),
(213,569,cs),
(213,569,o),
(216,570,o),
(221,570,cs),
(239,570,o),
(281,559,o),
(281,472,c),
(279,445,l),
(267,292,ls),
(259,186,o),
(252,113,o),
(252,66,cs),
(252,24,o),
(258,4,o),
(276,0,cs)
);
},
{
closed = 1;
nodes = (
(57,398,o),
(10,273,o),
(10,238,cs),
(10,232,o),
(11,228,o),
(14,228,cs),
(411,229,ls),
(428,229,o),
(475,353,o),
(475,389,cs),
(475,395,o),
(474,399,o),
(471,399,cs),
(74,398,ls)
);
},
{
closed = 1;
nodes = (
(229,606,o),
(232,614,o),
(232,619,cs),
(232,622,o),
(230,624,o),
(227,624,cs),
(211,624,o),
(157,573,o),
(132,526,cs),
(117,498,o),
(100,454,o),
(93,407,cs),
(78,308,o),
(63,154,o),
(45,16,cs),
(44,3,o),
(48,-2,o),
(56,-2,cs),
(80,-2,o),
(132,45,o),
(137,78,cs),
(155,224,o),
(172,385,o),
(187,489,cs),
(194,536,o),
(221,592,o),
(222,594,cs)
);
}
);
width = 505;
}
);
unicode = 97;
},
{
glyphname = ae;
kernLeft = a;
kernRight = e;
lastChange = "2024-03-07 20:05:52 +0000";
layers = (
{
layerId = m01;
shapes = (
{
closed = 1;
nodes = (
(299,-6,o),
(440,140,o),
(412,146,cs),
(402,149,o),
(397,168,o),
(397,204,cs),
(397,250,o),
(404,323,o),
(411,428,cs),
(415,484,o),
(419,508,o),
(425,579,cs),
(429,631,o),
(409,714,o),
(347,714,cs),
(306,714,o),
(247,677,o),
(165,571,cs),
(142,542,o),
(133,522,o),
(133,512,cs),
(133,507,o),
(135,505,o),
(139,505,cs),
(152,505,o),
(180,526,o),
(213,569,cs),
(213,569,o),
(216,570,o),
(221,570,cs),
(239,570,o),
(281,559,o),
(281,472,c),
(279,445,l),
(267,292,ls),
(259,186,o),
(252,113,o),
(252,66,cs),
(252,24,o),
(258,4,o),
(276,0,cs)
);
},
{
closed = 1;
nodes = (
(56,397,o),
(10,273,o),
(10,237,cs),
(10,231,o),
(11,227,o),
(14,227,cs),
(357,228,ls),
(374,228,o),
(421,351,o),
(421,388,cs),
(421,394,o),
(420,398,o),
(417,398,cs),
(74,397,ls)
);
},
{
closed = 1;
nodes = (
(229,606,o),
(232,614,o),
(232,619,cs),
(232,622,o),
(230,624,o),
(227,624,cs),
(211,624,o),
(157,573,o),
(132,526,cs),
(117,498,o),
(100,454,o),
(93,407,cs),
(78,308,o),
(63,154,o),
(45,16,cs),
(44,3,o),
(48,-2,o),
(56,-2,cs),
(80,-2,o),
(132,45,o),
(137,78,cs),
(155,224,o),
(172,385,o),
(187,489,cs),
(194,536,o),
(221,592,o),
(222,594,cs)
);
},
{
closed = 1;
nodes = (
(552,455,o),
(679,583,o),
(672,602,cs),
(643,681,o),
(591,714,o),
(546,714,cs),
(532,714,o),
(520,711,o),
(508,706,cs),
(296,606,o),
(294,144,o),
(275,45,cs),
(273,33,o),
(272,24,o),
(272,18,cs),
(272,5,o),
(276,1,o),
(280,1,cs),
(283,1,o),
(286,3,o),
(286,4,c),
(314,14,o),
(338,19,o),
(365,19,cs),
(379,19,o),
(395,17,o),
(412,14,cs),
(446,8,o),
(487,-4,o),
(527,-4,cs),
(559,-4,o),
(590,3,o),
(618,26,cs),
(646,49,o),
(674,132,o),
(674,171,cs),
(674,184,o),
(671,192,o),
(664,192,cs),
(660,192,o),
(656,190,o),
(650,186,c),
(640,177,o),
(613,174,o),
(583,174,cs),
(546,174,o),
(503,178,o),
(472,184,cs),
(449,188,o),
(429,191,o),
(408,191,cs),
(389,191,o),
(370,188,o),
(348,180,c),
(359,139,l),
(408,391,o),
(424,538,o),
(458,554,cs),
(466,558,o),
(473,561,o),
(481,561,cs),
(499,561,o),
(519,544,o),
(544,476,cs)
);
},
{
closed = 1;
nodes = (
(300,430,o),
(254,306,o),
(254,270,cs),
(254,264,o),
(255,260,o),
(258,260,cs),
(554,261,ls),
(571,261,o),
(618,384,o),
(618,421,cs),
(618,427,o),
(617,431,o),
(614,431,cs),
(318,430,ls)
);
}
);
width = 714;
}
);
unicode = 230;
},
{
glyphname = b;
kernLeft = b;
kernRight = b;
lastChange = "2024-03-07 20:05:52 +0000";
layers = (
{
anchors = (
{
name = bottom;
pos = (211,0);
},
{
name = center;
pos = (251,250);
},
{
name = left;
pos = (210,557);
},
{
name = top;
pos = (251,500);
}
);
guides = (
{
pos = (310,715);
}
);
layerId = m01;
shapes = (
{
closed = 1;
nodes = (
(205,588,o),
(207,593,o),
(207,596,cs),
(207,603,o),
(203,605,o),
(197,605,cs),
(171,605,o),
(101,557,o),
(83,518,cs),
(37,415,o),
(30,274,o),
(30,191,cs),
(30,149,o),
(32,122,o),
(32,119,cs),
(32,110,o),
(37,107,o),
(44,107,cs),
(73,107,o),
(143,162,o),
(142,193,cs),
(142,194,o),
(148,459,o),
(203,582,cs)
);
},
{
closed = 1;
nodes = (
(57,255,o),
(55,228,o),
(55,205,cs),
(55,176,o),
(59,154,o),
(65,154,cs),
(69,154,o),
(74,163,o),
(79,184,cs),
(96,257,o),
(185,302,o),
(262,302,cs),
(326,302,o),
(381,272,o),
(381,202,cs),
(381,182,o),
(376,159,o),
(367,133,cs),
(365,128,o),
(364,124,o),
(364,122,cs),
(364,119,o),
(365,118,o),
(367,118,cs),
(383,118,o),
(459,205,o),
(475,249,cs),
(485,275,o),
(490,299,o),
(490,320,cs),
(490,413,o),
(405,462,o),
(311,462,cs),
(208,462,o),
(93,403,o),
(63,278,cs)
);
},
{
closed = 1;
nodes = (
(195,403,o),
(174,365,o),
(174,343,cs),
(174,333,o),
(179,326,o),
(189,326,cs),
(198,326,o),
(212,331,o),
(231,345,cs),
(382,456,o),
(437,552,o),
(437,618,cs),
(437,680,o),
(389,716,o),
(326,716,cs),
(238,716,o),
(121,645,o),
(66,473,cs),
(60,454,o),
(57,438,o),
(57,424,cs),
(57,396,o),
(69,380,o),
(85,380,cs),
(104,380,o),
(129,403,o),
(146,455,cs),
(167,524,o),
(233,556,o),
(276,556,cs),
(299,556,o),
(315,547,o),
(315,529,cs),
(315,508,o),
(293,475,o),
(233,431,cs)
);
},
{
closed = 1;
nodes = (
(479,270,o),
(484,294,o),
(484,308,cs),
(484,316,o),
(482,321,o),
(479,321,cs),
(472,321,o),
(458,301,o),
(443,257,cs),
(416,184,o),
(337,150,o),
(265,150,cs),
(196,150,o),
(134,182,o),
(134,240,cs),
(134,256,o),
(139,274,o),
(150,295,cs),
(156,307,o),
(159,314,o),
(159,318,cs),
(159,321,o),
(158,322,o),
(156,322,cs),
(142,322,o),
(81,258,o),
(52,203,cs),
(38,177,o),
(32,151,o),
(32,127,cs),
(32,46,o),
(104,-14,o),
(193,-14,cs),
(288,-14,o),
(402,54,o),
(467,237,cs)
);
}
);
width = 531;
}
);
unicode = 98;
},
{
glyphname = bhook;
lastChange = "2024-03-07 20:05:52 +0000";
layers = (
{
anchors = (
{
name = bottom;
pos = (394,0);
},
{
name = center;
pos = (434,250);
},
{
name = left;
pos = (393,557);
},
{
name = top;
pos = (434,500);
}
);
layerId = m01;
shapes = (
{
closed = 1;
nodes = (
(388,588,o),
(390,593,o),
(390,596,cs),
(390,603,o),
(386,605,o),
(380,605,cs),
(354,605,o),
(284,557,o),
(266,518,cs),
(220,415,o),
(213,274,o),
(213,191,cs),
(213,149,o),
(215,122,o),
(215,119,cs),
(215,110,o),
(220,107,o),
(227,107,cs),
(256,107,o),
(326,162,o),
(325,193,cs),
(325,194,o),
(331,459,o),
(386,582,cs)
);
},
{
closed = 1;
nodes = (
(240,255,o),
(238,228,o),
(238,205,cs),
(238,176,o),
(242,154,o),
(248,154,cs),
(252,154,o),
(257,163,o),
(262,184,cs),
(279,257,o),
(368,302,o),
(445,302,cs),
(509,302,o),
(564,272,o),
(564,202,cs),
(564,182,o),
(559,159,o),
(550,133,cs),
(548,128,o),
(547,124,o),
(547,122,cs),
(547,119,o),
(548,118,o),
(550,118,cs),
(566,118,o),
(642,205,o),
(658,249,cs),
(668,275,o),
(673,299,o),
(673,320,cs),
(673,413,o),
(588,462,o),
(494,462,cs),
(391,462,o),
(276,403,o),
(246,278,cs)
);
},
{
closed = 1;
nodes = (
(378,403,o),
(357,365,o),
(357,343,cs),
(357,333,o),
(362,326,o),
(372,326,cs),
(381,326,o),
(395,331,o),
(414,345,cs),
(565,456,o),
(620,552,o),
(620,618,cs),
(620,680,o),
(572,716,o),
(509,716,cs),
(421,716,o),
(304,645,o),
(249,473,cs),
(243,454,o),
(240,438,o),
(240,424,cs),
(240,396,o),
(252,380,o),
(268,380,cs),
(287,380,o),
(312,403,o),
(329,455,cs),
(350,524,o),
(416,556,o),
(459,556,cs),
(482,556,o),
(498,547,o),
(498,529,cs),
(498,508,o),
(476,475,o),
(416,431,cs)
);
},
{
closed = 1;
nodes = (
(662,270,o),
(667,294,o),
(667,308,cs),
(667,316,o),
(665,321,o),
(662,321,cs),
(655,321,o),
(641,301,o),
(626,257,cs),
(599,184,o),
(520,150,o),
(448,150,cs),
(379,150,o),
(317,182,o),
(317,240,cs),
(317,256,o),
(322,274,o),
(333,295,cs),
(339,307,o),
(342,314,o),
(342,318,cs),
(342,321,o),
(341,322,o),
(339,322,cs),
(325,322,o),
(264,258,o),
(235,203,cs),
(221,177,o),
(215,151,o),
(215,127,cs),
(215,46,o),
(287,-14,o),
(376,-14,cs),
(471,-14,o),
(585,54,o),
(650,237,cs)
);
},
{
closed = 1;
nodes = (
(287,485,o),
(367,620,o),
(351,631,cs),
(340,639,o),
(322,643,o),
(299,643,cs),
(227,643,o),
(106,601,o),
(20,479,cs),
(6,460,o),
(0,443,o),
(0,427,cs),
(0,377,o),
(59,346,o),
(108,346,cs),
(120,346,o),
(131,348,o),
(142,351,c),
(167,361,o),
(207,435,o),
(207,464,cs),
(207,471,o),
(205,475,o),
(199,475,cs),
(197,475,o),
(195,474,o),
(193,474,c),
(171,465,o),
(141,459,o),
(117,459,cs),
(95,459,o),
(79,464,o),
(79,478,cs),
(79,484,o),
(82,492,o),
(89,502,cs),
(99,516,o),
(125,537,o),
(165,537,cs),
(193,537,o),
(228,527,o),
(271,497,cs)
);
}
);
width = 673;
}
);
unicode = 595;
},
{
glyphname = c;
kernLeft = c;
kernRight = c;
lastChange = "2024-03-07 20:05:52 +0000";
layers = (
{
anchors = (
{
name = bottom;
pos = (242,0);
},
{
name = top;
pos = (355,715);
}
);
guides = (
{
pos = (324,715);
}
);
layerId = m01;
shapes = (
{
closed = 1;
nodes = (
(239,577,o),
(247,595,o),
(247,606,cs),
(247,613,o),
(243,616,o),
(237,616,cs),
(220,616,o),
(185,592,o),
(151,545,cs),
(65,430,o),
(30,311,o),
(30,213,cs),
(30,80,o),
(95,-16,o),
(187,-16,cs),
(240,-16,o),
(302,16,o),
(366,91,cs),
(405,137,o),
(426,186,o),
(426,210,cs),
(426,219,o),
(423,224,o),
(417,224,cs),
(408,224,o),
(392,213,o),
(368,185,cs),
(343,156,o),
(316,144,o),
(291,144,cs),
(220,144,o),
(157,243,o),
(157,360,cs),
(157,423,o),
(175,491,o),
(219,551,cs)
);
},
{
closed = 1;
nodes = (
(343,483,o),
(470,610,o),
(461,628,cs),
(448,653,o),
(419,715,o),
(361,715,cs),
(331,715,o),
(294,698,o),
(249,652,cs),
(197,600,o),
(163,532,o),
(180,532,cs),
(186,532,o),
(198,540,o),
(217,560,cs),
(225,567,o),
(234,571,o),
(245,571,cs),
(274,571,o),
(312,543,o),
(333,502,cs)
);
}
);
width = 481;
}
);
unicode = 99;
},
{
glyphname = d;
kernLeft = d;
kernRight = d;
lastChange = "2024-03-07 20:05:52 +0000";
layers = (
{
anchors = (
{
name = bottom;
pos = (235,0);
},
{
name = center;
pos = (103,310);
},
{
name = top;
pos = (235,500);
},
{
name = topright;
pos = (471,714);
}
);
guides = (
{
pos = (295,715);
}
);
layerId = m01;
shapes = (
{
closed = 1;
nodes = (
(124,725,o),
(47,562,o),
(65,553,cs),
(319,413,o),
(357,262,o),
(357,222,cs),
(357,217,o),
(357,214,o),
(356,213,c),
(344,188,o),
(339,170,o),
(339,159,cs),
(339,147,o),
(344,141,o),
(352,141,cs),
(369,141,o),
(402,170,o),
(428,223,cs),
(451,271,o),
(462,315,o),
(462,356,cs),
(462,495,o),
(339,607,o),
(141,715,cs)
);
},
{
closed = 1;
nodes = (
(170,576,o),
(164,579,o),
(155,579,cs),
(132,579,o),
(88,561,o),
(87,546,cs),
(47,90,ls),
(46,84,o),
(52,81,o),
(60,81,cs),
(83,81,o),
(128,99,o),
(129,114,cs),
(169,570,ls)
);
},
{
closed = 1;
nodes = (
(50,232,o),
(0,90,o),
(0,48,cs),
(0,42,o),
(1,38,o),
(3,37,cs),
(45,7,o),
(93,-15,o),
(146,-15,cs),
(218,-15,o),
(300,27,o),
(385,152,cs),
(405,180,o),
(413,204,o),
(413,220,cs),
(413,233,o),
(407,241,o),
(398,241,cs),
(386,241,o),
(367,229,o),
(347,198,cs),
(329,172,o),
(293,153,o),
(245,153,cs),
(196,153,o),
(135,172,o),
(65,221,cs)
);
}
);
width = 512;
}
);
unicode = 100;
},
{
glyphname = dhook;
lastChange = "2024-03-07 20:05:52 +0000";
layers = (
{
anchors = (
{
name = bottom;
pos = (411,0);
},
{
name = center;
pos = (279,310);
},
{
name = top;
pos = (411,500);
},
{
name = topright;
pos = (647,714);
}
);
layerId = m01;
shapes = (
{
closed = 1;
nodes = (
(520,188,o),
(515,170,o),
(515,159,cs),
(515,147,o),
(520,141,o),
(528,141,cs),
(545,141,o),
(578,170,o),
(604,223,cs),
(625,267,o),
(635,308,o),
(635,346,cs),
(635,491,o),
(501,601,o),
(350,656,cs),
(346,657,o),
(339,658,o),
(330,658,cs),
(273,658,o),
(122,621,o),
(21,479,cs),
(6,459,o),
(0,441,o),
(0,425,cs),
(0,374,o),
(66,346,o),
(113,346,cs),
(125,346,o),
(135,348,o),
(143,351,cs),
(169,361,o),
(208,435,o),
(208,463,cs),
(208,470,o),
(206,474,o),
(200,474,cs),
(198,474,o),
(196,474,o),
(194,473,cs),
(170,464,o),
(144,458,o),
(123,458,cs),
(99,458,o),
(81,465,o),
(81,480,cs),
(81,486,o),
(84,493,o),
(90,501,cs),
(99,513,o),
(116,522,o),
(145,522,cs),
(174,522,o),
(216,513,o),
(274,492,cs),
(502,409,o),
(540,228,o),
(532,213,cs)
);
},
{
closed = 1;
nodes = (
(346,576,o),
(340,579,o),
(331,579,cs),
(308,579,o),
(264,561,o),
(263,546,cs),
(223,90,ls),
(222,84,o),
(228,81,o),
(236,81,cs),
(259,81,o),
(304,99,o),
(305,114,cs),
(345,570,ls)
);
},
{
closed = 1;
nodes = (
(226,232,o),
(176,90,o),
(176,48,cs),
(176,42,o),
(177,38,o),
(179,37,cs),
(221,7,o),
(269,-15,o),
(322,-15,cs),
(394,-15,o),
(476,27,o),
(561,152,cs),
(581,180,o),
(589,204,o),
(589,220,cs),
(589,233,o),
(583,241,o),
(574,241,cs),
(562,241,o),
(543,229,o),
(523,198,cs),
(505,172,o),
(469,153,o),
(421,153,cs),
(372,153,o),
(311,172,o),
(241,221,cs)
);
}
);
width = 635;
}
);
unicode = 599;
},
{
glyphname = e;
kernLeft = e;
kernRight = e;
lastChange = "2024-03-07 20:05:52 +0000";
layers = (
{
anchors = (
{
name = bottom;
pos = (191,0);
},
{
name = ogonek;
pos = (429,0);
},
{
name = top;
pos = (295,712);
}
);
guides = (
{
pos = (301,715);
}
);
layerId = m01;
shapes = (
{
closed = 1;
nodes = (
(306,455,o),
(433,583,o),
(426,602,cs),
(397,681,o),
(345,714,o),
(300,714,cs),
(286,714,o),
(274,711,o),
(262,706,cs),
(50,606,o),
(47,140,o),
(28,41,cs),
(26,29,o),
(25,20,o),
(25,14,cs),
(25,1,o),
(29,-3,o),
(33,-3,cs),
(36,-3,o),
(39,-1,o),
(39,0,c),
(71,11,o),
(96,18,o),
(127,18,cs),
(139,18,o),
(151,17,o),
(166,14,cs),
(200,8,o),
(241,-4,o),
(281,-4,cs),
(313,-4,o),
(344,3,o),
(372,26,cs),
(400,49,o),
(428,132,o),
(428,171,cs),
(428,184,o),
(425,192,o),
(418,192,cs),
(414,192,o),
(410,190,o),
(404,186,c),
(394,177,o),
(367,174,o),
(337,174,cs),
(300,174,o),
(257,178,o),
(226,184,cs),
(207,187,o),
(189,189,o),
(172,189,cs),
(149,189,o),
(126,186,o),
(101,176,c),
(112,135,l),
(161,387,o),
(178,538,o),
(212,554,cs),
(220,558,o),
(227,561,o),
(235,561,cs),
(253,561,o),
(273,544,o),
(298,476,cs)
);
},
{
closed = 1;
nodes = (
(61,438,o),
(15,314,o),
(15,278,cs),
(15,272,o),
(16,268,o),
(19,268,cs),
(342,269,ls),
(359,269,o),
(406,392,o),
(406,429,cs),
(406,435,o),
(405,439,o),
(402,439,cs),
(79,438,ls)
);
}
);
width = 478;
}
);
unicode = 101;
},
{
glyphname = ecircumflexdotbelow;
kernLeft = e;
kernRight = e;
lastChange = "2024-03-07 20:27:52 +0000";
layers = (
{
anchors = (
{
name = bottom;
pos = (196,50);
},
{
name = ogonek;
pos = (434,0);
},
{
name = top;
pos = (300,715);
}
);
layerId = m01;
shapes = (
{
closed = 1;
nodes = (
(311,455,o),
(438,583,o),
(431,602,cs),
(402,681,o),
(350,714,o),
(305,714,cs),
(291,714,o),
(279,711,o),
(267,706,cs),
(55,606,o),
(52,140,o),
(33,41,cs),
(31,29,o),
(30,20,o),
(30,14,cs),
(30,1,o),
(34,-3,o),
(38,-3,cs),
(41,-3,o),
(44,-1,o),
(44,0,c),
(76,11,o),
(101,18,o),
(132,18,cs),
(144,18,o),
(156,17,o),
(171,14,cs),
(205,8,o),
(246,-4,o),
(286,-4,cs),
(318,-4,o),
(349,3,o),
(377,26,cs),
(405,49,o),
(433,132,o),
(433,171,cs),
(433,184,o),
(430,192,o),
(423,192,cs),
(419,192,o),
(415,190,o),
(409,186,c),
(399,177,o),
(372,174,o),
(342,174,cs),
(305,174,o),
(262,178,o),
(231,184,cs),
(212,187,o),
(194,189,o),
(177,189,cs),
(154,189,o),
(131,186,o),
(106,176,c),
(117,135,l),
(166,387,o),
(183,538,o),
(217,554,cs),
(225,558,o),
(232,561,o),
(240,561,cs),
(258,561,o),
(278,544,o),
(303,476,cs)
);
},
{
closed = 1;
nodes = (
(66,438,o),
(20,314,o),
(20,278,cs),
(20,272,o),
(21,268,o),
(24,268,cs),
(347,269,ls),
(364,269,o),
(411,392,o),
(411,429,cs),
(411,435,o),
(410,439,o),
(407,439,cs),
(84,438,ls)
);
},
{
pos = (91,1);
ref = dotbelowcomb;
},
{
pos = (173,215);
ref = circumflexcomb;
}
);
width = 475;
}
);
unicode = 7879;
},
{
glyphname = schwa;
kernLeft = CapRound;
kernRight = CapRound;
lastChange = "2024-03-07 20:05:52 +0000";
layers = (
{
layerId = m01;
shapes = (
{
closed = 1;
nodes = (
(140,350,o),
(140,353,o),
(140,356,cs),
(140,365,o),
(136,369,o),
(129,369,cs),
(107,369,o),
(56,325,o),
(47,286,cs),
(38,248,o),
(34,213,o),
(34,180,cs),
(34,63,o),
(87,-16,o),
(163,-16,cs),
(194,-16,o),
(229,-3,o),
(265,27,cs),
(310,63,o),
(366,164,o),
(366,195,cs),
(366,200,o),
(364,203,o),
(360,203,cs),
(355,203,o),
(348,199,o),
(339,191,cs),
(305,164,o),
(271,152,o),
(239,152,cs),
(179,152,o),
(131,198,o),
(131,283,cs),
(131,302,o),
(134,323,o),
(139,346,cs)
);
},
{
closed = 1;
nodes = (
(266,125,o),
(257,105,o),
(257,94,cs),
(257,86,o),
(261,82,o),
(268,82,cs),
(285,82,o),
(322,108,o),
(359,160,cs),
(446,280,o),
(478,392,o),
(478,484,cs),
(478,623,o),
(403,715,o),
(324,715,cs),
(302,715,o),
(280,708,o),
(259,694,cs),
(206,657,o),
(114,528,o),
(140,528,cs),
(144,528,o),
(150,531,o),
(161,538,cs),
(176,549,o),
(191,553,o),
(205,553,cs),
(276,553,o),
(333,435,o),
(333,317,cs),
(333,258,o),
(319,199,o),
(287,154,cs)
);
},
{
closed = 1;
nodes = (
(109,369,o),
(75,327,o),
(75,305,cs),
(75,297,o),
(80,292,o),
(92,292,c),
(92,292,o),
(93,292,o),
(93,292,c),
(129,294,o),
(355,294,o),
(363,294,cs),
(391,295,o),
(426,337,o),
(426,360,cs),
(426,368,o),
(421,374,o),
(411,374,cs),
(410,374,o),
(410,374,o),
(409,374,c),
(409,374,o),
(172,373,o),
(137,370,cs)
);
}
);
width = 513;
}
);
unicode = 601;
},
{
glyphname = f;
kernLeft = f;
kernRight = f;
lastChange = "2024-03-07 20:05:52 +0000";
layers = (
{
layerId = m01;
shapes = (
{
closed = 1;
nodes = (
(430,588,o),
(455,669,o),
(455,701,cs),
(455,709,o),
(454,714,o),
(450,714,cs),
(446,714,o),
(441,710,o),
(435,701,cs),
(414,674,o),
(351,659,o),
(309,659,cs),
(254,659,o),
(192,681,o),
(159,710,c),
(157,713,o),
(155,714,o),
(152,714,cs),
(122,714,o),
(80,578,o),
(80,574,cs),
(61,383,o),
(37,200,o),
(20,17,cs),
(19,5,o),
(24,0,o),
(32,0,cs),
(57,0,o),
(109,43,o),
(112,77,cs),
(132,282,o),
(145,487,o),
(164,684,c),
(85,548,l),
(124,511,o),
(192,489,o),
(249,489,cs),
(303,489,o),
(352,486,o),
(403,553,cs)
);
},
{
closed = 1;
nodes = (
(340,226,o),
(377,346,o),
(377,386,cs),
(377,395,o),
(376,400,o),
(372,400,cs),
(77,402,ls),
(61,402,o),
(24,282,o),
(24,241,cs),
(24,233,o),
(26,228,o),
(29,228,cs),
(324,226,ls)
);
}
);
width = 445;
}
);
unicode = 102;
},
{
glyphname = g;
kernLeft = g;
kernRight = g;
lastChange = "2024-03-07 20:05:52 +0000";
layers = (
{
anchors = (
{
name = bottom;
pos = (244,0);
},
{
name = top;
pos = (332,710);
}
);
layerId = m01;
shapes = (
{
closed = 1;
nodes = (
(223,578,o),
(232,596,o),
(232,606,cs),
(232,611,o),
(229,614,o),
(224,614,cs),
(209,614,o),
(175,589,o),
(139,541,cs),
(47,419,o),
(10,295,o),
(10,195,cs),
(10,72,o),
(66,-15,o),
(144,-15,cs),
(192,-15,o),
(249,18,o),
(306,95,cs),
(347,151,o),
(370,200,o),
(370,219,cs),
(370,223,o),
(368,226,o),
(365,226,cs),
(358,226,o),
(341,211,o),
(314,175,cs),
(299,154,o),
(281,145,o),
(263,145,cs),
(203,145,o),
(139,242,o),
(139,359,cs),
(139,421,o),
(157,489,o),
(203,551,cs)
);
},
{
closed = 1;
nodes = (
(276,356,o),
(207,256,o),
(224,256,cs),
(227,256,o),
(233,259,o),
(242,266,cs),
(250,273,o),
(266,279,o),
(282,279,cs),
(308,279,o),
(335,265,o),
(335,217,cs),
(335,174,o),
(325,129,o),
(319,85,cs),
(318,75,o),
(318,65,o),
(318,57,cs),
(318,8,o),
(336,-6,o),
(343,-14,cs),
(356,-29,o),
(472,86,o),
(472,110,cs),
(472,115,o),
(458,117,o),
(458,157,cs),
(458,167,o),
(459,178,o),
(461,193,cs),
(465,234,o),
(473,275,o),
(476,317,cs),
(479,373,o),
(437,415,o),
(386,415,cs),
(364,415,o),
(340,407,o),
(318,390,cs)
);
},
{
closed = 1;
nodes = (
(354,482,o),
(481,609,o),
(471,626,cs),
(455,653,o),
(420,713,o),
(358,713,cs),
(328,713,o),
(292,699,o),
(249,659,cs),
(199,613,o),
(151,529,o),
(169,529,cs),
(174,529,o),
(184,535,o),
(199,549,cs),
(214,563,o),
(231,569,o),
(247,569,cs),
(285,569,o),
(322,536,o),
(343,500,cs)
);
}
);
width = 527;
}
);
unicode = 103;
},
{
glyphname = h;
kernLeft = CapStraight;
kernRight = CapStraight;
lastChange = "2024-03-07 20:05:52 +0000";
layers = (
{
anchors = (
{
name = bottom;
pos = (281,0);
},
{
name = center;
pos = (179,564);
},
{
name = top;
pos = (337,707);
}
);
layerId = m01;
shapes = (
{
closed = 1;
nodes = (
(77,437,o),
(30,312,o),
(30,277,cs),
(30,271,o),
(31,267,o),
(34,267,cs),
(467,268,ls),
(484,268,o),
(531,392,o),
(531,428,cs),
(531,434,o),
(530,438,o),
(527,438,cs),
(94,437,ls)
);
},
{
closed = 1;
nodes = (
(195,726,o),
(65,603,o),
(75,584,cs),
(87,562,o),
(91,554,o),
(91,535,cs),
(91,526,o),
(90,515,o),
(88,500,cs),
(77,369,o),
(69,237,o),
(59,106,cs),
(58,81,ls),
(58,34,o),
(72,17,o),
(97,0,cs),
(113,-11,o),
(240,116,o),
(223,128,cs),
(205,140,o),
(199,148,o),
(199,179,cs),
(199,189,o),
(199,200,o),
(201,214,cs),
(211,345,o),
(218,477,o),
(230,608,cs),
(231,631,ls),
(231,666,o),
(221,679,o),
(205,708,cs)
);
},
{
closed = 1;
nodes = (
(463,726,o),
(333,603,o),
(343,584,cs),
(355,563,o),
(358,553,o),
(358,534,cs),
(358,525,o),
(358,515,o),
(356,500,cs),
(327,106,l),
(326,81,ls),
(326,34,o),
(340,17,o),
(365,0,cs),
(381,-11,o),
(508,116,o),
(491,128,cs),
(473,140,o),
(467,148,o),
(467,179,cs),
(467,189,o),
(467,200,o),
(469,214,cs),
(498,608,ls),
(502,662,o),
(492,673,o),
(473,708,cs)
);
}
);
width = 576;
}
);
unicode = 104;
},
{
glyphname = hbar;
kernLeft = CapStraight;
kernRight = CapStraight;
lastChange = "2024-03-07 20:05:52 +0000";
layers = (
{
anchors = (
{
name = top;
pos = (300,650);
}
);
layerId = m01;
shapes = (
{
ref = h;
},
{
closed = 1;
nodes = (
(37,631,o),
(3,542,o),
(3,510,cs),
(3,503,o),
(4,499,o),
(8,499,cs),
(234,501,ls),
(250,501,o),
(285,590,o),
(285,622,cs),
(285,629,o),
(284,633,o),
(280,633,cs),
(54,631,ls)
);
}
);
width = 576;
}
);
unicode = 295;
},
{
glyphname = hhook;
kernLeft = CapStraight;
kernRight = CapStraight;
lastChange = "2024-03-07 20:05:52 +0000";
layers = (
{
anchors = (
{
name = bottom;
pos = (456,0);
},
{
name = center;
pos = (354,564);
},
{
name = top;
pos = (456,800);
}
);
background = {
shapes = (
{
closed = 0;
nodes = (
(519,634,l,{
"Letterink-NibData" = {
AngleInDegrees = "18.69964";
MainAxisWidth = "146.83481";
MinorAxisWidth = "11";
ValidForParentMainAxisWidth = "30";
ValidForParentMinorAxisWidth = "15";
};
}),
(431,627,o),
(363,604,o),
(266,489,cs,{
"Letterink-NibData" = {
AngleInDegrees = "-3";
MainAxisWidth = "102";
MinorAxisWidth = "25";
ValidForParentMainAxisWidth = "30";
ValidForParentMinorAxisWidth = "15";
};
}),
(203,414,o),
(258,373,o),
(332,385,cs,{
"Letterink-NibData" = {
AngleInDegrees = "15";
MainAxisWidth = "110";
MinorAxisWidth = "27";
ValidForParentMainAxisWidth = "30";
ValidForParentMinorAxisWidth = "15";
};
})
);
}
);
};
layerId = m01;
shapes = (
{
closed = 1;
nodes = (
(252,437,o),
(205,312,o),
(205,277,cs),
(205,271,o),
(206,267,o),
(209,267,cs),
(642,268,ls),
(659,268,o),
(706,392,o),
(706,428,cs),
(706,434,o),
(705,438,o),
(702,438,cs),
(269,437,ls)
);
},
{
closed = 1;
nodes = (
(288,-11,o),
(415,116,o),
(398,128,cs),
(381,140,o),
(374,150,o),
(374,180,cs),
(374,189,o),
(374,200,o),
(376,214,cs),
(405,548,ls),
(408,587,o),
(396,670,o),
(350,719,c),
(337,727,o),
(113,657,o),
(46,539,cs),
(35,520,o),
(30,503,o),
(30,488,cs),
(30,434,o),
(91,409,o),
(137,409,cs),
(150,409,o),
(161,411,o),
(169,414,cs),
(195,424,o),
(234,498,o),
(234,526,cs),
(234,533,o),
(232,537,o),
(226,537,cs),
(225,537,o),
(223,537,o),
(221,536,cs),
(194,526,o),
(165,518,o),
(143,518,cs),
(123,518,o),
(109,525,o),
(109,540,cs),
(109,547,o),
(112,556,o),
(118,567,c),
(120,569,o),
(153,591,o),
(192,591,cs),
(207,591,o),
(223,588,o),
(238,579,c),
(261,555,o),
(266,517,o),
(266,486,cs),
(266,467,o),
(264,451,o),
(263,440,cs),
(234,106,l),
(233,78,ls),
(233,31,o),
(247,17,o),
(272,0,cs)
);
},
{
closed = 1;
nodes = (
(638,726,o),
(508,603,o),
(518,584,cs),
(530,563,o),
(533,553,o),
(533,534,cs),
(533,525,o),
(533,515,o),
(531,500,cs),
(502,106,l),
(501,81,ls),
(501,34,o),
(515,17,o),
(540,0,cs),
(556,-11,o),
(683,116,o),
(666,128,cs),
(648,140,o),
(642,148,o),
(642,179,cs),
(642,189,o),
(642,200,o),
(644,214,cs),
(673,608,ls),
(677,662,o),
(667,673,o),
(648,708,cs)
);
}
);
width = 751;
}
);
unicode = 614;
},
{
glyphname = i;
kernLeft = straight;
kernRight = straight;
lastChange = "2024-03-07 20:05:52 +0000";
layers = (
{
anchors = (
{
name = bottom;
pos = (137,0);
},
{
name = center;
pos = (135,334);
},
{
name = ogonek;
pos = (191,0);
},
{
name = top;
pos = (164,711);
}
);
layerId = m01;
shapes = (
{
closed = 1;
nodes = (
(187,726,o),
(57,603,o),
(67,584,cs),
(78,563,o),
(83,553,o),
(83,531,cs),
(80,490,l),
(51,106,l),
(50,81,ls),
(50,34,o),
(64,17,o),
(89,0,cs),
(105,-11,o),
(232,116,o),
(215,128,cs),
(198,140,o),
(191,148,o),
(191,179,cs),
(191,189,o),
(191,200,o),
(193,214,cs),
(222,598,l),
(223,627,ls),
(223,667,o),
(213,679,o),
(197,708,cs)
);
}
);
width = 273;
}
);
unicode = 105;
},
{
glyphname = j;
kernLeft = j;
kernRight = j;
lastChange = "2024-03-07 20:05:52 +0000";
layers = (
{
layerId = m01;
shapes = (
{
closed = 1;
nodes = (
(126,262,o),
(127,265,o),
(127,267,cs),
(127,269,o),
(126,270,o),
(124,270,cs),
(106,270,o),
(16,190,o),
(-2,153,cs),
(-11,135,o),
(-15,117,o),
(-15,99,cs),
(-15,38,o),
(34,-16,o),
(100,-16,cs),
(146,-16,o),
(201,10,o),
(254,77,cs),
(279,109,o),
(293,148,o),
(293,170,cs),
(293,180,o),
(290,186,o),
(284,186,cs),
(278,186,o),
(268,179,o),
(254,161,cs),
(235,136,o),
(208,125,o),
(182,125,cs),
(144,125,o),
(108,151,o),
(108,198,cs),
(108,215,o),
(113,235,o),
(124,257,cs)
);
},
{
closed = 1;
nodes = (
(412,689,o),
(413,693,o),
(413,696,cs),
(413,701,o),
(410,703,o),
(405,703,cs),
(379,703,o),
(293,640,o),
(274,597,cs),
(263,572,o),
(263,566,o),
(257,506,cs),
(247,379,o),
(239,253,o),
(229,126,cs),
(227,89,o),
(231,77,o),
(238,77,cs),
(252,77,o),
(279,132,o),
(278,131,c),
(233,103,o),
(150,7,o),
(169,7,cs),
(172,7,o),
(178,10,o),
(186,15,cs),
(271,67,o),
(368,203,o),
(371,234,cs),
(380,361,o),
(388,488,o),
(399,614,cs),
(404,676,o),
(405,674,o),
(410,685,cs)
);
},
{
closed = 1;
nodes = (
(347,612,o),
(399,694,o),
(383,694,cs),
(380,694,o),
(374,691,o),
(366,685,cs),
(345,668,o),
(320,662,o),
(296,662,cs),
(246,662,o),
(197,689,o),
(187,713,cs),
(178,735,o),
(75,590,o),
(85,567,cs),
(92,549,o),
(126,530,o),
(174,530,cs),
(213,530,o),
(260,543,o),
(308,581,cs)
);
}
);
width = 443;
}
);
unicode = 106;
},
{
glyphname = jdotless;
kernLeft = j;
kernRight = j;
lastChange = "2024-03-07 20:05:52 +0000";
layers = (
{
anchors = (
{
name = bottom;
pos = (150,-14);
},
{
name = top;
pos = (342,710);
}
);
layerId = m01;
shapes = (
{
closed = 1;
nodes = (
(126,262,o),
(127,265,o),
(127,267,cs),
(127,269,o),
(126,270,o),
(124,270,cs),
(106,270,o),
(16,190,o),
(-2,153,cs),
(-11,135,o),
(-15,117,o),
(-15,99,cs),
(-15,38,o),
(34,-16,o),
(100,-16,cs),
(146,-16,o),
(201,10,o),
(254,77,cs),
(279,109,o),
(293,148,o),
(293,170,cs),
(293,180,o),
(290,186,o),
(284,186,cs),
(278,186,o),
(268,179,o),
(254,161,cs),
(235,136,o),
(208,125,o),
(182,125,cs),
(144,125,o),
(108,151,o),
(108,198,cs),
(108,215,o),
(113,235,o),
(124,257,cs)
);
},
{
closed = 1;
nodes = (
(412,689,o),
(413,693,o),
(413,696,cs),
(413,701,o),
(410,703,o),
(405,703,cs),
(379,703,o),
(293,640,o),
(274,597,cs),
(263,572,o),
(263,566,o),
(257,506,cs),
(247,379,o),
(239,253,o),
(229,126,cs),
(227,89,o),
(231,77,o),
(238,77,cs),
(252,77,o),
(279,132,o),
(278,131,c),
(233,103,o),
(150,7,o),
(169,7,cs),
(172,7,o),
(178,10,o),
(186,15,cs),
(271,67,o),
(368,203,o),
(371,234,cs),
(380,361,o),
(388,488,o),
(399,614,cs),
(404,676,o),
(405,674,o),
(410,685,cs)
);
}
);
width = 443;
}
);
unicode = 567;
},
{
glyphname = k;
kernLeft = k;
kernRight = k;
lastChange = "2024-03-07 20:05:52 +0000";
layers = (
{
anchors = (
{
name = bottom;
pos = (236,0);
},
{
name = top;
pos = (276,711);
}
);
guides = (
{
pos = (169,711);
}
);
layerId = m01;
shapes = (
{
closed = 1;
nodes = (
(157,721,o),
(26,591,o),
(42,578,c),
(47,575,o),
(65,551,o),
(61,496,cs),
(32,118,l),
(30,105,o),
(30,93,o),
(30,82,cs),
(30,38,o),
(40,17,o),
(69,0,cs),
(89,-11,o),
(220,140,o),
(199,152,cs),
(187,158,o),
(176,167,o),
(176,208,cs),
(176,230,l),
(205,608,ls),
(211,677,o),
(183,701,o),
(172,710,cs)
);
},
{
closed = 1;
nodes = (
(524,689,o),
(527,695,o),
(527,699,cs),
(527,707,o),
(519,710,o),
(506,710,cs),
(474,710,o),
(415,689,o),
(389,659,cs),
(368,636,o),
(105,291,o),
(102,288,cs),
(98,283,o),
(96,279,o),
(96,276,cs),
(96,271,o),
(101,269,o),
(109,269,cs),
(138,269,o),
(212,300,o),
(236,330,cs),
(248,345,o),
(495,655,o),
(517,681,cs)
);
},
{
closed = 1;
nodes = (
(104,309,o),
(82,249,o),
(82,222,cs),
(82,213,o),
(85,207,o),
(90,207,cs),
(95,207,o),
(102,211,o),
(111,222,cs),
(154,268,o),
(201,289,o),
(241,289,cs),
(305,289,o),
(354,238,o),
(354,154,cs),
(354,121,o),
(347,82,o),
(329,40,cs),
(324,29,o),
(323,21,o),
(323,14,cs),
(323,4,o),
(328,-1,o),
(337,-1,cs),
(371,-1,o),
(451,59,o),
(475,116,cs),
(498,170,o),
(507,217,o),
(507,258,cs),
(507,374,o),
(429,436,o),
(334,436,cs),
(267,436,o),
(191,404,o),
(131,338,cs)
);
}
);
width = 562;
}
);
unicode = 107;
},
{
glyphname = l;
kernLeft = L;
kernRight = L;
lastChange = "2024-03-07 20:05:52 +0000";
layers = (
{
anchors = (
{
name = bottom;
pos = (199,0);
},
{
name = center;
pos = (129,350);
},
{
name = top;
pos = (154,712);
},
{
name = topright;
pos = (286,770);
}
);
layerId = m01;
shapes = (
{
closed = 1;
nodes = (
(184,721,o),
(53,591,o),
(69,578,cs),
(73,575,o),
(86,557,o),
(86,518,cs),
(85,496,l),
(43,118,ls),
(41,103,o),
(40,88,o),
(40,75,cs),
(40,31,o),
(50,0,o),
(79,0,cs),
(105,0,o),
(236,152,o),
(203,152,cs),
(189,152,o),
(183,157,o),
(183,178,cs),
(183,190,o),
(185,206,o),
(187,230,cs),
(229,608,ls),
(230,616,o),
(231,624,o),
(231,632,cs),
(231,683,o),
(209,702,o),
(199,710,cs)
);
},
{
closed = 1;
nodes = (
(154,129,o),
(92,24,o),
(109,24,cs),
(111,24,o),
(115,26,o),
(121,30,cs),
(143,48,o),
(169,55,o),
(193,55,cs),
(246,55,o),
(296,24,o),
(306,1,cs),
(315,-22,o),
(417,127,o),
(408,147,cs),
(400,167,o),
(355,196,o),
(298,196,cs),
(264,196,o),
(225,185,o),
(187,156,cs)
);
}
);
width = 449;
}
);
unicode = 108;
},
{
glyphname = m;
kernLeft = m;
kernRight = m;
lastChange = "2024-03-07 20:05:52 +0000";
layers = (
{
anchors = (
{
name = bottom;
pos = (305,0);
},
{
name = top;
pos = (414,710);
}
);
layerId = m01;
shapes = (
{
closed = 1;
nodes = (
(233,720,o),
(102,591,o),
(118,579,cs),
(172,540,o),
(226,181,o),
(233,3,cs),
(234,-26,o),
(366,103,o),
(365,129,cs),
(358,309,o),
(306,666,o),
(248,709,cs)
);
},
{
closed = 1;
nodes = (
(-4,18,o),
(-5,14,o),
(-5,11,cs),
(-5,3,o),
(-1,0,o),
(6,0,cs),
(30,0,o),
(84,43,o),
(93,78,cs),
(167,354,o),
(189,633,o),
(189,634,cs),
(190,640,o),
(187,642,o),
(183,642,cs),
(163,642,o),
(100,583,o),
(97,556,cs),
(96,545,o),
(70,293,o),
(-3,22,cs)
);
},
{
closed = 1;
nodes = (
(232,102,o),
(231,98,o),
(231,95,cs),
(231,91,o),
(233,89,o),
(238,89,cs),
(260,89,o),
(331,138,o),
(349,173,cs),
(464,397,o),
(520,636,o),
(521,639,cs),
(524,648,o),
(521,652,o),
(516,652,cs),
(493,652,o),
(420,588,o),
(411,551,cs),
(408,542,o),
(348,327,o),
(235,107,cs)
);
},
{
closed = 1;
nodes = (
(542,707,o),
(410,575,o),
(438,575,cs),
(451,575,o),
(452,516,o),
(452,436,cs),
(452,316,ls),
(452,190,o),
(455,55,o),
(479,1,cs),
(489,-19,o),
(619,111,o),
(611,129,cs),
(587,181,o),
(585,305,o),
(585,425,cs),
(585,519,ls),
(585,624,o),
(583,707,o),
(564,707,cs)
);
}
);
width = 661;
}
);
unicode = 109;
},
{
glyphname = n;
kernLeft = n;
kernRight = n;
lastChange = "2024-03-07 20:05:52 +0000";
layers = (
{
anchors = (
{
name = bottom;
pos = (283,0);
},
{
name = top;
pos = (310,710);
}
);
guides = (
{
pos = (289,0);
},
{
pos = (346,715);
}
);
layerId = m01;
shapes = (
{
closed = 1;
nodes = (
(180,725,o),
(59,606,o),
(69,588,cs),
(160,423,o),
(281,94,o),
(387,0,cs),
(401,-13,o),
(522,107,o),
(507,120,cs),
(493,133,o),
(487,140,o),
(487,178,cs),
(487,230,o),
(498,339,o),
(519,598,cs),
(520,609,o),
(520,618,o),
(520,626,cs),
(520,666,o),
(510,679,o),
(495,707,cs),
(485,726,o),
(361,609,o),
(371,591,cs),
(383,569,o),
(388,560,o),
(388,537,cs),
(388,527,o),
(387,514,o),
(385,496,cs),
(367,265,o),
(357,150,o),
(357,88,cs),
(357,28,o),
(367,18,o),
(387,0,cs),
(401,-13,o),
(522,107,o),
(507,120,cs),
(404,212,o),
(282,541,o),
(191,706,cs)
);
},
{
closed = 1;
nodes = (
(40,5,o),
(45,1,o),
(52,1,cs),
(75,1,o),
(124,40,o),
(131,72,cs),
(142,126,o),
(182,594,o),
(182,595,cs),
(183,607,o),
(178,612,o),
(170,612,cs),
(146,612,o),
(95,569,o),
(92,537,cs),
(90,520,o),
(47,4,o),
(41,4,cs),
(40,4,o),
(40,7,o),
(40,13,cs)
);
}
);
width = 550;
}
);
unicode = 110;
},
{
glyphname = nhookleft;
lastChange = "2024-03-07 20:05:52 +0000";
layers = (
{
anchors = (
{
name = bottom;
pos = (347,0);
},
{
name = top;
pos = (374,710);
}
);
layerId = m01;
shapes = (
{
closed = 1;
nodes = (
(244,725,o),
(123,606,o),
(133,588,cs),
(224,423,o),
(345,94,o),
(451,0,cs),
(465,-13,o),
(586,107,o),
(571,120,cs),
(557,133,o),
(551,140,o),
(551,178,cs),
(551,230,o),
(562,339,o),
(583,598,cs),
(584,609,o),
(584,618,o),
(584,626,cs),
(584,666,o),
(574,679,o),
(559,707,cs),
(549,726,o),
(425,609,o),
(435,591,cs),
(447,569,o),
(452,560,o),
(452,537,cs),
(452,527,o),
(451,514,o),
(449,496,cs),
(431,265,o),
(421,150,o),
(421,88,cs),
(421,28,o),
(431,18,o),
(451,0,cs),
(465,-13,o),
(586,107,o),
(571,120,cs),
(468,212,o),
(346,541,o),
(255,706,cs)
);
},
{
closed = 1;
nodes = (
(100,15,o),
(99,12,o),
(99,9,cs),
(99,1,o),
(104,-3,o),
(111,-3,cs),
(134,-3,o),
(183,36,o),
(190,68,cs),
(201,120,o),
(246,595,o),
(246,595,c),
(247,607,o),
(242,612,o),
(234,612,cs),
(210,612,o),
(159,569,o),
(156,537,cs),
(153,511,o),
(115,88,o),
(100,18,c)
);
},
{
closed = 1;
nodes = (
(160,121,o),
(81,-3,o),
(101,-3,cs),
(168,-3,o),
(188,-24,o),
(188,-48,cs),
(188,-68,o),
(172,-90,o),
(161,-100,cs),
(152,-107,o),
(141,-111,o),
(131,-111,cs),
(113,-111,o),
(97,-99,o),
(97,-74,cs),
(97,-68,o),
(97,-62,o),
(99,-54,cs),
(101,-49,o),
(99,-47,o),
(95,-47,cs),
(76,-47,o),
(6,-100,o),
(1,-122,cs),
(-5,-144,o),
(29,-176,o),
(81,-176,cs),
(112,-176,o),
(150,-164,o),
(189,-132,cs),
(232,-97,o),
(261,-30,o),
(261,26,cs),
(261,78,o),
(237,121,o),
(175,121,cs)
);
}
);
width = 584;
}
);
unicode = 626;
},
{
glyphname = o;
kernLeft = lowerRound;
kernRight = lowerRound;
lastChange = "2024-03-07 20:05:52 +0000";
layers = (
{
anchors = (
{
name = bottom;
pos = (162,0);
},
{
name = center;
pos = (232,250);
},
{
name = ogonek;
pos = (319,0);
},
{
name = top;
pos = (307,710);
},
{
name = topright;
pos = (366,701);
}
);
guides = (
{
pos = (243,0);
},
{
pos = (300,715);
}
);
layerId = m01;
shapes = (
{
closed = 1;
nodes = (
(223,591,o),
(228,603,o),
(228,611,cs),
(228,617,o),
(225,620,o),
(219,620,cs),
(200,620,o),
(152,584,o),
(119,530,cs),
(41,404,o),
(10,289,o),
(10,196,cs),
(10,67,o),
(71,-17,o),
(153,-17,cs),
(186,-17,o),
(223,-3,o),
(260,27,cs),
(305,63,o),
(361,164,o),
(361,195,cs),
(361,200,o),
(359,203,o),
(355,203,cs),
(350,203,o),
(343,199,o),
(334,191,cs),
(304,167,o),
(276,157,o),
(251,157,cs),
(185,157,o),
(138,230,o),
(138,334,cs),
(138,404,o),
(159,488,o),
(211,572,cs)
);
},
{
closed = 1;
nodes = (
(261,125,o),
(252,105,o),
(252,94,cs),
(252,86,o),
(256,82,o),
(263,82,cs),
(280,82,o),
(317,108,o),
(354,160,cs),
(441,280,o),
(474,392,o),
(474,483,cs),
(474,621,o),
(399,711,o),
(320,711,cs),
(298,711,o),
(275,704,o),
(254,689,cs),
(201,652,o),
(109,523,o),
(135,523,cs),
(139,523,o),
(145,526,o),
(156,533,cs),
(171,544,o),
(186,549,o),
(201,549,cs),
(272,549,o),
(328,433,o),
(328,315,cs),
(328,258,o),
(314,199,o),
(282,154,cs)
);
}
);
width = 494;
}
);
unicode = 111;
},
{
glyphname = oslash;
kernLeft = lowerRound;
kernRight = lowerRound;
lastChange = "2024-03-07 20:05:52 +0000";
layers = (
{
anchors = (
{
name = top;
pos = (352,820);
}
);
layerId = m01;
shapes = (
{
ref = o;
},
{
closed = 1;
nodes = (
(102,-58,o),
(101,-63,o),
(101,-67,cs),
(101,-75,o),
(106,-78,o),
(114,-78,cs),
(136,-78,o),
(179,-52,o),
(193,-21,cs),
(204,2,o),
(211,34,o),
(223,84,cs),
(226,98,o),
(226,112,o),
(226,126,cs),
(226,136,o),
(226,146,o),
(228,155,cs),
(261,298,o),
(302,507,o),
(326,648,cs),
(328,660,o),
(337,666,o),
(339,674,cs),
(352,747,o),
(360,771,o),
(360,773,cs),
(361,777,o),
(362,780,o),
(362,783,cs),
(362,792,o),
(357,796,o),
(349,796,cs),
(327,796,o),
(282,762,o),
(272,727,c),
(272,726,o),
(262,692,o),
(249,622,cs),
(248,618,o),
(248,613,o),
(248,609,cs),
(249,586,ls),
(249,582,o),
(248,578,o),
(248,574,c),
(224,432,o),
(183,225,o),
(150,81,cs),
(146,63,o),
(132,51,o),
(129,38,cs),
(118,-9,o),
(106,-48,o),
(105,-51,cs)
);
}
);
width = 494;
}
);
unicode = 248;
},
{
glyphname = oe;
kernLeft = lowerRound;
kernRight = e;
lastChange = "2024-03-07 20:05:52 +0000";
layers = (
{
layerId = m01;
shapes = (
{
closed = 1;
nodes = (
(223,591,o),
(228,603,o),
(228,611,cs),
(228,617,o),
(225,620,o),
(219,620,cs),
(200,620,o),
(152,584,o),
(119,530,cs),
(41,404,o),
(10,289,o),
(10,196,cs),
(10,67,o),
(71,-17,o),
(153,-17,cs),
(186,-17,o),
(223,-3,o),
(260,27,cs),
(305,63,o),
(361,164,o),
(361,195,cs),
(361,200,o),
(359,203,o),
(355,203,cs),
(350,203,o),
(343,199,o),
(334,191,cs),
(304,167,o),
(276,157,o),
(251,157,cs),
(185,157,o),
(138,230,o),
(138,334,cs),
(138,404,o),
(159,488,o),
(211,572,cs)
);
},
{
closed = 1;
nodes = (
(261,125,o),
(252,105,o),
(252,94,cs),
(252,86,o),
(256,82,o),
(263,82,cs),
(280,82,o),
(317,108,o),
(354,160,cs),
(441,280,o),
(473,392,o),
(473,484,cs),
(473,623,o),
(398,715,o),
(319,715,cs),
(297,715,o),
(275,708,o),
(254,694,cs),
(201,657,o),
(109,528,o),
(135,528,cs),
(139,528,o),
(145,531,o),
(156,538,cs),
(171,549,o),
(186,553,o),
(200,553,cs),
(271,553,o),
(328,435,o),
(328,317,cs),
(328,258,o),
(314,199,o),
(282,154,cs)
);
},
{
closed = 1;
nodes = (
(619,455,o),
(746,583,o),
(739,602,cs),
(710,681,o),
(658,714,o),
(613,714,cs),
(599,714,o),
(587,711,o),
(575,706,cs),
(363,606,o),
(360,140,o),
(341,41,cs),
(339,29,o),
(338,20,o),
(338,14,cs),
(338,1,o),
(342,-3,o),
(346,-3,cs),
(349,-3,o),
(352,-1,o),
(352,0,c),
(384,11,o),
(409,18,o),
(440,18,cs),
(452,18,o),
(464,17,o),
(479,14,cs),
(513,8,o),
(554,-4,o),
(594,-4,cs),
(626,-4,o),
(657,3,o),
(685,26,cs),
(713,49,o),
(741,132,o),
(741,171,cs),
(741,184,o),
(738,192,o),
(731,192,cs),
(727,192,o),
(723,190,o),
(717,186,c),
(707,177,o),
(680,174,o),
(650,174,cs),
(613,174,o),
(570,178,o),
(539,184,cs),
(520,187,o),
(502,189,o),
(485,189,cs),
(462,189,o),
(439,186,o),
(414,176,c),
(425,135,l),
(474,387,o),
(491,538,o),
(525,554,cs),
(533,558,o),
(540,561,o),
(548,561,cs),
(566,561,o),
(586,544,o),
(611,476,cs)
);
},
{
closed = 1;
nodes = (
(374,438,o),
(328,314,o),
(328,278,cs),
(328,272,o),
(329,268,o),
(332,268,cs),
(655,269,ls),
(672,269,o),
(719,392,o),
(719,429,cs),
(719,435,o),
(718,439,o),
(715,439,cs),
(392,438,ls)
);
}
);
width = 791;
}
);
unicode = 339;
},
{
glyphname = p;
kernLeft = p;
kernRight = p;
lastChange = "2024-03-07 20:05:52 +0000";
layers = (
{
guides = (
{
pos = (722,374);
},
{
pos = (634,569);
}
);
layerId = m01;
shapes = (
{
closed = 1;
nodes = (
(248,669,o),
(252,678,o),
(252,683,cs),
(252,686,o),
(250,688,o),
(245,688,cs),
(225,688,o),
(169,656,o),
(136,617,cs),
(42,507,o),
(30,229,o),
(30,91,cs),
(31,11,ls),
(31,2,o),
(35,-1,o),
(42,-1,cs),
(74,-1,o),
(157,66,o),
(157,99,cs),
(157,118,o),
(159,565,o),
(238,657,cs)
);
},
{
closed = 1;
nodes = (
(200,336,o),
(184,312,o),
(184,297,cs),
(184,287,o),
(191,281,o),
(204,281,cs),
(217,281,o),
(238,288,o),
(264,306,cs),
(380,384,o),
(439,495,o),
(439,576,cs),
(439,627,o),
(413,716,o),
(317,716,cs),
(310,716,o),
(303,716,o),
(295,715,cs),
(253,709,o),
(136,633,o),
(136,612,cs),
(136,609,o),
(138,607,o),
(145,607,cs),
(151,607,ls),
(157,608,o),
(164,608,o),
(170,608,cs),
(249,608,o),
(283,541,o),
(285,509,cs),
(289,439,o),
(238,361,o),
(236,360,cs)
);
},
{
closed = 1;
nodes = (
(310,337,o),
(365,414,o),
(343,414,cs),
(338,414,o),
(330,410,o),
(317,402,cs),
(303,393,o),
(276,388,o),
(247,388,cs),
(199,388,o),
(145,402,o),
(137,433,cs),
(128,469,o),
(60,329,o),
(69,295,cs),
(76,268,o),
(96,252,o),
(129,252,cs),
(161,252,o),
(204,268,o),
(257,302,cs)
);
}
);
width = 449;
}
);
unicode = 112;
},
{
glyphname = phook;
lastChange = "2024-03-07 20:05:52 +0000";
layers = (
{
layerId = m01;
shapes = (
{
closed = 1;
nodes = (
(407,669,o),
(411,678,o),
(411,683,cs),
(411,686,o),
(409,688,o),
(404,688,cs),
(384,688,o),
(328,656,o),
(295,617,cs),
(201,507,o),
(189,229,o),
(189,91,cs),
(190,11,ls),
(190,2,o),
(194,-1,o),
(201,-1,cs),
(233,-1,o),
(316,66,o),
(316,99,cs),
(316,118,o),
(318,565,o),
(397,657,cs)
);
},
{
closed = 1;
nodes = (
(359,336,o),
(343,312,o),
(343,297,cs),
(343,287,o),
(350,281,o),
(363,281,cs),
(376,281,o),
(397,288,o),
(423,306,cs),
(539,384,o),
(598,495,o),
(598,576,cs),
(598,627,o),
(572,716,o),
(476,716,cs),
(469,716,o),
(462,716,o),
(454,715,cs),
(412,709,o),
(295,633,o),
(295,612,cs),
(295,609,o),
(297,607,o),
(304,607,cs),
(310,607,ls),
(316,608,o),
(323,608,o),
(329,608,cs),
(408,608,o),
(442,541,o),
(444,509,cs),
(448,439,o),
(397,361,o),
(395,360,cs)
);
},
{
closed = 1;
nodes = (
(469,337,o),
(524,414,o),
(502,414,cs),
(497,414,o),
(489,410,o),
(476,402,cs),
(462,393,o),
(435,388,o),
(406,388,cs),
(358,388,o),
(304,402,o),
(296,433,cs),
(287,469,o),
(219,329,o),
(228,295,cs),
(235,268,o),
(255,252,o),
(288,252,cs),
(320,252,o),
(363,268,o),
(416,302,cs)
);
},
{
closed = 1;
nodes = (
(274,541,o),
(386,648,o),
(371,661,cs),
(358,671,o),
(326,679,o),
(284,679,cs),
(207,679,o),
(97,650,o),
(19,542,cs),
(6,523,o),
(0,505,o),
(0,490,cs),
(0,439,o),
(58,408,o),
(108,408,cs),
(120,408,o),
(131,410,o),
(141,414,cs),
(167,424,o),
(206,498,o),
(206,526,cs),
(206,533,o),
(204,537,o),
(198,537,cs),
(197,537,o),
(195,537,o),
(193,536,cs),
(171,528,o),
(141,521,o),
(117,521,cs),
(95,521,o),
(79,526,o),
(79,541,cs),
(79,547,o),
(82,554,o),
(89,564,cs),
(97,576,o),
(125,590,o),
(160,590,cs),
(190,590,o),
(225,580,o),
(259,553,cs)
);
}
);
width = 598;
}
);
unicode = 421;
},
{
glyphname = thorn;
kernLeft = lowerthorn;
kernRight = lowerthorn;
lastChange = "2024-03-07 20:05:52 +0000";
layers = (
{
layerId = m01;
shapes = (
{
closed = 1;
nodes = (
(189,696,o),
(185,700,o),
(177,700,cs),
(147,700,o),
(65,637,o),
(62,601,cs),
(49,462,o),
(40,-31,o),
(40,3,cs),
(40,-4,o),
(44,-7,o),
(51,-7,cs),
(81,-7,o),
(166,61,o),
(166,94,c),
(166,94,o),
(177,572,o),
(188,687,cs)
);
},
{
closed = 1;
nodes = (
(188,274,o),
(172,250,o),
(172,235,cs),
(172,225,o),
(179,219,o),
(192,219,cs),
(205,219,o),
(226,226,o),
(252,244,cs),
(315,286,o),
(401,381,o),
(401,449,cs),
(401,522,o),
(340,565,o),
(176,562,cs),
(152,562,o),
(70,459,o),
(70,430,cs),
(70,425,o),
(72,422,o),
(78,422,cs),
(127,422,ls),
(247,422,o),
(275,410,o),
(275,363,cs),
(275,318,o),
(244,312,o),
(224,298,cs)
);
},
{
closed = 1;
nodes = (
(292,272,o),
(346,348,o),
(324,348,cs),
(319,348,o),
(311,344,o),
(298,335,cs),
(290,330,o),
(272,327,o),
(251,327,cs),
(211,327,o),
(160,338,o),
(153,365,cs),
(144,400,o),
(76,259,o),
(85,227,cs),
(91,205,o),
(106,193,o),
(131,193,cs),
(156,193,o),
(192,206,o),
(238,237,cs)
);
}
);
width = 421;
}
);
unicode = 254;
},
{
glyphname = q;
kernLeft = q;
kernRight = q;
lastChange = "2024-03-07 20:05:52 +0000";
layers = (
{
background = {
shapes = (
{
closed = 1;
nodes = (
);
},
{
closed = 1;
nodes = (
);
}
);
};
guides = (
{
pos = (298,713);
}
);
layerId = m01;
shapes = (
{
closed = 1;
nodes = (
(252,324,o),
(248,326,o),
(244,326,cs),
(226,326,o),
(196,292,o),
(196,269,cs),
(196,266,o),
(197,263,o),
(198,260,cs),
(211,234,o),
(352,-9,o),
(352,-9,c),
(355,-13,o),
(358,-15,o),
(362,-15,cs),
(380,-15,o),
(410,20,o),
(410,42,cs),
(410,45,o),
(409,49,o),
(408,51,cs),
(400,65,o),
(273,281,o),
(254,320,cs)
);
},
{
closed = 1;
nodes = (
(224,591,o),
(229,603,o),
(229,611,cs),
(229,617,o),
(226,620,o),
(220,620,cs),
(201,620,o),
(153,584,o),
(120,530,cs),
(41,403,o),
(10,288,o),
(10,196,cs),
(10,66,o),
(72,-17,o),
(153,-17,cs),
(185,-17,o),
(220,-4,o),
(254,24,cs),
(300,61,o),
(380,202,o),
(357,202,cs),
(354,202,o),
(349,200,o),
(342,194,cs),
(310,168,o),
(280,157,o),
(253,157,cs),
(185,157,o),
(139,231,o),
(139,334,cs),
(139,405,o),
(161,489,o),
(212,572,cs)
);
},
{
closed = 1;
nodes = (
(263,111,o),
(255,95,o),
(255,88,cs),
(255,68,o),
(308,108,o),
(356,176,cs),
(438,290,o),
(469,397,o),
(469,485,cs),
(469,622,o),
(394,713,o),
(316,713,cs),
(296,713,o),
(276,708,o),
(257,695,cs),
(204,660,o),
(109,528,o),
(136,528,cs),
(139,528,o),
(146,531,o),
(155,537,cs),
(169,546,o),
(183,550,o),
(196,550,cs),
(269,550,o),
(332,431,o),
(332,307,cs),
(332,248,o),
(317,187,o),
(282,138,cs)
);
}
);
width = 489;
}
);
unicode = 113;
},
{
glyphname = r;
kernLeft = r;
kernRight = r;
lastChange = "2024-03-07 20:05:52 +0000";
layers = (
{
anchors = (
{
name = bottom;
pos = (208,0);
},
{
name = top;
pos = (288,710);
}
);
guides = (
{
pos = (303,713);
}
);
layerId = m01;
shapes = (
{
closed = 1;
nodes = (
(176,505,o),
(177,509,o),
(177,512,cs),
(177,519,o),
(173,522,o),
(166,522,cs),
(140,522,o),
(68,471,o),
(53,432,cs),
(31,379,o),
(20,15,o),
(20,12,cs),
(20,4,o),
(24,0,o),
(31,0,cs),
(62,0,o),
(145,67,o),
(146,100,cs),
(147,114,o),
(159,465,o),
(173,500,c)
);
},
{
closed = 1;
nodes = (
(185,376,o),
(167,341,o),
(167,321,cs),
(167,310,o),
(172,303,o),
(182,303,cs),
(192,303,o),
(207,309,o),
(227,325,cs),
(375,440,o),
(429,538,o),
(429,606,cs),
(429,669,o),
(382,706,o),
(320,706,cs),
(231,706,o),
(111,630,o),
(56,445,cs),
(51,427,o),
(49,412,o),
(49,399,cs),
(49,371,o),
(61,355,o),
(76,355,cs),
(96,355,o),
(122,380,o),
(138,433,cs),
(160,507,o),
(227,543,o),
(270,543,cs),
(293,543,o),
(309,533,o),
(309,514,cs),
(309,491,o),
(286,454,o),
(223,405,cs)
);
},
{
closed = 1;
nodes = (
(54,305,o),
(32,245,o),
(32,217,cs),
(32,208,o),
(35,202,o),
(40,202,cs),
(45,202,o),
(52,206,o),
(61,216,cs),
(103,261,o),
(150,281,o),
(192,281,cs),
(255,281,o),
(305,234,o),
(305,152,cs),
(305,120,o),
(297,83,o),
(279,41,cs),
(275,29,o),
(272,21,o),
(272,14,cs),
(272,4,o),
(278,-1,o),
(288,-1,cs),
(321,-1,o),
(400,58,o),
(425,115,cs),
(448,170,o),
(458,217,o),
(458,257,cs),
(458,370,o),
(379,428,o),
(285,428,cs),
(217,428,o),
(140,397,o),
(81,334,cs)
);
}
);
width = 498;
}
);
unicode = 114;
},
{
glyphname = s;
kernLeft = S;
kernRight = S;
lastChange = "2024-03-07 20:05:52 +0000";
layers = (
{
anchors = (
{
name = bottom;
pos = (167,0);
},
{
name = top;
pos = (267,713);
}
);
guides = (
{
pos = (270,713);
}
);
layerId = m01;
shapes = (
{
closed = 1;
nodes = (
(50,268,o),
(-5,134,o),
(-5,90,cs),
(-5,86,o),
(-5,83,o),
(-4,80,c),
(13,47,o),
(73,-15,o),
(148,-15,cs),
(196,-15,o),
(251,10,o),
(304,86,cs),
(372,183,o),
(398,245,o),
(398,289,cs),
(398,355,o),
(337,379,o),
(274,420,cs),
(164,492,o),
(145,528,o),
(145,545,cs),
(145,553,o),
(149,556,o),
(150,558,cs),
(154,563,o),
(164,566,o),
(179,566,cs),
(225,566,o),
(315,534,o),
(354,447,cs),
(365,422,o),
(428,592,o),
(418,613,cs),
(405,643,o),
(343,713,o),
(266,713,cs),
(223,713,o),
(176,691,o),
(130,626,cs),
(64,534,o),
(39,472,o),
(39,426,cs),
(39,362,o),
(89,330,o),
(150,290,cs),
(265,215,o),
(291,188,o),
(291,170,cs),
(291,164,o),
(287,158,o),
(282,152,cs),
(277,144,o),
(262,140,o),
(243,140,cs),
(189,140,o),
(98,173,o),
(62,246,cs)
);
}
);
width = 444;
}
);
unicode = 115;
},
{
glyphname = germandbls;
lastChange = "2024-03-07 20:05:52 +0000";
layers = (
{
layerId = m01;
shapes = (
{
closed = 1;
nodes = (
(481,580,o),
(506,661,o),
(506,693,cs),
(506,701,o),
(505,706,o),
(501,706,cs),
(497,706,o),
(492,702,o),
(486,693,cs),
(467,669,o),
(339,659,o),
(299,659,cs),
(244,659,o),
(182,681,o),
(149,710,c),
(147,713,o),
(145,714,o),
(142,714,cs),
(112,714,o),
(70,578,o),
(70,574,cs),
(51,383,o),
(27,200,o),
(10,17,cs),
(9,5,o),
(14,0,o),
(22,0,cs),
(47,0,o),
(99,43,o),
(102,77,cs),
(122,282,o),
(135,487,o),
(154,684,c),
(75,548,l),
(114,511,o),
(182,489,o),
(239,489,cs),
(296,488,ls),
(351,488,o),
(416,495,o),
(454,545,cs)
);
},
{
closed = 1;
nodes = (
(195,379,o),
(172,329,o),
(172,305,cs),
(172,296,o),
(175,291,o),
(181,291,cs),
(185,291,o),
(190,293,o),
(197,297,cs),
(218,311,o),
(254,320,o),
(291,320,cs),
(349,320,o),
(408,298,o),
(408,237,cs),
(408,214,o),
(400,186,o),
(380,152,cs),
(367,129,o),
(365,119,o),
(370,119,cs),
(384,119,o),
(438,175,o),
(470,230,cs),
(500,282,o),
(513,323,o),
(513,355,cs),
(513,421,o),
(457,445,o),
(392,445,cs),
(330,445,o),
(260,424,o),
(221,397,cs)
);
},
{
closed = 1;
nodes = (
(204,392,o),
(176,345,o),
(176,321,cs),
(176,311,o),
(180,305,o),
(190,305,cs),
(198,305,o),
(209,309,o),
(224,318,cs),
(366,407,o),
(441,521,o),
(470,573,cs),
(480,591,o),
(484,605,o),
(484,614,cs),
(484,622,o),
(481,626,o),
(476,626,cs),
(468,626,o),
(454,614,o),
(440,589,cs),
(439,587,o),
(330,469,o),
(246,418,cs)
);
},
{
closed = 1;
nodes = (
(492,292,o),
(494,298,o),
(494,302,cs),
(494,305,o),
(492,307,o),
(490,307,cs),
(477,307,o),
(429,243,o),
(411,191,c),
(409,187,o),
(360,145,o),
(313,145,cs),
(290,145,o),
(268,154,o),
(251,181,cs),
(239,200,o),
(128,59,o),
(139,41,cs),
(143,34,o),
(184,-2,o),
(242,-2,cs),
(313,-2,o),
(408,53,o),
(489,283,cs)
);
}
);
width = 548;
}
);
unicode = 223;
},
{
glyphname = t;
kernLeft = t;
kernRight = t;
lastChange = "2024-03-07 20:05:52 +0000";
layers = (
{
anchors = (
{
name = bottom;
pos = (154,9);
},
{
name = center;
pos = (240,250);
},
{
name = top;
pos = (240,700);
},
{
name = topright;
pos = (461,740);
}
);
layerId = m01;
shapes = (
{
closed = 1;
nodes = (
(412,534,o),
(459,638,o),
(459,680,cs),
(459,690,o),
(456,697,o),
(449,697,cs),
(448,697,o),
(447,697,o),
(446,696,c),
(422,692,o),
(391,691,o),
(357,691,cs),
(304,691,o),
(244,694,o),
(192,694,cs),
(140,694,o),
(95,691,o),
(71,679,cs),
(53,670,o),
(20,556,o),
(20,518,cs),
(20,510,o),
(21,506,o),
(25,506,c),
(25,506,o),
(26,507,o),
(27,507,c),
(54,521,o),
(121,522,o),
(194,522,cs),
(234,522,ls),
(291,522,o),
(346,523,o),
(386,530,cs)
);
},
{
closed = 1;
nodes = (
(275,570,o),
(141,443,o),
(150,423,cs),
(151,420,o),
(152,414,o),
(152,406,cs),
(152,351,o),
(125,190,o),
(125,83,cs),
(125,49,o),
(128,20,o),
(135,2,cs),
(144,-18,o),
(275,113,o),
(267,132,cs),
(261,147,o),
(258,171,o),
(258,201,cs),
(258,302,o),
(287,466,o),
(287,528,cs),
(287,538,o),
(286,545,o),
(284,549,cs)
);
}
);
width = 439;
}
);
unicode = 116;
},
{
glyphname = tcedilla;
kernLeft = tcedilla;
kernRight = tcedilla;
lastChange = "2024-03-07 20:05:52 +0000";
layers = (
{
anchors = (
{
name = bottom;
pos = (119,-281);
}
);
layerId = m01;
shapes = (
{
pos = (-13,0);
ref = t;
},
{
closed = 1;
nodes = (
(169,35,o),
(178,62,o),
(178,79,cs),
(178,91,o),
(173,98,o),
(166,98,cs),
(156,98,o),
(139,85,o),
(119,54,cs),
(84,0,o),
(56,-51,o),
(29,-92,cs),
(21,-104,o),
(18,-113,o),
(18,-118,cs),
(18,-122,o),
(20,-124,o),
(24,-124,cs),
(30,-124,o),
(39,-120,o),
(50,-113,cs),
(65,-103,o),
(87,-98,o),
(107,-98,cs),
(141,-98,o),
(173,-112,o),
(173,-145,cs),
(173,-153,o),
(171,-162,o),
(167,-173,cs),
(164,-179,o),
(163,-184,o),
(163,-187,cs),
(163,-190,o),
(164,-192,o),
(166,-192,cs),
(180,-192,o),
(232,-137,o),
(249,-97,cs),
(257,-79,o),
(261,-63,o),
(261,-49,cs),
(261,-15,o),
(237,2,o),
(202,2,cs),
(168,2,o),
(124,-13,o),
(78,-43,c),
(99,-64,l),
(118,-34,o),
(138,-14,o),
(149,4,cs)
);
},
{
closed = 1;
nodes = (
(236,-123,o),
(247,-77,o),
(247,-56,cs),
(247,-48,o),
(246,-44,o),
(243,-44,cs),
(239,-44,o),
(233,-50,o),
(224,-66,cs),
(202,-106,o),
(176,-152,o),
(127,-152,cs),
(113,-152,o),
(98,-149,o),
(80,-140,cs),
(63,-132,o),
(-37,-231,o),
(-18,-240,cs),
(11,-254,o),
(40,-261,o),
(67,-261,cs),
(125,-261,o),
(178,-229,o),
(218,-156,cs)
);
}
);
width = 426;
}
);
unicode = 355;
},
{
glyphname = thook;
lastChange = "2024-03-07 20:05:52 +0000";
layers = (
{
anchors = (
{
name = bottom;
pos = (225,9);
},
{
name = center;
pos = (311,250);
},
{
name = top;
pos = (311,700);
},
{
name = topright;
pos = (532,740);
}
);
layerId = m01;
shapes = (
{
closed = 1;
nodes = (
(483,534,o),
(530,638,o),
(530,680,cs),
(530,690,o),
(527,697,o),
(520,697,cs),
(519,697,o),
(518,697,o),
(517,696,c),
(472,689,o),
(437,687,o),
(405,687,cs),
(367,687,o),
(332,689,o),
(287,689,cs),
(262,689,o),
(100,599,o),
(21,489,cs),
(6,468,o),
(0,449,o),
(0,433,cs),
(0,382,o),
(62,356,o),
(108,356,cs),
(119,356,o),
(129,358,o),
(137,361,cs),
(163,371,o),
(202,445,o),
(202,473,cs),
(202,480,o),
(200,484,o),
(194,484,cs),
(193,484,o),
(191,484,o),
(189,483,cs),
(164,474,o),
(138,468,o),
(118,468,cs),
(96,468,o),
(81,474,o),
(81,488,cs),
(81,494,o),
(84,502,o),
(91,511,cs),
(100,524,o),
(110,527,o),
(128,527,cs),
(149,527,o),
(180,523,o),
(232,523,cs),
(271,523,o),
(305,520,o),
(341,520,cs),
(374,520,o),
(410,522,o),
(457,530,cs)
);
},
{
closed = 1;
nodes = (
(346,570,o),
(212,443,o),
(221,423,cs),
(222,420,o),
(223,414,o),
(223,406,cs),
(223,351,o),
(196,190,o),
(196,83,cs),
(196,49,o),
(199,20,o),
(206,2,cs),
(215,-18,o),
(346,113,o),
(338,132,cs),
(332,147,o),
(329,171,o),
(329,201,cs),
(329,302,o),
(358,466,o),
(358,528,cs),
(358,538,o),
(357,545,o),
(355,549,cs)
);
}
);
width = 530;
}
);
unicode = 429;
},
{
glyphname = u;
kernLeft = u;
kernRight = u;
lastChange = "2024-03-07 20:05:52 +0000";
layers = (
{
anchors = (
{
name = bottom;
pos = (228,0);
},
{
name = center;
pos = (252,371);
},
{
name = ogonek;
pos = (294,0);
},
{
name = top;
pos = (280,713);
},
{
name = topright;
pos = (448,714);
}
);
guides = (
{
pos = (229,0);
},
{
pos = (286,715);
}
);
layerId = m01;
shapes = (
{
closed = 1;
nodes = (
(162,721,o),
(26,584,o),
(48,573,cs),
(61,567,o),
(66,532,o),
(66,471,cs),
(66,396,o),
(58,280,o),
(46,131,cs),
(39,58,o),
(72,-16,o),
(137,-16,cs),
(179,-16,o),
(234,14,o),
(300,93,cs),
(341,142,o),
(364,199,o),
(350,199,cs),
(345,199,o),
(335,191,o),
(318,171,cs),
(289,137,o),
(263,121,o),
(241,121,cs),
(205,121,o),
(181,162,o),
(181,229,cs),
(182,255,ls),
(195,405,o),
(205,522,o),
(205,600,cs),
(205,666,o),
(198,704,o),
(180,713,cs)
);
},
{
closed = 1;
nodes = (
(281,127,o),
(275,113,o),
(275,105,cs),
(275,100,o),
(277,98,o),
(281,98,cs),
(294,98,o),
(321,119,o),
(349,157,cs),
(379,199,o),
(406,260,o),
(413,301,cs),
(436,436,o),
(440,564,o),
(445,698,cs),
(445,708,o),
(441,713,o),
(433,713,cs),
(409,713,o),
(354,663,o),
(353,630,cs),
(348,490,o),
(343,360,o),
(319,221,cs),
(308,154,o),
(298,150,o),
(297,149,cs)
);
}
);
width = 475;
}
);
unicode = 117;
},
{
glyphname = ubar;
kernLeft = u;
kernRight = u;
lastChange = "2024-03-07 20:05:52 +0000";
layers = (
{
layerId = m01;
shapes = (
{
pos = (40,0);
ref = u;
},
{
closed = 1;
nodes = (
(77,408,o),
(45,328,o),
(45,297,cs),
(45,290,o),
(47,286,o),
(51,286,cs),
(490,284,ls),
(506,284,o),
(538,364,o),
(538,394,cs),
(538,402,o),
(536,406,o),
(532,406,cs),
(93,408,ls)
);
}
);
width = 568;
}
);
unicode = 649;
},
{
glyphname = uhorntilde;
kernLeft = uhorn;
kernRight = uhorn;
lastChange = "2024-03-07 20:34:17 +0000";
layers = (
{
anchors = (
{
name = top;
pos = (327,914);
}
);
background = {
anchors = (
{
name = top;
pos = (235,910);
}
);
};
guides = (
{
pos = (540,910);
},
{
pos = (317,726);
}
);
layerId = m01;
shapes = (
{
ref = uhorn;
},
{
closed = 1;
nodes = (
(385,793,o),
(405,841,o),
(405,862,cs),
(405,867,o),
(404,871,o),
(400,871,cs),
(396,871,o),
(391,868,o),
(384,862,cs),
(367,847,o),
(343,837,o),
(320,837,cs),
(313,837,o),
(307,838,o),
(300,839,c),
(273,847,o),
(248,894,o),
(211,905,cs),
(206,907,o),
(199,908,o),
(192,908,cs),
(170,908,o),
(139,897,o),
(93,855,cs),
(69,835,o),
(46,784,o),
(46,763,cs),
(46,757,o),
(48,754,o),
(52,754,cs),
(56,754,o),
(61,756,o),
(67,763,c),
(101,792,o),
(121,800,o),
(137,800,cs),
(144,800,o),
(150,799,o),
(157,797,cs),
(185,788,o),
(209,740,o),
(246,731,c),
(254,728,o),
(263,727,o),
(271,727,cs),
(299,727,o),
(327,740,o),
(360,770,cs)
);
}
);
width = 492;
}
);
unicode = 7919;
},
{
glyphname = v;
kernLeft = v;
kernRight = v;
lastChange = "2024-03-07 20:05:52 +0000";
layers = (
{
guides = (
{
pos = (260,713);
}
);
layerId = m01;
shapes = (
{
closed = 1;
nodes = (
(481,695,o),
(481,698,o),
(481,702,cs),
(481,709,o),
(477,713,o),
(471,713,cs),
(445,713,o),
(380,660,o),
(367,618,cs),
(310,439,o),
(207,98,o),
(194,43,cs),
(185,6,o),
(314,129,o),
(322,161,cs),
(331,198,o),
(428,529,o),
(479,690,cs)
);
},
{
closed = 1;
nodes = (
(177,-13,o),
(311,121,o),
(295,133,cs),
(277,146,o),
(258,158,o),
(245,240,cs),
(234,313,o),
(229,434,o),
(205,602,cs),
(195,667,o),
(180,708,o),
(152,713,cs),
(133,717,o),
(4,590,o),
(28,585,cs),
(38,582,o),
(60,547,o),
(69,484,cs),
(93,322,o),
(90,203,o),
(101,134,cs),
(115,41,o),
(137,18,o),
(161,-1,cs)
);
}
);
width = 469;
}
);
unicode = 118;
},
{
glyphname = w;
kernLeft = w;
kernRight = w;
lastChange = "2024-03-07 20:05:52 +0000";
layers = (
{
anchors = (
{
name = bottom;
pos = (329,0);
},
{
name = top;
pos = (369,710);
}
);
guides = (
{
pos = (238,0);
},
{
pos = (295,715);
}
);
layerId = m01;
shapes = (
{
closed = 1;
nodes = (
(361,-17,o),
(481,103,o),
(472,120,cs),
(409,233,o),
(443,660,o),
(389,712,cs),
(376,725,o),
(254,606,o),
(269,592,cs),
(317,546,o),
(285,119,o),
(350,2,cs)
);
},
{
closed = 1;
nodes = (
(691,696,o),
(692,700,o),
(692,704,cs),
(692,710,o),
(688,713,o),
(682,713,cs),
(657,713,o),
(589,665,o),
(573,626,cs),
(445,315,o),
(395,46,o),
(394,40,cs),
(387,8,o),
(497,124,o),
(504,158,cs),
(507,168,o),
(564,387,o),
(689,690,cs)
);
},
{
closed = 1;
nodes = (
(124,-17,o),
(244,103,o),
(235,120,cs),
(172,233,o),
(204,660,o),
(151,712,cs),
(138,725,o),
(16,606,o),
(31,592,cs),
(78,546,o),
(48,119,o),
(113,2,cs)
);
},
{
closed = 1;
nodes = (
(410,622,o),
(405,625,o),
(395,625,cs),
(371,625,o),
(319,605,o),
(313,589,cs),
(247,416,o),
(159,52,o),
(156,39,cs),
(146,4,o),
(254,119,o),
(262,151,cs),
(265,161,o),
(345,453,o),
(407,615,cs)
);
}
);
width = 657;
}
);
unicode = 119;
},
{
glyphname = x;
kernLeft = x;
kernRight = x;
lastChange = "2024-03-07 20:05:52 +0000";
layers = (
{
guides = (
{
pos = (236,713);
}
);
layerId = m01;
shapes = (
{
closed = 1;
nodes = (
(534,687,o),
(537,694,o),
(537,700,cs),
(537,709,o),
(530,713,o),
(518,713,cs),
(488,713,o),
(433,687,o),
(407,649,cs),
(-10,36,ls),
(-17,26,o),
(-20,19,o),
(-20,13,cs),
(-20,4,o),
(-13,0,o),
(-1,0,cs),
(28,0,o),
(85,27,o),
(110,64,cs),
(527,677,ls)
);
},
{
closed = 1;
nodes = (
(395,4,o),
(503,148,o),
(474,142,cs),
(408,131,o),
(226,733,o),
(149,712,cs),
(123,705,o),
(14,561,o),
(45,570,cs),
(110,587,o),
(294,-13,o),
(368,0,cs)
);
}
);
width = 527;
}
);
unicode = 120;
},
{
glyphname = y;
kernLeft = y;
kernRight = y;
lastChange = "2024-03-07 20:05:52 +0000";
layers = (
{
anchors = (
{
name = bottom;
pos = (162,0);
},
{
name = top;
pos = (322,709);
}
);
guides = (
{
pos = (215,0);
},
{
pos = (272,715);
}
);
layerId = m01;
shapes = (
{
closed = 1;
nodes = (
(532,680,o),
(535,690,o),
(535,698,cs),
(535,708,o),
(529,713,o),
(519,713,cs),
(492,713,o),
(438,677,o),
(411,628,cs),
(393,594,o),
(127,44,o),
(126,42,cs),
(121,30,o),
(118,21,o),
(118,15,cs),
(118,4,o),
(124,0,o),
(133,0,cs),
(161,0,o),
(220,40,o),
(244,90,cs),
(256,114,o),
(504,627,o),
(525,666,cs)
);
},
{
closed = 1;
nodes = (
(262,328,o),
(361,437,o),
(339,437,cs),
(337,437,o),
(334,436,o),
(330,434,cs),
(327,433,o),
(324,432,o),
(321,432,cs),
(262,432,o),
(212,712,o),
(141,712,cs),
(138,712,o),
(135,712,o),
(132,711,cs),
(103,701,o),
(10,604,o),
(10,585,cs),
(10,582,o),
(12,581,o),
(18,583,cs),
(78,604,o),
(122,306,o),
(206,306,cs),
(212,306,o),
(218,307,o),
(224,310,cs)
);
}
);
width = 499;
}
);
unicode = 121;
},
{
glyphname = z;
kernLeft = z;
kernRight = z;
lastChange = "2024-03-07 20:05:52 +0000";
layers = (
{
anchors = (
{
name = bottom;
pos = (211,0);
},
{
name = center;
pos = (211,250);
},
{
name = top;
pos = (271,709);
}
);
guides = (
{
pos = (199,713);
}
);
layerId = m01;
shapes = (
{
closed = 1;
nodes = (
(8,134,o),
(-20,50,o),
(-20,11,cs),
(-20,-1,o),
(-17,-9,o),
(-11,-9,cs),
(-8,-9,o),
(-3,-6,o),
(3,-1,cs),
(40,31,o),
(91,45,o),
(144,45,cs),
(207,45,o),
(271,24,o),
(313,-8,cs),
(328,-20,o),
(378,112,o),
(378,151,cs),
(378,155,o),
(377,159,o),
(375,160,c),
(337,190,o),
(270,215,o),
(199,215,cs),
(142,215,o),
(83,199,o),
(35,157,cs)
);
},
{
closed = 1;
nodes = (
(108,734,o),
(55,601,o),
(55,560,cs),
(55,556,o),
(55,552,o),
(57,550,cs),
(82,518,o),
(145,499,o),
(213,499,cs),
(273,499,o),
(337,515,o),
(379,552,cs),
(400,570,o),
(439,679,o),
(439,711,cs),
(439,716,o),
(437,719,o),
(435,719,cs),
(433,719,o),
(432,718,o),
(429,716,cs),
(394,685,o),
(332,670,o),
(272,670,cs),
(207,670,o),
(145,687,o),
(121,718,cs)
);
},
{
closed = 1;
nodes = (
(407,603,o),
(408,607,o),
(408,611,cs),
(408,622,o),
(400,627,o),
(387,627,cs),
(358,627,o),
(310,602,o),
(295,569,cs),
(239,436,o),
(37,213,o),
(-7,82,cs),
(-8,78,o),
(-9,74,o),
(-9,71,cs),
(-9,60,o),
(-1,55,o),
(12,55,cs),
(41,55,o),
(94,83,o),
(105,116,cs),
(135,207,o),
(333,430,o),
(405,597,cs)
);
}
);
width = 439;
}
);
unicode = 122;
},
{
glyphname = saltillo;
lastChange = "2024-03-07 19:55:38 +0000";
layers = (
{
layerId = m01;
shapes = (
{
closed = 1;
nodes = (
(165,718,o),
(34,593,o),
(53,583,cs),
(56,581,o),
(58,566,o),
(58,541,cs),
(55,490,l),
(49,421,ls),
(47,396,o),
(46,376,o),
(46,361,cs),
(46,337,o),
(50,323,o),
(62,315,cs),
(78,304,o),
(205,431,o),
(188,443,c),
(186,445,o),
(185,449,o),
(185,457,cs),
(185,469,o),
(187,491,o),
(191,529,cs),
(197,598,ls),
(198,614,o),
(198,628,o),
(198,640,cs),
(198,681,o),
(192,703,o),
(181,709,cs)
);
}
);
width = 223;
}
);
unicode = 42892;
},
{
glyphname = fi;
lastChange = "2024-03-07 19:55:38 +0000";
layers = (
{
layerId = m01;
shapes = (
{
closed = 1;
nodes = (
(554,558,o),
(593,662,o),
(593,699,cs),
(593,707,o),
(591,712,o),
(587,712,cs),
(585,712,o),
(583,711,o),
(581,709,c),
(515,665,o),
(430,659,o),
(374,659,cs),
(320,659,o),
(214,683,o),
(184,710,c),
(182,713,o),
(180,714,o),
(177,714,cs),
(147,714,o),
(105,578,o),
(105,574,cs),
(86,383,o),
(62,200,o),
(45,17,cs),
(44,5,o),
(49,0,o),
(57,0,cs),
(82,0,o),
(134,43,o),
(137,77,cs),
(157,282,o),
(170,487,o),
(189,684,c),
(110,548,l),
(152,509,o),
(256,489,o),
(314,489,cs),
(372,489,o),
(455,493,o),
(531,543,cs)
);
},
{
closed = 1;
nodes = (
(365,226,o),
(402,346,o),
(402,386,cs),
(402,395,o),
(401,400,o),
(397,400,cs),
(102,402,ls),
(86,402,o),
(49,282,o),
(49,241,cs),
(49,233,o),
(51,228,o),
(54,228,cs),
(349,226,ls)
);
},
{
closed = 1;
nodes = (
(583,726,o),
(453,603,o),
(463,584,cs),
(474,563,o),
(479,553,o),
(479,531,cs),
(476,490,l),
(447,106,l),
(446,81,ls),
(446,34,o),
(460,17,o),
(485,0,cs),
(501,-11,o),
(628,116,o),
(611,128,cs),
(594,140,o),
(587,148,o),
(587,179,cs),
(587,189,o),
(587,200,o),
(589,214,cs),
(618,598,l),
(619,627,ls),
(619,667,o),
(609,679,o),
(593,708,cs)
);
}
);
width = 644;
}
);
metricLeft = f;
metricRight = i;
unicode = 64257;
},
{
glyphname = fl;
lastChange = "2024-03-07 19:55:38 +0000";
layers = (
{
layerId = m01;
shapes = (
{
closed = 1;
nodes = (
(571,721,o),
(440,591,o),
(456,578,cs),
(460,575,o),
(473,557,o),
(473,516,cs),
(473,496,l),
(461,370,o),
(450,244,o),
(438,118,cs),
(436,100,o),
(434,83,o),
(434,68,cs),
(434,28,o),
(443,0,o),
(476,0,cs),
(502,0,o),
(633,152,o),
(600,152,cs),
(585,152,o),
(579,158,o),
(579,182,cs),
(579,193,o),
(580,209,o),
(582,230,cs),
(595,356,o),
(606,482,o),
(617,608,cs),
(618,615,o),
(619,622,o),
(619,629,cs),
(619,682,o),
(596,702,o),
(586,710,cs)
);
},
{
closed = 1;
nodes = (
(550,129,o),
(488,24,o),
(505,24,cs),
(507,24,o),
(511,26,o),
(517,30,cs),
(539,48,o),
(564,55,o),
(589,55,cs),
(642,55,o),
(692,24,o),
(703,1,cs),
(713,-22,o),
(814,127,o),
(805,147,cs),
(796,168,o),
(751,196,o),
(694,196,cs),
(659,196,o),
(620,185,o),
(583,156,cs)
);
},
{
closed = 1;
nodes = (
(549,556,o),
(588,661,o),
(588,697,cs),
(588,705,o),
(586,710,o),
(582,710,cs),
(580,710,o),
(578,709,o),
(576,707,c),
(510,663,o),
(447,659,o),
(385,659,cs),
(330,659,o),
(206,682,o),
(174,710,cs),
(172,712,o),
(170,713,o),
(167,713,cs),
(137,713,o),
(95,578,o),
(95,573,cs),
(79,380,o),
(59,201,o),
(45,16,cs),
(44,5,o),
(49,0,o),
(57,0,cs),
(82,0,o),
(135,44,o),
(137,78,cs),
(153,281,o),
(164,490,o),
(179,685,c),
(100,548,l),
(142,510,o),
(268,489,o),
(325,489,cs),
(389,489,o),
(452,491,o),
(526,541,cs)
);
},
{
closed = 1;
nodes = (
(361,226,o),
(398,346,o),
(398,386,cs),
(398,395,o),
(397,400,o),
(393,400,cs),
(98,402,ls),
(82,402,o),
(45,282,o),
(45,241,cs),
(45,233,o),
(47,228,o),
(50,228,cs),
(345,226,ls)
);
}
);
width = 851;
}
);
metricLeft = f;
metricRight = l;
unicode = 64258;
},
{
glyphname = zero;
kernLeft = lowerRound;
kernRight = lowerRound;
lastChange = "2024-03-07 20:05:52 +0000";
layers = (
{
layerId = m01;
shapes = (
{
closed = 1;
nodes = (
(472,398,o),
(474,408,o),
(474,416,cs),
(474,431,o),
(469,437,o),
(461,437,cs),
(437,437,o),
(388,378,o),
(373,311,cs),
(356,240,o),
(276,183,o),
(209,183,cs),
(155,183,o),
(110,218,o),
(110,312,cs),
(110,336,o),
(113,364,o),
(119,396,cs),
(121,406,o),
(122,415,o),
(122,422,cs),
(122,437,o),
(117,444,o),
(109,444,cs),
(85,444,o),
(35,383,o),
(21,314,cs),
(13,277,o),
(10,243,o),
(10,212,cs),
(10,70,o),
(81,-15,o),
(170,-15,cs),
(274,-15,o),
(403,103,o),
(469,385,cs)
);
},
{
closed = 1;
nodes = (
(20,320,o),
(17,306,o),
(17,296,cs),
(17,280,o),
(23,273,o),
(32,273,cs),
(53,273,o),
(93,315,o),
(114,381,cs),
(142,467,o),
(213,517,o),
(275,517,cs),
(332,517,o),
(381,475,o),
(381,381,cs),
(381,362,o),
(379,340,o),
(374,316,cs),
(372,307,o),
(371,299,o),
(371,293,cs),
(371,277,o),
(376,271,o),
(384,271,cs),
(408,271,o),
(461,338,o),
(474,404,cs),
(480,433,o),
(482,461,o),
(482,487,cs),
(482,621,o),
(414,714,o),
(325,714,cs),
(231,714,o),
(112,610,o),
(26,339,cs)
);
}
);
width = 502;
}
);
unicode = 48;
},
{
glyphname = one;
kernLeft = one;
kernRight = one;
lastChange = "2024-03-07 20:05:52 +0000";
layers = (
{
layerId = m01;
shapes = (
{
closed = 1;
nodes = (
(269,727,o),
(139,604,o),
(149,585,cs),
(160,564,o),
(165,554,o),
(165,532,cs),
(162,491,l),
(133,107,l),
(132,82,ls),
(132,35,o),
(146,18,o),
(171,1,cs),
(187,-10,o),
(314,117,o),
(297,129,cs),
(280,141,o),
(273,149,o),
(273,180,cs),
(273,190,o),
(273,201,o),
(275,215,cs),
(304,599,l),
(305,628,ls),
(305,668,o),
(295,680,o),
(279,709,cs)
);
},
{
closed = 1;
nodes = (
(234,676,o),
(232,678,o),
(229,678,cs),
(213,678,o),
(144,597,o),
(138,565,cs),
(124,493,o),
(82,414,o),
(32,374,cs),
(23,367,o),
(20,361,o),
(20,357,cs),
(20,352,o),
(27,349,o),
(37,349,cs),
(58,349,o),
(92,359,o),
(114,376,cs),
(220,462,o),
(214,575,o),
(232,669,cs)
);
}
);
width = 375;
}
);
unicode = 49;
},
{
glyphname = two;
kernLeft = two;
kernRight = two;
lastChange = "2024-03-07 20:05:52 +0000";
layers = (
{
layerId = m01;
shapes = (
{
closed = 1;
nodes = (
(26,150,o),
(21,133,o),
(21,121,cs),
(21,107,o),
(28,98,o),
(40,98,cs),
(54,98,o),
(74,111,o),
(92,141,cs),
(175,276,o),
(216,297,o),
(346,436,cs),
(400,493,o),
(422,548,o),
(422,594,cs),
(422,668,o),
(366,719,o),
(297,719,cs),
(225,719,o),
(139,666,o),
(82,531,cs),
(68,499,o),
(62,471,o),
(62,450,cs),
(62,428,o),
(68,415,o),
(78,415,cs),
(89,415,o),
(104,431,o),
(120,469,cs),
(143,521,o),
(183,543,o),
(217,543,cs),
(249,543,o),
(276,523,o),
(276,491,cs),
(276,471,o),
(265,446,o),
(240,418,cs),
(192,367,o),
(123,306,o),
(38,169,cs)
);
},
{
closed = 1;
nodes = (
(23,159,o),
(-20,47,o),
(-20,10,cs),
(-20,3,o),
(-18,-1,o),
(-14,-1,cs),
(-13,-1,o),
(-12,-1,o),
(-11,0,c),
(30,19,o),
(83,45,o),
(156,45,cs),
(206,45,o),
(265,33,o),
(337,-1,cs),
(363,-13,o),
(416,99,o),
(416,146,cs),
(416,155,o),
(414,162,o),
(409,165,cs),
(332,201,o),
(269,213,o),
(216,213,cs),
(139,213,o),
(84,187,o),
(43,168,cs)
);
}
);
width = 457;
}
);
unicode = 50;
},
{
glyphname = three;
kernLeft = three;
kernRight = three;
lastChange = "2024-03-07 20:05:52 +0000";
layers = (
{
layerId = m01;
shapes = (
{
closed = 1;
nodes = (
(395,560,o),
(434,664,o),
(434,701,cs),
(434,709,o),
(432,714,o),
(428,714,cs),
(426,714,o),
(424,713,o),
(422,711,c),
(391,691,o),
(312,686,o),
(266,686,cs),
(211,686,o),
(163,697,o),
(130,713,cs),
(105,724,o),
(51,614,o),
(51,567,cs),
(51,557,o),
(53,550,o),
(58,547,cs),
(97,529,o),
(149,516,o),
(206,516,cs),
(256,516,o),
(331,517,o),
(372,545,cs)
);
},
{
closed = 1;
nodes = (
(65,294,o),
(60,282,o),
(60,273,cs),
(60,264,o),
(65,260,o),
(74,260,cs),
(90,260,o),
(114,273,o),
(135,301,cs),
(151,320,o),
(190,334,o),
(229,334,cs),
(283,334,o),
(338,308,o),
(338,235,cs),
(338,210,o),
(332,179,o),
(317,142,cs),
(315,137,o),
(314,132,o),
(314,130,cs),
(314,127,o),
(315,126,o),
(316,126,cs),
(332,126,o),
(408,214,o),
(425,256,cs),
(436,283,o),
(441,310,o),
(441,334,cs),
(441,410,o),
(390,464,o),
(316,464,cs),
(249,464,o),
(162,420,o),
(77,309,cs)
);
},
{
closed = 1;
nodes = (
(420,238,o),
(433,291,o),
(433,313,cs),
(433,320,o),
(432,324,o),
(429,324,cs),
(425,324,o),
(418,316,o),
(408,296,cs),
(361,204,o),
(286,125,o),
(228,125,cs),
(191,125,o),
(161,155,o),
(148,231,cs),
(144,257,o),
(16,131,o),
(20,107,cs),
(34,24,o),
(82,-15,o),
(141,-15,cs),
(224,-15,o),
(329,60,o),
(400,198,cs)
);
},
{
closed = 1;
nodes = (
(384,554,o),
(392,568,o),
(392,577,cs),
(392,588,o),
(383,593,o),
(369,593,cs),
(348,593,o),
(314,579,o),
(281,550,cs),
(249,520,o),
(115,352,o),
(114,351,cs),
(104,338,o),
(99,328,o),
(99,321,cs),
(99,312,o),
(107,308,o),
(119,308,cs),
(146,308,o),
(195,330,o),
(224,365,cs),
(365,536,l)
);
}
);
width = 491;
}
);
unicode = 51;
},
{
glyphname = four;
kernLeft = four;
kernRight = four;
lastChange = "2024-03-07 20:05:52 +0000";
layers = (
{
layerId = m01;
shapes = (
{
closed = 1;
nodes = (
(48,382,o),
(-9,212,o),
(1,212,cs),
(404,213,ls),
(416,213,o),
(476,383,o),
(464,383,cs),
(61,382,ls)
);
},
{
closed = 1;
nodes = (
(55,377,o),
(51,343,o),
(51,318,cs),
(51,303,o),
(53,292,o),
(56,292,cs),
(57,292,l),
(301,559,ls),
(307,565,o),
(311,601,o),
(311,627,cs),
(311,641,o),
(310,652,o),
(306,652,c),
(305,651,l),
(61,384,ls)
);
},
{
closed = 1;
nodes = (
(371,726,o),
(241,603,o),
(251,584,cs),
(262,563,o),
(267,553,o),
(267,531,cs),
(264,490,l),
(235,106,l),
(234,81,ls),
(234,34,o),
(248,17,o),
(273,0,cs),
(289,-11,o),
(416,116,o),
(399,128,cs),
(382,140,o),
(375,148,o),
(375,179,cs),
(375,189,o),
(375,200,o),
(377,214,cs),
(406,598,l),
(407,627,ls),
(407,667,o),
(397,679,o),
(381,708,cs)
);
}
);
width = 496;
}
);
unicode = 52;
},
{
glyphname = five;
kernLeft = five;
kernRight = five;
lastChange = "2024-03-07 20:05:52 +0000";
layers = (
{
layerId = m01;
shapes = (
{
closed = 1;
nodes = (
(428,588,o),
(453,669,o),
(453,701,cs),
(453,709,o),
(452,714,o),
(448,714,cs),
(444,714,o),
(439,710,o),
(433,701,cs),
(412,674,o),
(349,659,o),
(307,659,cs),
(252,659,o),
(190,681,o),
(157,710,c),
(155,713,o),
(153,714,o),
(150,714,cs),
(120,714,o),
(78,575,o),
(78,572,cs),
(69,455,o),
(56,350,o),
(48,240,cs),
(47,229,o),
(52,224,o),
(60,224,cs),
(85,224,o),
(138,268,o),
(140,302,cs),
(150,431,o),
(153,564,o),
(162,686,c),
(83,548,l),
(122,511,o),
(190,489,o),
(247,489,cs),
(301,489,o),
(350,486,o),
(401,553,cs)
);
},
{
closed = 1;
nodes = (
(53,251,o),
(48,240,o),
(48,232,cs),
(48,224,o),
(54,219,o),
(63,219,cs),
(79,219,o),
(105,233,o),
(127,263,cs),
(148,292,o),
(209,318,o),
(263,318,cs),
(315,318,o),
(361,294,o),
(361,227,cs),
(361,202,o),
(354,171,o),
(340,133,cs),
(338,128,o),
(337,124,o),
(337,122,cs),
(337,119,o),
(338,118,o),
(340,118,cs),
(355,118,o),
(431,204,o),
(448,249,cs),
(459,277,o),
(464,303,o),
(464,326,cs),
(464,401,o),
(413,449,o),
(339,449,cs),
(262,449,o),
(158,396,o),
(63,265,cs)
);
},
{
closed = 1;
nodes = (
(440,238,o),
(453,291,o),
(453,313,cs),
(453,320,o),
(452,324,o),
(449,324,cs),
(445,324,o),
(438,316,o),
(428,296,cs),
(381,204,o),
(306,125,o),
(248,125,cs),
(211,125,o),
(181,155,o),
(168,231,cs),
(164,257,o),
(36,131,o),
(40,107,cs),
(54,24,o),
(102,-15,o),
(161,-15,cs),
(244,-15,o),
(349,60,o),
(420,198,cs)
);
}
);
width = 514;
}
);
unicode = 53;
},
{
glyphname = six;
kernLeft = six;
kernRight = six;
lastChange = "2024-03-07 20:05:52 +0000";
layers = (
{
layerId = m01;
shapes = (
{
closed = 1;
nodes = (
(59,128,o),
(61,123,o),
(65,123,cs),
(78,123,o),
(114,184,o),
(118,221,cs),
(122,259,o),
(172,291,o),
(220,291,cs),
(264,291,o),
(306,264,o),
(306,189,cs),
(306,169,o),
(303,145,o),
(296,118,cs),
(294,111,o),
(295,108,o),
(297,108,cs),
(312,108,o),
(390,213,o),
(398,248,cs),
(403,266,o),
(405,282,o),
(405,297,cs),
(405,382,o),
(343,438,o),
(271,438,cs),
(183,438,o),
(81,355,o),
(60,139,cs)
);
},
{
closed = 1;
nodes = (
(397,240,o),
(398,247,o),
(398,252,cs),
(398,260,o),
(395,263,o),
(390,263,cs),
(371,263,o),
(327,222,o),
(311,177,cs),
(297,139,o),
(264,108,o),
(226,108,cs),
(207,108,o),
(187,116,o),
(168,134,cs),
(141,160,o),
(130,194,o),
(130,233,cs),
(130,375,o),
(283,576,o),
(316,634,cs),
(321,642,o),
(323,649,o),
(323,653,cs),
(323,661,o),
(318,664,o),
(309,664,cs),
(287,664,o),
(242,639,o),
(222,604,cs),
(187,543,o),
(5,288,o),
(5,121,cs),
(5,80,o),
(16,44,o),
(44,18,cs),
(64,-1,o),
(98,-16,o),
(139,-16,cs),
(219,-16,o),
(324,40,o),
(393,231,cs)
);
},
{
closed = 1;
nodes = (
(343,588,o),
(368,670,o),
(368,702,cs),
(368,710,o),
(367,715,o),
(363,715,cs),
(359,715,o),
(354,711,o),
(348,702,cs),
(337,689,o),
(312,681,o),
(283,681,cs),
(251,681,o),
(216,690,o),
(195,710,cs),
(173,732,o),
(115,616,o),
(115,566,cs),
(115,558,o),
(117,551,o),
(121,548,c),
(143,526,o),
(182,511,o),
(221,511,cs),
(257,511,o),
(292,523,o),
(316,554,cs)
);
}
);
width = 454;
}
);
unicode = 54;
},
{
glyphname = seven;
kernLeft = seven;
kernRight = seven;
lastChange = "2024-03-07 20:05:52 +0000";
layers = (
{
layerId = m01;
shapes = (
{
closed = 1;
nodes = (
(426,681,o),
(429,691,o),
(429,698,cs),
(429,709,o),
(423,714,o),
(413,714,cs),
(386,714,o),
(331,676,o),
(306,625,cs),
(287,588,o),
(57,40,o),
(56,38,cs),
(52,28,o),
(50,20,o),
(50,14,cs),
(50,3,o),
(56,-1,o),
(65,-1,cs),
(93,-1,o),
(155,43,o),
(176,94,cs),
(183,111,o),
(405,639,o),
(420,669,cs)
);
},
{
closed = 1;
nodes = (
(352,608,o),
(405,704,o),
(385,704,cs),
(381,704,o),
(374,700,o),
(363,691,cs),
(345,675,o),
(292,662,o),
(235,662,cs),
(180,662,o),
(122,674,o),
(91,710,cs),
(69,734,o),
(10,618,o),
(10,567,cs),
(10,559,o),
(11,552,o),
(15,548,cs),
(45,514,o),
(87,499,o),
(133,499,cs),
(191,499,o),
(255,524,o),
(305,567,cs)
);
}
);
width = 399;
}
);
unicode = 55;
},
{
glyphname = eight;
kernLeft = eight;
kernRight = eight;
lastChange = "2024-03-07 20:05:52 +0000";
layers = (
{
layerId = m01;
shapes = (
{
closed = 1;
nodes = (
(243,425,o),
(235,407,o),
(235,397,cs),
(235,390,o),
(239,387,o),
(245,387,cs),
(263,387,o),
(303,416,o),
(340,466,cs),
(393,540,o),
(415,598,o),
(415,639,cs),
(415,689,o),
(382,714,o),
(337,714,cs),
(297,714,o),
(246,694,o),
(200,654,cs),
(150,612,o),
(118,562,o),
(132,562,cs),
(138,562,o),
(151,570,o),
(172,588,cs),
(179,594,o),
(187,596,o),
(196,596,cs),
(232,596,o),
(280,555,o),
(280,504,cs),
(280,487,o),
(275,469,o),
(262,452,cs)
);
},
{
closed = 1;
nodes = (
(196,630,o),
(195,632,o),
(192,632,cs),
(175,632,o),
(82,546,o),
(67,510,cs),
(59,491,o),
(55,474,o),
(55,458,cs),
(55,398,o),
(109,359,o),
(159,311,cs),
(166,304,o),
(288,426,o),
(281,433,cs),
(231,481,o),
(184,526,o),
(184,581,cs),
(184,595,o),
(187,609,o),
(193,624,cs)
);
},
{
closed = 1;
nodes = (
(204,319,o),
(211,333,o),
(211,340,cs),
(211,345,o),
(208,347,o),
(202,347,cs),
(180,347,o),
(128,318,o),
(87,271,cs),
(36,214,o),
(15,156,o),
(15,107,cs),
(15,38,o),
(58,-12,o),
(123,-12,cs),
(159,-12,o),
(202,3,o),
(248,39,cs),
(299,79,o),
(342,139,o),
(326,139,cs),
(321,139,o),
(311,134,o),
(294,121,cs),
(277,107,o),
(260,101,o),
(245,101,cs),
(195,101,o),
(161,166,o),
(161,225,cs),
(161,253,o),
(168,280,o),
(185,299,cs)
);
},
{
closed = 1;
nodes = (
(274,83,o),
(273,79,o),
(273,78,cs),
(273,76,o),
(274,75,o),
(275,75,cs),
(291,75,o),
(382,160,o),
(400,195,cs),
(414,224,o),
(421,248,o),
(421,268,cs),
(421,338,o),
(352,374,o),
(290,430,c),
(282,436,o),
(161,315,o),
(168,308,cs),
(227,255,o),
(291,209,o),
(291,143,cs),
(291,126,o),
(287,107,o),
(276,87,cs)
);
}
);
width = 461;
}
);
unicode = 56;
},
{
glyphname = nine;
kernLeft = nine;
kernRight = nine;
lastChange = "2024-03-07 20:05:52 +0000";
layers = (
{
layerId = m01;
shapes = (
{
closed = 1;
nodes = (
(372,571,o),
(370,575,o),
(366,575,cs),
(353,575,o),
(316,513,o),
(313,478,cs),
(309,433,o),
(265,402,o),
(222,402,cs),
(180,402,o),
(139,432,o),
(139,511,cs),
(139,532,o),
(142,556,o),
(149,585,cs),
(150,591,o),
(149,593,o),
(147,593,cs),
(132,593,o),
(54,491,o),
(45,453,cs),
(42,437,o),
(40,421,o),
(40,406,cs),
(40,318,o),
(102,257,o),
(173,257,cs),
(256,257,o),
(351,340,o),
(371,560,cs)
);
},
{
closed = 1;
nodes = (
(46,458,o),
(44,451,o),
(44,446,cs),
(44,439,o),
(48,436,o),
(53,436,cs),
(72,436,o),
(116,478,o),
(132,522,cs),
(146,560,o),
(180,591,o),
(218,591,cs),
(237,591,o),
(256,584,o),
(275,565,cs),
(300,540,o),
(310,507,o),
(310,469,cs),
(310,326,o),
(160,122,o),
(127,65,cs),
(122,57,o),
(120,50,o),
(120,45,cs),
(120,38,o),
(125,35,o),
(133,35,cs),
(155,35,o),
(202,62,o),
(221,95,cs),
(257,158,o),
(435,415,o),
(435,581,cs),
(435,621,o),
(424,656,o),
(399,681,cs),
(380,701,o),
(346,716,o),
(304,716,cs),
(225,716,o),
(119,659,o),
(50,468,cs)
);
},
{
closed = 1;
nodes = (
(95,122,o),
(65,30,o),
(65,-3,cs),
(65,-11,o),
(67,-15,o),
(70,-15,cs),
(73,-15,o),
(77,-13,o),
(82,-7,cs),
(95,8,o),
(122,15,o),
(150,15,cs),
(183,15,o),
(218,6,o),
(238,-12,cs),
(262,-32,o),
(318,85,o),
(318,134,cs),
(318,142,o),
(316,148,o),
(312,152,cs),
(290,171,o),
(250,183,o),
(211,183,cs),
(176,183,o),
(142,173,o),
(120,149,cs)
);
}
);
width = 464;
}
);
unicode = 57;
},
{
glyphname = zero.dnom;
kernLeft = zerodnom;
kernRight = zerodnom;
lastChange = "2024-03-07 20:05:52 +0000";
layers = (
{
anchors = (
{
name = _right;
pos = (83,457);
}
);
layerId = m01;
shapes = (
{
closed = 1;
nodes = (
(317,247,o),
(318,255,o),
(318,261,cs),
(318,279,o),
(310,287,o),
(300,287,cs),
(279,287,o),
(246,257,o),
(235,209,cs),
(223,161,o),
(182,129,o),
(147,129,cs),
(118,129,o),
(94,151,o),
(94,202,cs),
(94,215,o),
(95,230,o),
(99,247,cs),
(100,254,o),
(101,261,o),
(101,266,cs),
(101,285,o),
(94,293,o),
(83,293,cs),
(61,293,o),
(27,260,o),
(17,211,cs),
(12,186,o),
(10,163,o),
(10,142,cs),
(10,47,o),
(58,-7,o),
(118,-7,cs),
(188,-7,o),
(275,68,o),
(315,239,cs)
);
},
{
closed = 1;
nodes = (
(17,215,o),
(15,205,o),
(15,196,cs),
(15,178,o),
(23,169,o),
(35,169,cs),
(53,169,o),
(81,193,o),
(95,237,cs),
(114,293,o),
(153,322,o),
(185,322,cs),
(215,322,o),
(240,298,o),
(240,249,cs),
(240,238,o),
(238,226,o),
(236,213,cs),
(235,206,o),
(234,200,o),
(234,195,cs),
(234,177,o),
(242,168,o),
(252,168,cs),
(274,168,o),
(309,202,o),
(318,251,cs),
(322,272,o),
(324,292,o),
(324,310,cs),
(324,401,o),
(278,458,o),
(218,458,cs),
(154,458,o),
(73,390,o),
(21,227,cs)
);
}
);
width = 363;
}
);
},
{
glyphname = one.dnom;
kernLeft = onednom;
kernRight = onednom;
lastChange = "2024-03-07 20:05:52 +0000";
layers = (
{
anchors = (
{
name = _right;
pos = (78,457);
}
);
layerId = m01;
shapes = (
{
closed = 1;
nodes = (
(181,467,o),
(80,370,o),
(90,353,cs),
(97,342,o),
(99,338,o),
(99,329,cs),
(97,303,ls),
(91,224,o),
(86,144,o),
(81,65,cs),
(78,27,o),
(87,14,o),
(104,2,cs),
(120,-8,o),
(219,90,o),
(202,102,cs),
(193,108,o),
(190,111,o),
(190,125,cs),
(191,147,ls),
(196,226,o),
(201,306,o),
(207,385,cs),
(210,421,o),
(203,429,o),
(192,449,cs)
);
},
{
closed = 1;
nodes = (
(174,436,o),
(173,438,o),
(170,438,cs),
(153,438,o),
(82,366,o),
(77,340,cs),
(70,302,o),
(50,245,o),
(32,231,cs),
(23,224,o),
(20,219,o),
(20,214,cs),
(20,208,o),
(28,204,o),
(40,204,cs),
(55,204,o),
(76,210,o),
(92,223,cs),
(162,279,o),
(163,375,o),
(173,430,cs)
);
}
);
width = 278;
}
);
},
{
glyphname = two.dnom;
kernLeft = twodnom;
kernRight = twodnom;
lastChange = "2024-03-07 20:05:52 +0000";
layers = (
{
anchors = (
{
name = _right;
pos = (236,453);
}
);
guides = (
{
pos = (-32,453);
},
{
pos = (186,0);
}
);
layerId = m01;
shapes = (
{
closed = 1;
nodes = (
(2,95,o),
(-2,79,o),
(-2,68,cs),
(-2,53,o),
(5,45,o),
(17,45,cs),
(31,45,o),
(51,58,o),
(70,88,cs),
(121,171,o),
(130,172,o),
(209,250,cs),
(252,293,o),
(270,335,o),
(270,370,cs),
(270,422,o),
(232,458,o),
(184,458,cs),
(137,458,o),
(81,423,o),
(43,334,cs),
(31,305,o),
(26,279,o),
(26,262,cs),
(26,250,o),
(29,242,o),
(34,242,cs),
(41,242,o),
(51,254,o),
(63,282,cs),
(77,317,o),
(104,331,o),
(126,331,cs),
(145,331,o),
(161,320,o),
(161,303,cs),
(161,294,o),
(156,283,o),
(145,272,cs),
(103,231,o),
(63,195,o),
(14,114,cs)
);
},
{
closed = 1;
nodes = (
(11,123,o),
(-20,44,o),
(-20,12,cs),
(-20,4,o),
(-18,-1,o),
(-14,-1,cs),
(-12,-1,o),
(-11,0,o),
(-9,1,cs),
(17,13,o),
(68,26,o),
(114,26,cs),
(147,26,o),
(178,19,o),
(194,1,cs),
(208,-14,o),
(254,84,o),
(254,118,cs),
(254,122,o),
(253,126,o),
(252,127,cs),
(230,152,o),
(195,161,o),
(159,161,cs),
(111,161,o),
(59,145,o),
(29,131,cs)
);
}
);
width = 310;
}
);
},
{
glyphname = three.dnom;
kernLeft = threednom;
kernRight = threednom;
lastChange = "2024-03-07 20:05:52 +0000";
layers = (
{
anchors = (
{
name = _right;
pos = (78,457);
}
);
layerId = m01;
shapes = (
{
closed = 1;
nodes = (
(265,333,o),
(291,406,o),
(291,437,cs),
(291,446,o),
(289,451,o),
(284,451,cs),
(283,451,o),
(280,450,o),
(278,448,c),
(262,438,o),
(214,434,o),
(187,434,cs),
(155,434,o),
(127,440,o),
(108,450,cs),
(91,459,o),
(48,366,o),
(48,333,cs),
(48,327,o),
(50,323,o),
(52,322,cs),
(75,310,o),
(108,302,o),
(143,302,cs),
(173,302,o),
(217,302,o),
(244,320,cs)
);
},
{
closed = 1;
nodes = (
(64,196,o),
(54,179,o),
(54,170,cs),
(54,166,o),
(56,163,o),
(60,163,cs),
(65,163,o),
(74,167,o),
(87,177,cs),
(103,191,o),
(126,199,o),
(148,199,cs),
(183,199,o),
(215,181,o),
(215,139,cs),
(215,125,o),
(211,109,o),
(203,90,cs),
(201,83,o),
(200,78,o),
(200,75,cs),
(200,72,o),
(201,71,o),
(203,71,cs),
(217,71,o),
(271,128,o),
(287,166,cs),
(296,188,o),
(300,208,o),
(300,224,cs),
(300,262,o),
(275,283,o),
(236,283,cs),
(196,283,o),
(141,261,o),
(83,213,cs)
);
},
{
closed = 1;
nodes = (
(282,152,o),
(291,190,o),
(291,210,cs),
(291,219,o),
(290,224,o),
(286,224,cs),
(282,224,o),
(275,216,o),
(265,196,cs),
(242,150,o),
(197,108,o),
(163,108,cs),
(144,108,o),
(127,122,o),
(120,158,cs),
(116,183,o),
(16,83,o),
(20,62,cs),
(28,17,o),
(63,-9,o),
(105,-9,cs),
(157,-9,o),
(220,29,o),
(265,118,cs)
);
},
{
closed = 1;
nodes = (
(255,329,o),
(260,337,o),
(260,342,cs),
(260,346,o),
(256,348,o),
(250,348,cs),
(232,348,o),
(189,329,o),
(160,300,cs),
(147,287,o),
(79,210,o),
(78,208,c),
(69,199,o),
(66,192,o),
(66,188,cs),
(66,185,o),
(68,183,o),
(73,183,cs),
(92,183,o),
(143,209,o),
(172,242,cs),
(244,318,ls)
);
}
);
width = 355;
}
);
},
{
glyphname = four.dnom;
kernLeft = fourdnom;
kernRight = fourdnom;
lastChange = "2024-03-07 20:05:52 +0000";
layers = (
{
anchors = (
{
name = _right;
pos = (307,457);
}
);
layerId = m01;
shapes = (
{
closed = 1;
nodes = (
(28,244,o),
(-9,140,o),
(2,140,cs),
(245,140,ls),
(257,140,o),
(295,244,o),
(283,244,cs),
(40,244,ls)
);
},
{
closed = 1;
nodes = (
(26,230,o),
(22,209,o),
(22,193,cs),
(22,180,o),
(25,169,o),
(31,169,cs),
(34,169,o),
(37,171,o),
(41,175,cs),
(161,319,ls),
(170,330,o),
(175,350,o),
(175,366,cs),
(175,379,o),
(171,390,o),
(165,390,cs),
(163,390,o),
(159,388,o),
(155,383,cs),
(35,241,ls)
);
},
{
closed = 1;
nodes = (
(231,466,o),
(130,369,o),
(140,352,cs),
(148,338,o),
(152,335,o),
(152,321,cs),
(150,300,ls),
(144,224,o),
(137,147,o),
(132,70,cs),
(130,27,o),
(135,14,o),
(155,2,cs),
(171,-8,o),
(271,91,o),
(253,102,cs),
(243,109,o),
(237,110,o),
(237,132,cs),
(237,136,o),
(237,142,o),
(238,148,cs),
(242,224,o),
(249,301,o),
(256,378,cs),
(257,399,ls),
(257,422,o),
(252,431,o),
(242,448,cs)
);
}
);
width = 335;
}
);
},
{
glyphname = five.dnom;
kernLeft = fivednom;
kernRight = fivednom;
lastChange = "2024-03-07 20:05:52 +0000";
layers = (
{
anchors = (
{
name = _left;
pos = (6,800);
},
{
name = _right;
pos = (68,457);
},
{
name = left;
pos = (308,800);
}
);
layerId = m01;
shapes = (
{
closed = 1;
nodes = (
(254,323,o),
(288,416,o),
(288,444,cs),
(288,449,o),
(287,452,o),
(285,452,cs),
(284,452,ls),
(256,446,o),
(223,442,o),
(187,442,cs),
(158,442,o),
(127,445,o),
(95,449,cs),
(65,454,o),
(31,344,o),
(31,339,cs),
(27,274,o),
(17,214,o),
(14,152,cs),
(13,143,o),
(17,140,o),
(23,140,cs),
(44,140,o),
(93,182,o),
(94,210,cs),
(99,285,o),
(97,362,o),
(101,433,c),
(37,323,l),
(79,316,o),
(121,312,o),
(160,312,cs),
(189,312,o),
(217,315,o),
(240,320,cs)
);
},
{
closed = 1;
nodes = (
(25,179,o),
(16,162,o),
(16,151,cs),
(16,144,o),
(19,140,o),
(26,140,cs),
(35,140,o),
(49,146,o),
(66,163,cs),
(81,177,o),
(116,191,o),
(146,191,cs),
(175,191,o),
(199,178,o),
(199,140,cs),
(199,126,o),
(195,108,o),
(187,86,cs),
(185,80,o),
(185,77,o),
(185,74,cs),
(185,71,o),
(186,70,o),
(188,70,cs),
(203,70,o),
(259,131,o),
(273,168,cs),
(281,191,o),
(284,210,o),
(284,226,cs),
(284,269,o),
(260,291,o),
(221,291,cs),
(176,291,o),
(112,261,o),
(44,197,cs)
);
},
{
closed = 1;
nodes = (
(264,156,o),
(273,194,o),
(273,214,cs),
(273,223,o),
(271,228,o),
(268,228,cs),
(264,228,o),
(257,220,o),
(247,200,cs),
(223,152,o),
(177,107,o),
(144,107,cs),
(128,107,o),
(116,117,o),
(110,143,cs),
(105,167,o),
(5,68,o),
(10,47,cs),
(17,12,o),
(46,-8,o),
(83,-8,cs),
(135,-8,o),
(201,31,o),
(247,122,cs)
);
}
);
width = 337;
}
);
},
{
glyphname = six.dnom;
kernLeft = sixdnom;
kernRight = sixdnom;
lastChange = "2024-03-07 20:05:52 +0000";
layers = (
{
anchors = (
{
name = _left;
pos = (1,800);
},
{
name = _right;
pos = (63,457);
},
{
name = left;
pos = (303,800);
}
);
layerId = m01;
shapes = (
{
closed = 1;
nodes = (
(43,79,o),
(45,74,o),
(50,74,cs),
(61,74,o),
(87,110,o),
(90,142,cs),
(92,157,o),
(116,171,o),
(140,171,cs),
(163,171,o),
(186,157,o),
(186,118,cs),
(186,105,o),
(184,90,o),
(178,71,cs),
(177,67,o),
(176,64,o),
(176,62,cs),
(176,59,o),
(177,58,o),
(179,58,cs),
(192,58,o),
(248,129,o),
(258,163,cs),
(262,176,o),
(264,188,o),
(264,200,cs),
(264,251,o),
(227,283,o),
(184,283,cs),
(126,283,o),
(57,228,o),
(44,90,cs)
);
},
{
closed = 1;
nodes = (
(255,148,o),
(256,154,o),
(256,159,cs),
(256,168,o),
(250,173,o),
(243,173,cs),
(227,173,o),
(200,152,o),
(188,119,cs),
(182,102,o),
(166,89,o),
(149,89,cs),
(140,89,o),
(131,92,o),
(123,100,cs),
(108,114,o),
(102,133,o),
(102,154,cs),
(102,233,o),
(189,342,o),
(208,375,cs),
(212,383,o),
(214,390,o),
(214,395,cs),
(214,404,o),
(207,408,o),
(197,408,cs),
(179,408,o),
(151,394,o),
(136,369,cs),
(116,333,o),
(5,176,o),
(5,74,cs),
(5,48,o),
(12,26,o),
(29,10,cs),
(36,3,o),
(58,-5,o),
(85,-5,cs),
(137,-5,o),
(211,24,o),
(252,141,cs)
);
},
{
closed = 1;
nodes = (
(212,333,o),
(240,406,o),
(240,438,cs),
(240,447,o),
(238,453,o),
(233,453,cs),
(231,453,o),
(229,452,o),
(227,451,cs),
(218,446,o),
(199,443,o),
(179,443,cs),
(162,443,o),
(145,445,o),
(135,450,cs),
(111,461,o),
(70,383,o),
(70,343,cs),
(70,333,o),
(73,325,o),
(79,322,cs),
(97,313,o),
(118,309,o),
(138,309,cs),
(158,309,o),
(177,314,o),
(191,321,cs)
);
}
);
width = 313;
}
);
},
{
glyphname = seven.dnom;
kernLeft = sevendnom;
kernRight = sevendnom;
lastChange = "2024-03-07 20:05:52 +0000";
layers = (
{
anchors = (
{
name = _left;
pos = (17,800);
},
{
name = _right;
pos = (79,457);
},
{
name = left;
pos = (319,800);
}
);
guides = (
{
pos = (13,450);
},
{
pos = (231,0);
}
);
layerId = m01;
shapes = (
{
closed = 1;
nodes = (
(293,419,o),
(295,427,o),
(295,433,cs),
(295,444,o),
(287,449,o),
(277,449,cs),
(260,449,o),
(234,435,o),
(219,406,cs),
(208,385,o),
(57,38,o),
(54,29,cs),
(52,23,o),
(51,19,o),
(51,15,cs),
(51,4,o),
(58,-1,o),
(67,-1,cs),
(87,-1,o),
(121,22,o),
(132,53,c),
(133,58,o),
(281,399,o),
(287,410,cs)
);
},
{
closed = 1;
nodes = (
(225,344,o),
(272,415,o),
(272,438,cs),
(272,442,o),
(270,445,o),
(266,445,cs),
(264,445,o),
(261,445,o),
(257,443,cs),
(235,432,o),
(211,427,o),
(184,427,cs),
(153,427,o),
(119,434,o),
(81,450,cs),
(62,459,o),
(20,373,o),
(20,337,cs),
(20,329,o),
(22,323,o),
(27,322,c),
(53,310,o),
(77,305,o),
(100,305,cs),
(132,305,o),
(163,315,o),
(197,331,cs)
);
}
);
width = 316;
}
);
},
{
glyphname = eight.dnom;
kernLeft = eightdnom;
kernRight = eightdnom;
lastChange = "2024-03-07 20:05:52 +0000";
layers = (
{
anchors = (
{
name = _right;
pos = (270,453);
}
);
guides = (
{
pos = (80,450);
},
{
pos = (298,0);
}
);
layerId = m01;
shapes = (
{
closed = 1;
nodes = (
(164,283,o),
(160,273,o),
(160,265,cs),
(160,258,o),
(165,254,o),
(172,254,cs),
(183,254,o),
(201,264,o),
(217,287,cs),
(252,334,o),
(266,372,o),
(266,401,cs),
(266,436,o),
(245,455,o),
(214,455,cs),
(191,455,o),
(161,443,o),
(131,418,cs),
(91,384,o),
(73,348,o),
(87,348,cs),
(93,348,o),
(104,354,o),
(121,368,cs),
(123,370,o),
(127,371,o),
(131,371,cs),
(150,371,o),
(185,354,o),
(185,325,cs),
(185,317,o),
(182,307,o),
(175,297,cs)
);
},
{
closed = 1;
nodes = (
(137,403,o),
(136,406,o),
(133,406,cs),
(118,406,o),
(60,354,o),
(48,325,cs),
(42,312,o),
(40,301,o),
(40,291,cs),
(40,250,o),
(76,228,o),
(107,198,cs),
(114,192,o),
(194,271,o),
(187,278,cs),
(155,307,o),
(129,338,o),
(129,370,cs),
(129,378,o),
(131,387,o),
(134,395,cs)
);
},
{
closed = 1;
nodes = (
(135,193,o),
(140,204,o),
(140,211,cs),
(140,220,o),
(133,225,o),
(123,225,cs),
(109,225,o),
(86,214,o),
(65,191,cs),
(30,150,o),
(15,108,o),
(15,74,cs),
(15,27,o),
(43,-7,o),
(86,-7,cs),
(109,-7,o),
(136,2,o),
(165,25,cs),
(206,56,o),
(234,102,o),
(218,102,cs),
(213,102,o),
(204,97,o),
(191,87,cs),
(181,80,o),
(172,76,o),
(163,76,cs),
(134,76,o),
(112,114,o),
(112,147,cs),
(112,159,o),
(116,171,o),
(123,179,cs)
);
},
{
closed = 1;
nodes = (
(176,59,o),
(175,56,o),
(175,54,cs),
(175,51,o),
(176,50,o),
(178,50,cs),
(192,50,o),
(247,98,o),
(262,128,cs),
(271,147,o),
(275,162,o),
(275,176,cs),
(275,220,o),
(230,240,o),
(192,276,cs),
(185,282,o),
(105,203,o),
(112,196,cs),
(149,163,o),
(185,132,o),
(185,94,cs),
(185,84,o),
(183,74,o),
(178,64,cs)
);
}
);
width = 314;
}
);
},
{
glyphname = nine.dnom;
kernLeft = ninednom;
kernRight = ninednom;
lastChange = "2024-03-07 20:05:52 +0000";
layers = (
{
anchors = (
{
name = _left;
pos = (11,800);
},
{
name = _right;
pos = (73,457);
},
{
name = left;
pos = (313,800);
}
);
guides = (
{
pos = (7,450);
},
{
pos = (225,0);
}
);
layerId = m01;
shapes = (
{
closed = 1;
nodes = (
(236,378,o),
(233,383,o),
(229,383,cs),
(217,383,o),
(191,348,o),
(188,316,cs),
(187,309,o),
(154,287,o),
(127,287,cs),
(107,287,o),
(90,298,o),
(90,334,cs),
(90,346,o),
(92,360,o),
(96,377,cs),
(98,384,o),
(97,387,o),
(94,387,cs),
(80,387,o),
(26,318,o),
(18,285,cs),
(16,276,o),
(15,266,o),
(15,258,cs),
(15,208,o),
(49,178,o),
(92,178,cs),
(149,178,o),
(219,232,o),
(234,366,cs)
);
},
{
closed = 1;
nodes = (
(21,299,o),
(20,293,o),
(20,289,cs),
(20,281,o),
(23,277,o),
(29,277,cs),
(42,277,o),
(65,296,o),
(76,325,cs),
(86,352,o),
(105,366,o),
(125,366,cs),
(137,366,o),
(150,360,o),
(161,349,cs),
(173,338,o),
(178,322,o),
(178,303,cs),
(178,229,o),
(98,111,o),
(75,67,cs),
(70,59,o),
(68,52,o),
(68,46,cs),
(68,37,o),
(75,32,o),
(84,32,cs),
(98,32,o),
(120,44,o),
(133,69,cs),
(148,97,o),
(268,260,o),
(268,369,cs),
(268,396,o),
(261,419,o),
(243,437,cs),
(229,450,o),
(209,458,o),
(187,458,cs),
(134,458,o),
(65,416,o),
(24,307,cs)
);
},
{
closed = 1;
nodes = (
(60,119,o),
(31,45,o),
(31,14,cs),
(31,5,o),
(33,-1,o),
(38,-1,cs),
(39,-1,o),
(40,0,o),
(42,0,c),
(52,4,o),
(74,7,o),
(96,7,cs),
(113,7,o),
(129,5,o),
(137,0,cs),
(157,-10,o),
(196,72,o),
(196,108,cs),
(196,116,o),
(195,121,o),
(191,124,c),
(177,131,o),
(156,134,o),
(134,134,cs),
(113,134,o),
(91,131,o),
(78,126,cs)
);
}
);
width = 308;
}
);
},
{
glyphname = zero.numr;
kernLeft = zeronumr;
kernRight = zeronumr;
lastChange = "2024-03-07 20:05:52 +0000";
layers = (
{
anchors = (
{
name = _left;
pos = (251,269);
}
);
guides = (
{
pos = (254,262);
},
{
pos = (265,708);
}
);
layerId = m01;
shapes = (
{
closed = 1;
nodes = (
(347,507,o),
(348,515,o),
(348,521,cs),
(348,539,o),
(340,547,o),
(330,547,cs),
(309,547,o),
(276,517,o),
(265,469,cs),
(253,421,o),
(212,389,o),
(177,389,cs),
(148,389,o),
(124,411,o),
(124,462,cs),
(124,475,o),
(125,490,o),
(129,507,cs),
(130,514,o),
(131,521,o),
(131,526,cs),
(131,545,o),
(124,553,o),
(113,553,cs),
(91,553,o),
(57,520,o),
(47,471,cs),
(42,446,o),
(40,423,o),
(40,402,cs),
(40,307,o),
(88,253,o),
(148,253,cs),
(218,253,o),
(305,328,o),
(345,499,cs)
);
},
{
closed = 1;
nodes = (
(47,475,o),
(45,465,o),
(45,456,cs),
(45,438,o),
(53,429,o),
(65,429,cs),
(83,429,o),
(111,453,o),
(125,497,cs),
(144,553,o),
(183,582,o),
(215,582,cs),
(245,582,o),
(270,558,o),
(270,509,cs),
(270,498,o),
(268,486,o),
(266,473,cs),
(265,466,o),
(264,460,o),
(264,455,cs),
(264,437,o),
(272,428,o),
(282,428,cs),
(304,428,o),
(339,462,o),
(348,511,cs),
(352,532,o),
(354,552,o),
(354,570,cs),
(354,661,o),
(308,718,o),
(248,718,cs),
(184,718,o),
(103,650,o),
(51,487,cs)
);
}
);
width = 373;
}
);
},
{
glyphname = one.numr;
kernLeft = onenumr;
kernRight = onenumr;
lastChange = "2024-03-07 20:05:52 +0000";
layers = (
{
anchors = (
{
name = _left;
pos = (216,269);
}
);
guides = (
{
pos = (192,714);
},
{
pos = (10,265);
}
);
layerId = m01;
shapes = (
{
closed = 1;
nodes = (
(181,727,o),
(80,630,o),
(90,613,cs),
(97,602,o),
(99,598,o),
(99,589,cs),
(97,563,ls),
(91,484,o),
(86,404,o),
(81,325,cs),
(78,287,o),
(87,274,o),
(104,262,cs),
(120,252,o),
(219,350,o),
(202,362,cs),
(193,368,o),
(190,371,o),
(190,385,cs),
(191,407,ls),
(196,486,o),
(201,566,o),
(207,645,cs),
(210,681,o),
(203,689,o),
(192,709,cs)
);
},
{
closed = 1;
nodes = (
(174,696,o),
(173,698,o),
(170,698,cs),
(153,698,o),
(82,626,o),
(77,600,cs),
(70,562,o),
(50,505,o),
(32,491,cs),
(23,484,o),
(20,479,o),
(20,474,cs),
(20,468,o),
(28,464,o),
(40,464,cs),
(55,464,o),
(76,470,o),
(92,483,cs),
(162,539,o),
(163,635,o),
(173,690,cs)
);
}
);
width = 278;
}
);
},
{
glyphname = two.numr;
kernLeft = twonumr;
kernRight = twonumr;
lastChange = "2024-03-07 20:05:52 +0000";
layers = (
{
anchors = (
{
name = _left;
pos = (206,269);
}
);
guides = (
{
pos = (209,262);
},
{
pos = (220,708);
}
);
layerId = m01;
shapes = (
{
closed = 1;
nodes = (
(32,353,o),
(28,337,o),
(28,326,cs),
(28,311,o),
(35,303,o),
(47,303,cs),
(61,303,o),
(81,316,o),
(100,346,cs),
(151,429,o),
(160,430,o),
(239,508,cs),
(282,551,o),
(300,593,o),
(300,628,cs),
(300,680,o),
(262,716,o),
(214,716,cs),
(167,716,o),
(111,681,o),
(73,592,cs),
(61,563,o),
(56,537,o),
(56,520,cs),
(56,508,o),
(59,500,o),
(64,500,cs),
(71,500,o),
(81,512,o),
(93,540,cs),
(107,575,o),
(134,589,o),
(156,589,cs),
(175,589,o),
(191,578,o),
(191,561,cs),
(191,552,o),
(186,541,o),
(175,530,cs),
(133,489,o),
(93,453,o),
(44,372,cs)
);
},
{
closed = 1;
nodes = (
(41,381,o),
(10,302,o),
(10,270,cs),
(10,262,o),
(12,257,o),
(16,257,cs),
(18,257,o),
(19,258,o),
(21,259,cs),
(47,271,o),
(98,284,o),
(144,284,cs),
(177,284,o),
(208,277,o),
(224,259,cs),
(238,244,o),
(284,342,o),
(284,376,cs),
(284,380,o),
(283,384,o),
(282,385,cs),
(260,410,o),
(225,419,o),
(189,419,cs),
(141,419,o),
(89,403,o),
(59,389,cs)
);
}
);
width = 330;
}
);
},
{
glyphname = three.numr;
kernLeft = threenumr;
kernRight = threenumr;
lastChange = "2024-03-07 20:05:52 +0000";
layers = (
{
anchors = (
{
name = _left;
pos = (268,269);
},
{
name = right;
pos = (258,329);
}
);
guides = (
{
pos = (240,708);
}
);
layerId = m01;
shapes = (
{
closed = 1;
nodes = (
(275,594,o),
(301,667,o),
(301,698,cs),
(301,707,o),
(299,712,o),
(294,712,cs),
(293,712,o),
(290,711,o),
(288,709,c),
(272,699,o),
(224,695,o),
(197,695,cs),
(165,695,o),
(137,701,o),
(118,711,cs),
(101,720,o),
(58,627,o),
(58,594,cs),
(58,588,o),
(60,584,o),
(62,583,cs),
(85,571,o),
(118,563,o),
(153,563,cs),
(183,563,o),
(227,563,o),
(254,581,cs)
);
},
{
closed = 1;
nodes = (
(74,457,o),
(64,440,o),
(64,431,cs),
(64,427,o),
(66,424,o),
(70,424,cs),
(75,424,o),
(84,428,o),
(97,438,cs),
(113,452,o),
(136,460,o),
(158,460,cs),
(193,460,o),
(225,442,o),
(225,400,cs),
(225,386,o),
(221,370,o),
(213,351,cs),
(211,344,o),
(210,339,o),
(210,336,cs),
(210,333,o),
(211,332,o),
(213,332,cs),
(227,332,o),
(281,389,o),
(297,427,cs),
(306,449,o),
(310,469,o),
(310,485,cs),
(310,523,o),
(285,544,o),
(246,544,cs),
(206,544,o),
(151,522,o),
(93,474,cs)
);
},
{
closed = 1;
nodes = (
(292,413,o),
(301,451,o),
(301,471,cs),
(301,480,o),
(300,485,o),
(296,485,cs),
(292,485,o),
(285,477,o),
(275,457,cs),
(252,411,o),
(207,369,o),
(173,369,cs),
(154,369,o),
(137,383,o),
(130,419,cs),
(126,444,o),
(26,344,o),
(30,323,cs),
(38,278,o),
(73,252,o),
(115,252,cs),
(167,252,o),
(230,290,o),
(275,379,cs)
);
},
{
closed = 1;
nodes = (
(265,590,o),
(270,598,o),
(270,603,cs),
(270,607,o),
(266,609,o),
(260,609,cs),
(242,609,o),
(199,590,o),
(170,561,cs),
(157,548,o),
(89,471,o),
(88,469,c),
(79,460,o),
(76,453,o),
(76,449,cs),
(76,446,o),
(78,444,o),
(83,444,cs),
(102,444,o),
(153,470,o),
(182,503,cs),
(254,579,ls)
);
}
);
width = 350;
}
);
},
{
glyphname = four.numr;
kernLeft = fournumr;
kernRight = fournumr;
lastChange = "2024-03-07 20:05:52 +0000";
layers = (
{
anchors = (
{
name = _left;
pos = (226,269);
},
{
name = right;
pos = (328,329);
}
);
guides = (
{
pos = (229,262);
},
{
pos = (240,708);
}
);
layerId = m01;
shapes = (
{
closed = 1;
nodes = (
(58,503,o),
(21,399,o),
(32,399,cs),
(275,399,ls),
(287,399,o),
(325,503,o),
(313,503,cs),
(70,503,ls)
);
},
{
closed = 1;
nodes = (
(56,489,o),
(52,468,o),
(52,452,cs),
(52,439,o),
(55,428,o),
(61,428,cs),
(64,428,o),
(67,430,o),
(71,434,cs),
(191,578,ls),
(200,589,o),
(205,609,o),
(205,625,cs),
(205,638,o),
(201,649,o),
(195,649,cs),
(193,649,o),
(189,647,o),
(185,642,cs),
(65,500,ls)
);
},
{
closed = 1;
nodes = (
(261,725,o),
(160,628,o),
(170,611,cs),
(178,597,o),
(182,594,o),
(182,580,cs),
(180,559,ls),
(174,483,o),
(167,406,o),
(162,329,cs),
(160,286,o),
(165,273,o),
(185,261,cs),
(201,251,o),
(301,350,o),
(283,361,cs),
(273,368,o),
(267,369,o),
(267,391,cs),
(267,395,o),
(267,401,o),
(268,407,cs),
(272,483,o),
(279,560,o),
(286,637,cs),
(287,658,ls),
(287,681,o),
(282,690,o),
(272,707,cs)
);
}
);
width = 365;
}
);
},
{
glyphname = fraction;
kernLeft = fraction;
kernRight = fraction;
lastChange = "2024-03-07 20:05:52 +0000";
layers = (
{
anchors = (
{
name = left;
pos = (214,269);
},
{
name = right;
pos = (637,457);
}
);
layerId = m01;
shapes = (
{
closed = 1;
nodes = (
(592,656,o),
(600,677,o),
(600,692,cs),
(600,704,o),
(594,711,o),
(584,711,cs),
(571,711,o),
(550,697,o),
(527,666,cs),
(462,578,o),
(91,91,o),
(78,73,cs),
(58,47,o),
(50,24,o),
(50,9,cs),
(50,-3,o),
(55,-10,o),
(65,-10,cs),
(77,-10,o),
(97,3,o),
(120,33,c),
(121,33,o),
(513,549,o),
(573,630,cs)
);
}
);
width = 669;
}
);
unicode = 8260;
},
{
glyphname = "period-han";
lastChange = "2024-03-07 20:05:52 +0000";
layers = (
{
layerId = m01;
shapes = (
{
closed = 1;
nodes = (
(104,142,o),
(112,160,o),
(112,172,cs),
(112,180,o),
(107,185,o),
(99,185,cs),
(85,185,o),
(60,169,o),
(34,137,cs),
(-19,70,o),
(-40,11,o),
(-40,-34,cs),
(-40,-98,o),
(1,-136,o),
(52,-136,cs),
(72,-136,o),
(93,-131,o),
(115,-118,cs),
(149,-99,o),
(184,-32,o),
(184,-5,cs),
(184,3,o),
(181,8,o),
(175,8,cs),
(171,8,o),
(166,6,o),
(159,2,cs),
(144,-6,o),
(131,-10,o),
(120,-10,cs),
(85,-10,o),
(70,27,o),
(70,64,cs),
(70,85,o),
(75,106,o),
(84,117,cs)
);
},
{
closed = 1;
nodes = (
(117,-29,o),
(103,-65,o),
(103,-85,cs),
(103,-96,o),
(107,-103,o),
(115,-103,cs),
(123,-103,o),
(136,-96,o),
(153,-77,cs),
(243,21,o),
(276,95,o),
(276,146,cs),
(276,203,o),
(234,230,o),
(186,230,cs),
(159,230,o),
(129,221,o),
(104,204,cs),
(68,178,o),
(32,121,o),
(32,101,cs),
(32,96,o),
(34,93,o),
(38,93,cs),
(43,93,o),
(51,97,o),
(62,104,cs),
(80,117,o),
(94,122,o),
(107,122,cs),
(142,122,o),
(155,79,o),
(155,43,cs),
(155,25,o),
(151,8,o),
(145,1,cs)
);
}
);
width = 476;
}
);
unicode = 12290;
},
{
glyphname = period;
kernLeft = period;
kernRight = period;
lastChange = "2024-03-07 20:05:52 +0000";
layers = (
{
anchors = (
{
name = _top;
pos = (80,180);
},
{
name = top;
pos = (106,479);
}
);
layerId = m01;
shapes = (
{
closed = 1;
nodes = (
(107,200,o),
(0,95,o),
(11,83,cs),
(92,-6,ls),
(102,-18,o),
(209,88,o),
(198,100,cs),
(117,189,ls)
);
}
);
width = 223;
}
);
unicode = 46;
},
{
glyphname = comma;
kernLeft = period;
kernRight = period;
lastChange = "2024-03-07 20:05:52 +0000";
layers = (
{
anchors = (
{
name = _top;
pos = (123,785);
},
{
name = top;
pos = (125,-126);
}
);
layerId = m01;
shapes = (
{
closed = 1;
nodes = (
(97,191,o),
(15,115,o),
(15,84,cs),
(15,81,o),
(16,78,o),
(18,76,cs),
(68,31,o),
(83,2,o),
(83,-18,cs),
(83,-28,o),
(79,-36,o),
(74,-42,cs),
(53,-68,o),
(32,-90,o),
(13,-106,cs),
(2,-115,o),
(22,-128,o),
(38,-128,cs),
(42,-128,o),
(46,-127,o),
(49,-124,cs),
(94,-86,o),
(135,-56,o),
(166,-18,cs),
(187,9,o),
(196,32,o),
(196,53,cs),
(196,96,o),
(162,132,o),
(116,174,cs)
);
}
);
width = 231;
}
);
unicode = 44;
},
{
glyphname = exclam;
kernLeft = exclam;
kernRight = exclam;
lastChange = "2024-03-07 20:05:52 +0000";
layers = (
{
guides = (
{
angle = 85.4648;
pos = (128,238);
}
);
layerId = m01;
shapes = (
{
closed = 1;
nodes = (
(245,700,o),
(246,706,o),
(246,711,cs),
(246,718,o),
(242,722,o),
(235,722,cs),
(203,722,o),
(106,642,o),
(81,580,cs),
(80,578,o),
(80,572,o),
(80,562,cs),
(80,495,o),
(95,277,o),
(95,276,cs),
(94,269,o),
(97,266,o),
(102,266,cs),
(120,266,o),
(161,301,o),
(163,326,cs),
(165,343,o),
(241,692,o),
(241,692,c)
);
},
{
pos = (14,0);
ref = period;
}
);
width = 266;
}
);
unicode = 33;
},
{
glyphname = question;
kernLeft = questionmark;
kernRight = questionmark;
lastChange = "2024-03-07 20:05:52 +0000";
layers = (
{
guides = (
{
angle = 85.4648;
pos = (148,238);
}
);
layerId = m01;
shapes = (
{
pos = (34,1);
ref = period;
},
{
closed = 1;
nodes = (
(109,366,o),
(99,348,o),
(107,348,cs),
(119,348,o),
(176,391,o),
(234,454,cs),
(340,568,o),
(380,647,o),
(380,693,cs),
(380,726,o),
(360,742,o),
(327,742,cs),
(264,742,o),
(159,684,o),
(74,573,cs),
(44,535,o),
(30,501,o),
(30,483,cs),
(30,475,o),
(33,470,o),
(39,470,cs),
(49,470,o),
(66,483,o),
(90,515,cs),
(116,548,o),
(159,569,o),
(190,569,cs),
(212,569,o),
(228,559,o),
(228,537,cs),
(228,512,o),
(207,471,o),
(150,410,cs)
);
},
{
closed = 1;
nodes = (
(226,473,o),
(225,475,o),
(222,475,cs),
(199,475,o),
(93,364,o),
(86,326,c),
(86,323,o),
(98,265,o),
(98,265,c),
(97,259,o),
(100,256,o),
(105,256,cs),
(126,256,o),
(185,303,o),
(188,327,cs),
(189,332,o),
(223,454,o),
(226,468,c)
);
}
);
width = 379;
}
);
unicode = 63;
},
{
glyphname = bullet;
lastChange = "2024-03-07 20:05:52 +0000";
layers = (
{
layerId = m01;
shapes = (
{
closed = 1;
nodes = (
(146,325,o),
(156,346,o),
(156,358,cs),
(156,365,o),
(152,369,o),
(145,369,cs),
(129,369,o),
(99,348,o),
(66,307,cs),
(25,256,o),
(10,217,o),
(10,189,cs),
(10,153,o),
(36,136,o),
(63,136,cs),
(74,136,o),
(86,139,o),
(96,145,cs),
(133,166,o),
(183,254,o),
(183,285,cs),
(183,292,o),
(181,296,o),
(175,296,cs),
(172,296,o),
(167,294,o),
(162,291,cs),
(160,290,o),
(157,289,o),
(154,289,cs),
(141,289,o),
(121,294,o),
(122,295,cs)
);
},
{
closed = 1;
nodes = (
(102,236,o),
(84,194,o),
(84,171,cs),
(84,161,o),
(88,155,o),
(95,155,cs),
(103,155,o),
(116,163,o),
(134,183,cs),
(205,261,o),
(230,314,o),
(230,346,cs),
(230,376,o),
(209,389,o),
(184,389,cs),
(168,389,o),
(151,384,o),
(137,374,cs),
(95,344,o),
(43,269,o),
(43,247,cs),
(43,243,o),
(44,241,o),
(48,241,cs),
(53,241,o),
(60,244,o),
(71,252,cs),
(73,253,o),
(136,273,o),
(134,271,cs)
);
}
);
width = 275;
}
);
unicode = 8226;
},
{
glyphname = asterisk;
kernLeft = asterisk;
kernRight = asterisk;
lastChange = "2024-03-07 20:05:52 +0000";
layers = (
{
layerId = m01;
shapes = (
{
closed = 1;
nodes = (
(462,595,o),
(484,636,o),
(484,659,cs),
(484,670,o),
(479,677,o),
(469,677,cs),
(458,677,o),
(443,670,o),
(421,654,cs),
(387,628,o),
(105,379,o),
(103,377,cs),
(68,345,o),
(51,313,o),
(51,293,cs),
(51,281,o),
(57,274,o),
(68,274,cs),
(80,274,o),
(100,283,o),
(125,305,cs),
(136,315,o),
(408,554,o),
(421,564,cs)
);
},
{
closed = 1;
nodes = (
(360,282,o),
(365,281,o),
(371,281,cs),
(412,281,o),
(500,341,o),
(500,372,cs),
(500,376,o),
(498,380,o),
(495,383,cs),
(178,665,ls),
(175,668,o),
(170,669,o),
(164,669,cs),
(123,669,o),
(35,609,o),
(35,578,cs),
(35,574,o),
(37,570,o),
(40,567,cs),
(357,285,ls)
);
},
{
closed = 1;
nodes = (
(352,728,o),
(348,732,o),
(341,732,cs),
(315,732,o),
(256,679,o),
(256,647,cs),
(256,640,o),
(192,246,o),
(191,240,cs),
(189,227,o),
(194,222,o),
(202,222,cs),
(227,222,o),
(281,266,o),
(287,302,cs),
(287,304,o),
(352,706,o),
(352,719,cs)
);
}
);
width = 530;
}
);
unicode = 42;
},
{
glyphname = dblverticalbar;
lastChange = "2024-03-07 20:05:52 +0000";
layers = (
{
layerId = m01;
shapes = (
{
closed = 1;
nodes = (
(307,712,o),
(302,716,o),
(296,716,cs),
(275,716,o),
(225,675,o),
(217,641,cs),
(210,612,o),
(167,-1,o),
(167,-2,cs),
(166,-12,o),
(170,-16,o),
(177,-16,cs),
(200,-16,o),
(255,32,o),
(257,64,cs),
(259,95,o),
(307,792,o),
(307,705,cs)
);
},
{
closed = 1;
nodes = (
(170,712,o),
(165,716,o),
(159,716,cs),
(138,716,o),
(88,675,o),
(80,641,cs),
(73,612,o),
(30,-1,o),
(30,-2,cs),
(29,-12,o),
(33,-16,o),
(40,-16,cs),
(63,-16,o),
(118,32,o),
(120,64,cs),
(122,95,o),
(170,792,o),
(170,705,cs)
);
}
);
width = 337;
}
);
unicode = 8214;
},
{
glyphname = dittomark;
lastChange = "2024-03-07 20:05:52 +0000";
layers = (
{
layerId = m01;
shapes = (
{
closed = 1;
nodes = (
(205,481,o),
(208,491,o),
(208,498,cs),
(208,509,o),
(202,514,o),
(192,514,cs),
(165,514,o),
(110,476,o),
(85,425,cs),
(76,408,o),
(22,279,o),
(21,277,cs),
(17,267,o),
(15,259,o),
(15,253,cs),
(15,242,o),
(20,238,o),
(29,238,cs),
(58,238,o),
(119,283,o),
(141,333,cs),
(199,469,ls)
);
},
{
closed = 1;
nodes = (
(360,481,o),
(363,491,o),
(363,498,cs),
(363,509,o),
(357,514,o),
(347,514,cs),
(320,514,o),
(265,476,o),
(240,425,cs),
(231,408,o),
(177,279,o),
(176,277,cs),
(172,267,o),
(170,259,o),
(170,253,cs),
(170,242,o),
(175,238,o),
(184,238,cs),
(213,238,o),
(274,283,o),
(296,333,cs),
(354,469,ls)
);
}
);
width = 363;
}
);
unicode = 12291;
},
{
glyphname = numbersign;
kernLeft = hash;
kernRight = hash;
lastChange = "2024-03-07 20:05:52 +0000";
layers = (
{
layerId = m01;
shapes = (
{
closed = 1;
nodes = (
(296,611,o),
(297,616,o),
(297,620,cs),
(297,631,o),
(291,636,o),
(282,636,cs),
(251,636,o),
(181,579,o),
(167,530,cs),
(159,499,o),
(76,26,o),
(75,24,c),
(72,6,o),
(78,-2,o),
(89,-2,cs),
(121,-2,o),
(196,63,o),
(205,110,cs),
(208,131,o),
(286,573,o),
(295,606,cs)
);
},
{
closed = 1;
nodes = (
(515,610,o),
(516,616,o),
(516,620,cs),
(516,631,o),
(510,636,o),
(501,636,cs),
(471,636,o),
(404,584,o),
(387,533,cs),
(376,497,o),
(294,27,o),
(293,24,cs),
(290,6,o),
(296,-2,o),
(307,-2,cs),
(339,-2,o),
(414,63,o),
(423,110,cs),
(425,124,o),
(505,578,o),
(513,603,cs)
);
},
{
closed = 1;
nodes = (
(98,507,o),
(51,382,o),
(51,347,cs),
(51,341,o),
(52,337,o),
(55,337,cs),
(159,337,l),
(205,337,l),
(160,338,l),
(178,344,o),
(189,360,o),
(206,367,cs),
(204,366,l),
(381,367,l),
(380,368,l),
(390,362,o),
(394,344,o),
(404,339,c),
(503,338,ls),
(520,338,o),
(567,462,o),
(567,498,cs),
(567,504,o),
(566,508,o),
(563,508,cs),
(466,507,l),
(464,508,o),
(461,509,o),
(458,509,cs),
(449,509,o),
(439,505,o),
(432,508,c),
(431,509,o),
(432,509,o),
(431,509,cs),
(254,508,ls),
(240,508,o),
(273,515,o),
(252,507,cs),
(242,504,o),
(227,510,o),
(218,506,c),
(219,507,l),
(115,507,ls)
);
},
{
closed = 1;
nodes = (
(57,287,o),
(10,162,o),
(10,127,cs),
(10,121,o),
(11,117,o),
(14,117,cs),
(121,117,l),
(127,114,o),
(140,118,o),
(149,118,cs),
(152,118,o),
(154,118,o),
(156,117,c),
(157,116,o),
(156,116,o),
(157,116,cs),
(338,117,ls),
(351,117,o),
(322,110,o),
(341,118,cs),
(349,121,o),
(361,115,o),
(370,119,cs),
(368,118,l),
(462,118,ls),
(479,118,o),
(526,242,o),
(526,278,cs),
(526,284,o),
(525,288,o),
(522,288,cs),
(428,288,ls),
(415,288,o),
(444,295,o),
(426,287,cs),
(412,281,o),
(400,265,o),
(385,258,c),
(388,259,l),
(207,258,l),
(208,257,l),
(197,263,o),
(193,281,o),
(181,287,c),
(74,287,ls)
);
}
);
width = 607;
}
);
unicode = 35;
},
{
glyphname = slash;
lastChange = "2024-03-07 20:05:52 +0000";
layers = (
{
layerId = m01;
shapes = (
{
closed = 1;
nodes = (
(378,712,o),
(381,722,o),
(381,729,cs),
(381,740,o),
(375,745,o),
(365,745,cs),
(338,745,o),
(283,707,o),
(258,656,cs),
(237,615,o),
(-23,-7,o),
(-24,-9,cs),
(-28,-19,o),
(-30,-27,o),
(-30,-33,cs),
(-30,-44,o),
(-24,-48,o),
(-15,-48,cs),
(13,-48,o),
(75,-4,o),
(96,47,cs),
(108,75,o),
(349,655,o),
(372,700,cs)
);
}
);
width = 381;
}
);
unicode = 47;
},
{
glyphname = backslash;
lastChange = "2024-03-07 20:05:52 +0000";
layers = (
{
layerId = m01;
shapes = (
{
closed = 1;
nodes = (
(275,-1,o),
(338,-48,o),
(366,-48,cs),
(375,-48,o),
(381,-43,o),
(381,-33,cs),
(381,-28,o),
(380,-20,o),
(375,-10,cs),
(362,23,o),
(114,614,o),
(93,656,cs),
(68,706,o),
(12,745,o),
(-15,745,cs),
(-24,745,o),
(-30,740,o),
(-30,730,cs),
(-30,723,o),
(-28,713,o),
(-21,700,cs),
(-12,682,o),
(244,73,o),
(255,48,cs)
);
}
);
width = 381;
}
);
unicode = 92;
},
{
glyphname = slash.small;
lastChange = "2024-03-07 19:55:38 +0000";
layers = (
{
anchors = (
{
name = _center;
pos = (162,211);
}
);
layerId = m01;
shapes = (
{
closed = 1;
nodes = (
(342,321,o),
(365,370,o),
(365,398,cs),
(365,410,o),
(360,418,o),
(351,418,cs),
(345,418,o),
(336,415,o),
(326,407,cs),
(302,390,o),
(90,269,o),
(82,265,cs),
(47,245,o),
(19,187,o),
(19,158,cs),
(19,146,o),
(23,139,o),
(32,139,cs),
(37,139,o),
(44,141,o),
(52,145,c),
(53,146,o),
(274,272,o),
(308,297,cs)
);
}
);
width = 385;
}
);
},
{
glyphname = hyphen;
lastChange = "2024-03-07 20:05:52 +0000";
layers = (
{
layerId = m01;
shapes = (
{
closed = 1;
nodes = (
(62,384,o),
(15,259,o),
(15,224,cs),
(15,218,o),
(16,214,o),
(19,214,cs),
(250,212,ls),
(267,212,o),
(314,336,o),
(314,372,cs),
(314,378,o),
(313,382,o),
(310,382,cs),
(79,384,ls)
);
}
);
width = 369;
}
);
unicode = 45;
},
{
glyphname = endash;
lastChange = "2024-03-07 20:05:52 +0000";
layers = (
{
layerId = m01;
shapes = (
{
closed = 1;
nodes = (
(57,384,o),
(10,259,o),
(10,224,cs),
(10,218,o),
(11,214,o),
(14,214,cs),
(550,212,ls),
(567,212,o),
(614,336,o),
(614,372,cs),
(614,378,o),
(613,382,o),
(610,382,cs),
(74,384,ls)
);
}
);
width = 644;
}
);
unicode = 8211;
},
{
glyphname = emdash;
lastChange = "2024-03-07 20:05:52 +0000";
layers = (
{
layerId = m01;
shapes = (
{
closed = 1;
nodes = (
(57,384,o),
(10,259,o),
(10,224,cs),
(10,218,o),
(11,214,o),
(14,214,cs),
(731,212,ls),
(748,212,o),
(795,336,o),
(795,372,cs),
(795,378,o),
(794,382,o),
(791,382,cs),
(74,384,ls)
);
}
);
width = 825;
}
);
unicode = 8212;
},
{
glyphname = underscore;
lastChange = "2024-03-07 20:05:52 +0000";
layers = (
{
layerId = m01;
shapes = (
{
closed = 1;
nodes = (
(57,-21,o),
(10,-146,o),
(10,-181,cs),
(10,-187,o),
(11,-191,o),
(14,-191,cs),
(550,-193,ls),
(567,-193,o),
(614,-69,o),
(614,-33,cs),
(614,-27,o),
(613,-23,o),
(610,-23,cs),
(74,-21,ls)
);
}
);
width = 644;
}
);
unicode = 95;
},
{
glyphname = wavedash;
lastChange = "2024-03-07 20:05:52 +0000";
layers = (
{
layerId = m01;
shapes = (
{
closed = 1;
nodes = (
(660,188,o),
(698,285,o),
(698,328,cs),
(698,340,o),
(695,348,o),
(688,348,cs),
(686,348,o),
(684,347,o),
(682,346,cs),
(620,321,o),
(574,306,o),
(526,306,cs),
(484,306,o),
(440,318,o),
(383,348,cs),
(343,370,o),
(298,382,o),
(250,382,cs),
(194,382,o),
(134,365,o),
(71,327,cs),
(44,310,o),
(10,218,o),
(10,178,cs),
(10,166,o),
(13,158,o),
(20,158,cs),
(23,158,o),
(26,159,o),
(29,161,cs),
(84,195,o),
(141,211,o),
(194,211,cs),
(239,211,o),
(282,200,o),
(321,180,cs),
(377,150,o),
(424,137,o),
(470,137,cs),
(520,137,o),
(570,152,o),
(634,178,cs)
);
}
);
width = 720;
}
);
unicode = 12316;
},
{
glyphname = parenleft;
kernLeft = parenleft;
kernRight = parenleft;
lastChange = "2024-03-07 20:05:52 +0000";
layers = (
{
layerId = m01;
shapes = (
{
closed = 1;
nodes = (
(348,698,o),
(352,705,o),
(352,710,cs),
(352,715,o),
(347,717,o),
(340,717,cs),
(314,717,o),
(252,690,o),
(220,657,cs),
(128,559,o),
(70,414,o),
(70,277,cs),
(70,163,o),
(110,55,o),
(204,-14,cs),
(226,-31,o),
(309,88,o),
(309,125,cs),
(309,129,o),
(308,133,o),
(306,134,c),
(233,188,o),
(205,268,o),
(205,354,cs),
(205,476,o),
(263,609,o),
(338,687,cs)
);
}
);
width = 402;
}
);
unicode = 40;
},
{
glyphname = braceleft;
kernLeft = braceleft;
kernRight = braceleft;
lastChange = "2024-03-07 20:05:52 +0000";
layers = (
{
layerId = m01;
shapes = (
{
closed = 1;
nodes = (
(338,671,o),
(345,679,o),
(345,684,cs),
(345,693,o),
(331,698,o),
(311,698,cs),
(291,698,o),
(265,693,o),
(242,681,cs),
(139,628,o),
(156,599,o),
(136,419,cs),
(132,391,o),
(144,373,o),
(92,373,cs),
(68,373,o),
(40,338,o),
(40,318,cs),
(40,310,o),
(45,305,o),
(56,305,cs),
(57,305,o),
(255,348,o),
(270,481,cs),
(289,647,o),
(291,648,o),
(322,663,cs)
);
},
{
closed = 1;
nodes = (
(68,370,o),
(42,336,o),
(42,316,cs),
(42,308,o),
(46,302,o),
(57,302,c),
(58,303,l),
(114,305,o),
(123,289,o),
(123,252,cs),
(123,194,o),
(114,137,o),
(114,92,cs),
(114,27,o),
(130,-16,o),
(204,-16,cs),
(244,-16,o),
(325,36,o),
(325,56,cs),
(325,61,o),
(320,64,o),
(308,64,cs),
(266,64,o),
(255,86,o),
(255,133,cs),
(255,171,o),
(262,227,o),
(265,301,cs),
(268,363,o),
(200,373,o),
(138,373,cs),
(92,371,ls)
);
}
);
width = 395;
}
);
unicode = 123;
},
{
glyphname = bracketleft;
lastChange = "2024-03-07 20:05:52 +0000";
layers = (
{
layerId = m01;
shapes = (
{
closed = 1;
nodes = (
(231,645,o),
(232,650,o),
(232,653,cs),
(232,664,o),
(226,669,o),
(217,669,cs),
(186,669,o),
(114,611,o),
(102,562,cs),
(97,539,o),
(60,11,o),
(60,8,cs),
(59,-7,o),
(65,-14,o),
(75,-14,cs),
(109,-14,o),
(187,55,o),
(190,102,cs),
(191,118,o),
(228,631,o),
(230,640,cs)
);
},
{
closed = 1;
nodes = (
(148,714,o),
(102,590,o),
(102,554,cs),
(102,548,o),
(103,544,o),
(106,544,cs),
(350,545,ls),
(367,545,o),
(414,668,o),
(414,705,cs),
(414,711,o),
(413,715,o),
(410,715,cs),
(166,714,ls)
);
},
{
closed = 1;
nodes = (
(117,156,o),
(71,32,o),
(71,-4,cs),
(71,-10,o),
(72,-14,o),
(75,-14,cs),
(307,-13,ls),
(324,-13,o),
(371,110,o),
(371,147,cs),
(371,153,o),
(370,157,o),
(367,157,cs),
(135,156,ls)
);
}
);
width = 443;
}
);
unicode = 91;
},
{
glyphname = anglebracketleft;
lastChange = "2024-03-07 20:05:52 +0000";
layers = (
{
layerId = m01;
shapes = (
{
closed = 1;
nodes = (
(391,792,o),
(393,798,o),
(393,803,cs),
(393,812,o),
(385,816,o),
(374,816,cs),
(343,816,o),
(281,785,o),
(260,747,cs),
(37,355,ls),
(32,347,o),
(30,341,o),
(30,336,cs),
(30,328,o),
(37,324,o),
(48,324,cs),
(79,324,o),
(143,356,o),
(163,393,cs),
(386,785,l)
);
},
{
closed = 1;
nodes = (
(172,426,o),
(166,429,o),
(158,429,cs),
(118,429,o),
(30,370,o),
(30,337,cs),
(30,334,o),
(31,332,o),
(32,329,c),
(255,-62,l),
(259,-67,o),
(265,-70,o),
(273,-70,cs),
(313,-70,o),
(401,-11,o),
(401,22,cs),
(401,25,o),
(400,27,o),
(399,30,c),
(176,421,l)
);
}
);
width = 451;
}
);
unicode = 12296;
},
{
glyphname = anglebracketright;
lastChange = "2024-03-07 20:05:52 +0000";
layers = (
{
layerId = m01;
shapes = (
{
closed = 1;
nodes = (
(60,-46,o),
(58,-52,o),
(58,-57,cs),
(58,-65,o),
(65,-69,o),
(76,-69,cs),
(107,-69,o),
(171,-37,o),
(191,0,cs),
(414,392,l),
(419,399,o),
(421,405,o),
(421,410,cs),
(421,419,o),
(413,423,o),
(402,423,cs),
(371,423,o),
(309,392,o),
(288,354,cs),
(65,-38,ls)
);
},
{
closed = 1;
nodes = (
(279,321,o),
(285,318,o),
(293,318,cs),
(333,318,o),
(421,377,o),
(421,410,cs),
(421,413,o),
(420,415,o),
(419,418,c),
(196,809,l),
(192,814,o),
(186,817,o),
(178,817,cs),
(138,817,o),
(50,758,o),
(50,725,cs),
(50,722,o),
(51,720,o),
(52,717,c),
(275,326,l)
);
}
);
width = 451;
}
);
unicode = 12297;
},
{
glyphname = cornerbracketleft;
lastChange = "2024-03-07 20:05:52 +0000";
layers = (
{
guides = (
{
pos = (345,889);
}
);
layerId = m01;
shapes = (
{
closed = 1;
nodes = (
(210,719,o),
(211,724,o),
(211,727,cs),
(211,738,o),
(205,743,o),
(196,743,cs),
(165,743,o),
(93,685,o),
(81,636,cs),
(75,612,o),
(50,196,o),
(50,193,cs),
(49,178,o),
(55,172,o),
(65,172,cs),
(99,172,o),
(177,242,o),
(180,289,cs),
(181,302,o),
(207,708,o),
(209,714,cs)
);
},
{
closed = 1;
nodes = (
(127,788,o),
(81,664,o),
(81,628,cs),
(81,622,o),
(82,618,o),
(85,618,cs),
(329,619,ls),
(346,619,o),
(393,742,o),
(393,779,cs),
(393,785,o),
(392,789,o),
(389,789,cs),
(145,788,ls)
);
}
);
width = 423;
}
);
unicode = 12300;
},
{
glyphname = cornerbracketright;
lastChange = "2024-03-07 20:05:52 +0000";
layers = (
{
layerId = m01;
shapes = (
{
closed = 1;
nodes = (
(213,-48,o),
(212,-52,o),
(212,-56,cs),
(212,-67,o),
(218,-72,o),
(228,-72,cs),
(259,-72,o),
(329,-16,o),
(342,35,cs),
(348,59,o),
(373,475,o),
(373,478,cs),
(374,492,o),
(368,499,o),
(359,499,cs),
(325,499,o),
(246,427,o),
(243,382,cs),
(242,369,o),
(216,-37,o),
(214,-43,cs)
);
},
{
closed = 1;
nodes = (
(295,-117,o),
(342,6,o),
(342,43,cs),
(342,49,o),
(341,53,o),
(338,53,cs),
(94,52,ls),
(76,52,o),
(30,-72,o),
(30,-108,cs),
(30,-114,o),
(31,-118,o),
(34,-118,cs),
(278,-117,ls)
);
}
);
width = 423;
}
);
unicode = 12301;
},
